%TF.GenerationSoftware,KiCad,Pcbnew,8.0.1*%
%TF.CreationDate,2024-05-09T15:37:21+08:00*%
%TF.ProjectId,ProDocument_ZYNQ7020_V1_2024-04-10,50726f44-6f63-4756-9d65-6e745f5a594e,rev?*%
%TF.SameCoordinates,Original*%
%TF.FileFunction,Copper,L5,Inr*%
%TF.FilePolarity,Positive*%
%FSLAX46Y46*%
G04 Gerber Fmt 4.6, Leading zero omitted, Abs format (unit mm)*
G04 Created by KiCad (PCBNEW 8.0.1) date 2024-05-09 15:37:21*
%MOMM*%
%LPD*%
G01*
G04 APERTURE LIST*
%TA.AperFunction,ViaPad*%
%ADD10C,0.400000*%
%TD*%
%TA.AperFunction,ViaPad*%
%ADD11C,0.450000*%
%TD*%
%TA.AperFunction,ViaPad*%
%ADD12C,3.500000*%
%TD*%
%TA.AperFunction,Conductor*%
%ADD13C,0.090000*%
%TD*%
%TA.AperFunction,Conductor*%
%ADD14C,0.200000*%
%TD*%
%TA.AperFunction,Conductor*%
%ADD15C,0.400000*%
%TD*%
G04 APERTURE END LIST*
D10*
%TO.N,Net-(U7F-PS_DDR_VREF0_502)*%
X187079203Y-73210797D03*
X182679203Y-72810797D03*
X190279204Y-72410797D03*
%TO.N,5V*%
X169229205Y-56160795D03*
X166079206Y-55960795D03*
X201079203Y-66410797D03*
X208479203Y-65610797D03*
X208479203Y-66410797D03*
X165679206Y-55960795D03*
X176579204Y-56860795D03*
X160544204Y-66210797D03*
X187232893Y-56745796D03*
X201079203Y-65610797D03*
X166479206Y-56660795D03*
X162479203Y-64610797D03*
X167979203Y-64710797D03*
X167979203Y-63710797D03*
X165479206Y-53660795D03*
X187779203Y-56685796D03*
X198579205Y-73810797D03*
%TO.N,DDRVTT*%
X173779204Y-100238298D03*
X199879203Y-100010798D03*
X169779203Y-100910797D03*
X201279204Y-96210797D03*
X185679203Y-100810798D03*
X192879204Y-101010797D03*
%TO.N,Net-(X1-VCC)*%
X175029205Y-62210797D03*
%TO.N,Net-(U7B-PS_MIO_VREF_501)*%
X180279203Y-68810798D03*
D11*
%TO.N,Net-(LED3-A)*%
X188479203Y-60410797D03*
D10*
%TO.N,Net-(U5-ZQ)*%
X180554939Y-93745798D03*
X177579203Y-93745798D03*
%TO.N,VREF_DDR*%
X199901703Y-94210797D03*
X169379205Y-91330795D03*
X190679204Y-91010797D03*
X178279203Y-93860796D03*
X172279203Y-91010798D03*
%TO.N,Net-(U7E-PS_DDR_VRP_502)*%
X182279203Y-74010797D03*
%TO.N,Net-(U7B-PS_MIO40_501)*%
X169000000Y-80800000D03*
X175479203Y-69110797D03*
%TO.N,Net-(U7C-PROGRAM_B_0)*%
X185479203Y-72410797D03*
%TO.N,GND*%
X189079203Y-72010797D03*
X201179203Y-81010797D03*
X197079203Y-53410797D03*
X179479203Y-64010798D03*
X164679203Y-84910797D03*
X185679203Y-53410797D03*
X177479203Y-53410797D03*
D11*
X167929205Y-56410795D03*
D10*
X171479203Y-53410797D03*
X181479203Y-64410797D03*
X197192348Y-74390254D03*
X164679203Y-83910797D03*
X177879202Y-90210798D03*
X171029204Y-70360797D03*
X169729205Y-99610797D03*
X197192348Y-73790254D03*
D11*
X189182893Y-56435796D03*
D10*
X183079203Y-69210797D03*
X181879203Y-53410797D03*
X204200000Y-86000000D03*
X168929205Y-69110797D03*
X172279203Y-87810797D03*
X202051000Y-53790000D03*
X185879203Y-68810797D03*
X183879203Y-68410797D03*
X173529205Y-74110797D03*
X196679203Y-91410797D03*
D12*
X162779204Y-99310797D03*
D11*
X161779203Y-92610797D03*
D10*
X202500000Y-81700000D03*
X177779203Y-77510798D03*
X207100000Y-74500000D03*
X172279203Y-97410797D03*
X202051000Y-57190000D03*
D12*
X206779203Y-55310798D03*
D10*
X165879203Y-57810797D03*
X178679203Y-86210798D03*
X177742322Y-98747678D03*
X181279203Y-53410797D03*
X185079204Y-68010797D03*
X186129205Y-59610797D03*
X202100000Y-58500000D03*
X173079203Y-88610797D03*
X194179203Y-94610798D03*
X196229204Y-61560797D03*
X166429205Y-93510797D03*
X181479203Y-97710798D03*
X184479203Y-53410797D03*
X181079203Y-69610797D03*
X182079203Y-97710798D03*
X197679203Y-53410797D03*
X201179203Y-83710797D03*
X191479203Y-76010797D03*
X186679204Y-66410797D03*
X189079202Y-75210799D03*
X191879203Y-74810797D03*
X179079203Y-66010797D03*
X176879203Y-53410797D03*
X185079204Y-63210798D03*
X182679203Y-97710798D03*
X192879203Y-53410797D03*
X186679205Y-74410797D03*
X183479202Y-69610798D03*
X192829204Y-65360797D03*
X187479203Y-68810797D03*
X187479203Y-67210797D03*
X188279203Y-68010797D03*
X178279203Y-70810797D03*
X178679203Y-53410797D03*
X194979203Y-91410797D03*
D11*
X161179203Y-92610797D03*
D10*
X170279203Y-53410797D03*
X192279203Y-53410797D03*
X182279203Y-62810797D03*
X165279203Y-57810797D03*
X184279203Y-67210797D03*
X190679205Y-87810797D03*
X170029204Y-70960797D03*
X183879203Y-74010797D03*
X180179203Y-61060797D03*
X182679203Y-68810798D03*
X172279202Y-95810798D03*
X178979203Y-93915797D03*
X177379203Y-71510797D03*
X185879204Y-67210797D03*
X181079204Y-72010797D03*
X174229205Y-73510797D03*
X169929205Y-77610797D03*
X197079203Y-97410797D03*
X168929205Y-69710797D03*
X169229205Y-89610797D03*
X178679203Y-85410798D03*
X182479203Y-53410797D03*
X173879204Y-86210798D03*
D11*
X160579203Y-92610797D03*
D12*
X206779203Y-99310797D03*
D10*
X198279203Y-53410797D03*
X167129205Y-96710797D03*
D12*
X162779203Y-55310797D03*
D10*
X178079203Y-53410797D03*
X181879203Y-68010798D03*
X182679204Y-70410797D03*
X189979203Y-82910797D03*
X174229205Y-74110797D03*
X197192348Y-73190254D03*
X189879203Y-64810798D03*
X181079203Y-75210797D03*
X197229204Y-61960797D03*
X177479203Y-63610797D03*
X172279203Y-88610797D03*
X187479203Y-64010798D03*
D11*
X178529202Y-56410795D03*
D10*
X185079203Y-53410797D03*
X187479203Y-53410797D03*
X200179203Y-70510797D03*
X178679203Y-90210798D03*
X192779203Y-85810797D03*
X178279203Y-69210797D03*
X190679204Y-90210798D03*
X186879203Y-53410797D03*
X190079203Y-86410797D03*
X186129205Y-60410797D03*
X176279203Y-53410797D03*
X203429204Y-58260797D03*
X191079203Y-53410797D03*
X197079204Y-94210797D03*
X191679203Y-53410797D03*
X164179203Y-84410797D03*
X170879203Y-53410797D03*
X201200000Y-79500000D03*
X206700000Y-67300000D03*
X171329205Y-72410797D03*
X175629205Y-100910797D03*
X184279203Y-65610797D03*
X173529205Y-74910797D03*
X196479203Y-53410797D03*
X172279203Y-94210797D03*
X172279203Y-86210797D03*
X190679203Y-62410798D03*
X169079203Y-53410797D03*
X206992348Y-81690254D03*
X178679203Y-74410798D03*
X189079203Y-67210797D03*
X183479203Y-68010798D03*
X190679203Y-88610797D03*
X172279202Y-90210798D03*
X197079204Y-95810798D03*
X177879203Y-88610797D03*
X190679204Y-95810798D03*
X206992348Y-88890254D03*
X186279203Y-53410797D03*
X200479203Y-71110797D03*
X173079203Y-91810798D03*
X186224847Y-78411794D03*
X164679203Y-84910797D03*
X179279203Y-53410797D03*
X195279203Y-53410797D03*
X177479204Y-91410797D03*
X185079203Y-71210797D03*
X177879203Y-87810797D03*
X169679203Y-53410797D03*
X169229205Y-85710797D03*
X195879203Y-53410797D03*
%TO.N,Net-(U7B-PS_SRST_B_501)*%
X177879202Y-69610798D03*
%TO.N,Net-(U7C-INIT_B_0)*%
X188664836Y-69070632D03*
%TO.N,Net-(U7A-PS_POR_B_500)*%
X178679203Y-72010797D03*
%TO.N,Net-(U7E-PS_DDR_VRN_502)*%
X181483618Y-74021839D03*
%TO.N,AIO_6_N*%
X188279203Y-66410797D03*
X202579203Y-78510797D03*
%TO.N,AIO_22_P*%
X206979203Y-73710799D03*
X191479203Y-63210798D03*
%TO.N,AIO_21_N*%
X190679204Y-63210798D03*
X206979202Y-75310798D03*
%TO.N,AIO_12_P*%
X189879204Y-63210797D03*
%TO.N,AIO_2_P*%
X189079203Y-68010798D03*
%TO.N,AIO_14_N*%
X187479203Y-61610797D03*
%TO.N,JTAG_TCK*%
X205258203Y-95090796D03*
X181079204Y-70410799D03*
%TO.N,AIO_24_P*%
X187479204Y-65610797D03*
X202579203Y-76110797D03*
%TO.N,AIO_8_N*%
X206979203Y-78510797D03*
%TO.N,AIO_17_N*%
X206979203Y-68110799D03*
%TO.N,AIO_14_P*%
X186679203Y-61610797D03*
%TO.N,AIO_4_N*%
X206979203Y-82510797D03*
%TO.N,AIO_17_P*%
X206979203Y-68910797D03*
%TO.N,AIO_7_N*%
X206979203Y-71310798D03*
%TO.N,AIO_10_N*%
X205324203Y-74406863D03*
%TO.N,AIO_12_N*%
X189879204Y-62410798D03*
%TO.N,AIO_5_P*%
X189079203Y-66410797D03*
%TO.N,AIO_4_P*%
X206979205Y-83310797D03*
%TO.N,AIO_21_P*%
X190679203Y-64010798D03*
X206979204Y-76110798D03*
%TO.N,AIO_3_N*%
X190679203Y-67210797D03*
%TO.N,AIO_15_P*%
X206979204Y-70510798D03*
%TO.N,AIO_2_N*%
X189879204Y-68010798D03*
%TO.N,AIO_19_N*%
X188279203Y-64010797D03*
%TO.N,AIO_10_P*%
X204834204Y-74406863D03*
%TO.N,AIO_22_N*%
X206979203Y-72910797D03*
X191479203Y-62410797D03*
%TO.N,AIO_19_P*%
X188279203Y-64810798D03*
%TO.N,JTAG_TDO*%
X181079203Y-72810797D03*
X205258203Y-92550798D03*
%TO.N,JTAG_TMS*%
X183479202Y-72810797D03*
X205258203Y-87470797D03*
%TO.N,AIO_16_N*%
X191479204Y-61610797D03*
%TO.N,AIO_1_N*%
X189079202Y-69610798D03*
%TO.N,AIO_7_P*%
X206979205Y-72110797D03*
%TO.N,AIO_16_P*%
X190679203Y-61610797D03*
%TO.N,AIO_18_P*%
X206979205Y-77710797D03*
X190679203Y-64810799D03*
%TO.N,AIO_8_P*%
X206979202Y-79310797D03*
%TO.N,AIO_1_P*%
X189079203Y-68810797D03*
%TO.N,AIO_15_N*%
X206979202Y-69710798D03*
%TO.N,AIO_18_N*%
X191479203Y-64810797D03*
X206979203Y-76910798D03*
%TO.N,AIO_3_P*%
X189879204Y-67210797D03*
%TO.N,AIO_6_P*%
X202579205Y-79310797D03*
X187479203Y-66410797D03*
%TO.N,JTAG_TDI*%
X202579203Y-87310797D03*
X181879204Y-72810797D03*
%TO.N,AIO_5_N*%
X189079203Y-65610798D03*
%TO.N,AIO_24_N*%
X202579205Y-75310798D03*
X187479203Y-64810797D03*
%TO.N,SDO_D1*%
X162479204Y-88110797D03*
%TO.N,BIO_1_P*%
X162579204Y-70510798D03*
X178679203Y-61610797D03*
%TO.N,SDO_CMD*%
X166979203Y-88110797D03*
%TO.N,BIO_15_P*%
X163965650Y-71955797D03*
%TO.N,BIO_18_P*%
X163904669Y-68755798D03*
%TO.N,SDO_D0*%
X162479203Y-87310797D03*
%TO.N,BIO_4_P*%
X163980857Y-73555800D03*
%TO.N,BIO_5_P*%
X180279203Y-63210798D03*
X169752445Y-64284039D03*
X163963861Y-77555797D03*
%TO.N,SDO_D2*%
X166979204Y-86510796D03*
%TO.N,SDO_D3*%
X166979203Y-87310798D03*
%TO.N,BIO_13_P*%
X164031428Y-75955798D03*
X182679204Y-64810797D03*
%TO.N,BIO_5_N*%
X169405961Y-63937556D03*
X163963860Y-77065797D03*
X180279204Y-62410798D03*
%TO.N,BIO_13_N*%
X182679203Y-64010797D03*
X164031428Y-75465797D03*
%TO.N,BIO_1_N*%
X162579203Y-69710798D03*
X177879203Y-61610797D03*
%TO.N,BIO_18_N*%
X163904668Y-68265798D03*
%TO.N,BIO_4_N*%
X163980858Y-73065798D03*
%TO.N,BIO_15_N*%
X163965651Y-71465798D03*
%TO.N,SDO_CLK*%
X162579203Y-86510798D03*
%TO.N,DDR_CKE*%
X197079204Y-92610798D03*
X183979204Y-92110797D03*
X178679203Y-92610797D03*
%TO.N,DDR_A4*%
X177879202Y-95810798D03*
X196279204Y-95810798D03*
X183914203Y-96685794D03*
%TO.N,DDR_BA1*%
X179679204Y-91400797D03*
X196279204Y-95010797D03*
X188279203Y-74410798D03*
%TO.N,DDR_A6*%
X187279204Y-99675617D03*
X185266083Y-84048916D03*
X184679203Y-74810797D03*
X196679203Y-97010797D03*
X177479203Y-98010798D03*
%TO.N,DDR_A1*%
X195479204Y-95810797D03*
X177079203Y-95810798D03*
X183514204Y-97175798D03*
%TO.N,DDR_A11*%
X184279203Y-86310797D03*
X186394202Y-98975798D03*
X181479203Y-74810797D03*
X193894204Y-98210797D03*
%TO.N,DDR_A14*%
X180679203Y-74810797D03*
X195014204Y-97410798D03*
X184579203Y-86710797D03*
X177079203Y-97410798D03*
X185879203Y-98610798D03*
%TO.N,DDR_A8*%
X184363572Y-99552667D03*
X196279204Y-97410798D03*
X179079203Y-99710798D03*
%TO.N,DDR_RAS*%
X173879204Y-91810798D03*
X188892314Y-91197685D03*
%TO.N,DDR_A10*%
X184279203Y-87110798D03*
X194479203Y-93810797D03*
X180679203Y-74010797D03*
X177079204Y-93410797D03*
X185479203Y-93010798D03*
%TO.N,DDR_A12*%
X185479203Y-94610798D03*
X177479203Y-94610798D03*
X184579203Y-87510798D03*
X194979203Y-95010797D03*
X179879203Y-74810797D03*
%TO.N,DDR_CAS*%
X186629899Y-83635255D03*
X174568758Y-92615797D03*
X187079205Y-74010797D03*
X188017412Y-90796544D03*
%TO.N,DDR_WE*%
X185601083Y-84483651D03*
X187562483Y-91620314D03*
X173879205Y-93410797D03*
X185479203Y-74010797D03*
%TO.N,DDR_BA2*%
X183079204Y-74010797D03*
X192279203Y-94210797D03*
X184379203Y-85010797D03*
X173879203Y-94210797D03*
X186779203Y-93410797D03*
%TO.N,DDR_A13*%
X191879203Y-97810797D03*
X184279203Y-87910798D03*
X185279204Y-98210798D03*
X173879204Y-97410798D03*
X179079203Y-74810797D03*
%TO.N,DDR_A0*%
X173879204Y-95010797D03*
X192279204Y-95010797D03*
X184079203Y-94010797D03*
%TO.N,DDR_A5*%
X191479203Y-95810798D03*
X173079203Y-95810798D03*
X184249203Y-96195791D03*
%TO.N,DDR_A9*%
X183079203Y-74810797D03*
X173479204Y-97010797D03*
X184861703Y-99028297D03*
X184578485Y-88886857D03*
X192679204Y-97010797D03*
%TO.N,DDR_A2*%
X192279203Y-95810798D03*
X184584202Y-95705951D03*
X173879204Y-95810798D03*
%TO.N,DDR_A7*%
X184729203Y-97560798D03*
X191079203Y-97010797D03*
X173079202Y-96610798D03*
X183879204Y-74810797D03*
X184824203Y-89310798D03*
%TO.N,DDR_ODT*%
X172279202Y-92610799D03*
X186279203Y-74010797D03*
X188351922Y-91638078D03*
X186283416Y-83288772D03*
%TO.N,DDR_A3*%
X191479203Y-95010797D03*
X182779203Y-95210798D03*
X171129203Y-94660797D03*
X173079203Y-95010797D03*
%TO.N,DDR_CS*%
X191479203Y-93410797D03*
X173079203Y-93410798D03*
X183879203Y-92600800D03*
%TO.N,DDR_BA0*%
X185651472Y-85027536D03*
X184679204Y-74010797D03*
%TO.N,PG_1V0*%
X180064200Y-56010797D03*
X167629204Y-53660795D03*
X167029204Y-56160795D03*
%TO.N,PG_1V8*%
X197179203Y-75010797D03*
X176479203Y-55910797D03*
X199079203Y-76410798D03*
%TO.N,PG_1V5*%
X199779203Y-73310797D03*
X190579203Y-56185796D03*
%TO.N,DDR_D15*%
X174539204Y-83496238D03*
X177679204Y-82810798D03*
%TO.N,DDR_DM0*%
X176655040Y-88199615D03*
X174479203Y-80310797D03*
%TO.N,DDR_D1*%
X173279204Y-80410797D03*
X176259203Y-87910798D03*
%TO.N,DDR_RESET*%
X173079203Y-97410798D03*
X189400000Y-100110797D03*
X177879203Y-74410797D03*
%TO.N,DDR_D0*%
X174329203Y-88210798D03*
X174564203Y-84932945D03*
%TO.N,DDR_D6*%
X174899203Y-85410798D03*
X175079203Y-87810797D03*
%TO.N,DDR_D8*%
X180679203Y-77110797D03*
X177504203Y-88210798D03*
%TO.N,DDR_DQS1_P*%
X179724203Y-80610797D03*
X177079203Y-87010797D03*
%TO.N,DDR_DM1*%
X173879205Y-87810797D03*
X175279203Y-86910797D03*
%TO.N,DDR_D5*%
X179454203Y-77810797D03*
X178279204Y-90610798D03*
%TO.N,DDR_DQS1_N*%
X179234204Y-80610798D03*
X177079203Y-86210798D03*
%TO.N,DDR_DQS0_N*%
X174279203Y-89810797D03*
X178034203Y-78610797D03*
%TO.N,DDR_DQS0_P*%
X173479204Y-89810798D03*
X178524203Y-78610798D03*
%TO.N,DDR_D11*%
X174566557Y-82583717D03*
X178066877Y-82479077D03*
D11*
%TO.N,DDR_D4*%
X173879204Y-91010797D03*
D10*
X175234203Y-85046582D03*
%TO.N,DDR_D3*%
X177879203Y-89410797D03*
X177479203Y-74810797D03*
%TO.N,DDR_CLK_N*%
X186524203Y-85835803D03*
X185959277Y-77999999D03*
X179190470Y-91365538D03*
X187424204Y-88610797D03*
X195879203Y-92210797D03*
%TO.N,DDR_D13*%
X173830158Y-82933431D03*
X177893054Y-81807636D03*
%TO.N,DDR_CLK_P*%
X186934203Y-88610797D03*
X195079204Y-92210797D03*
X185469278Y-78000000D03*
X186034203Y-85835803D03*
X177079203Y-91810798D03*
%TO.N,SD_CMD*%
X178679203Y-64010797D03*
X175963622Y-70095216D03*
X169479242Y-83175472D03*
%TO.N,AIO_9_P*%
X189079203Y-64810797D03*
X203429203Y-61560797D03*
%TO.N,SD_D1*%
X176526690Y-71210797D03*
X171341997Y-82473593D03*
%TO.N,BIO_12_P*%
X184679203Y-63610797D03*
%TO.N,BIO_20_N*%
X183479203Y-66410797D03*
%TO.N,QSPI_D1*%
X176279203Y-71985797D03*
X179479204Y-72810797D03*
%TO.N,MIO7*%
X179091204Y-70822798D03*
%TO.N,BIO_17_N*%
X172679203Y-59755798D03*
X172679203Y-59755798D03*
%TO.N,BIO_12_N*%
X184279203Y-63210798D03*
%TO.N,UART1_TX*%
X177879203Y-68010797D03*
D11*
X161179203Y-95150797D03*
%TO.N,PL_CLK*%
X189879205Y-65610797D03*
D10*
X194279203Y-66710797D03*
%TO.N,AIO_9_N*%
X189879204Y-64010798D03*
%TO.N,BIO_3_N*%
X179479204Y-63210798D03*
%TO.N,BIO_19_P*%
X182279204Y-66010798D03*
%TO.N,PS_CLK*%
X175299203Y-66210797D03*
X180279203Y-72010797D03*
%TO.N,BIO_3_P*%
X180279204Y-64010798D03*
%TO.N,BIO_17_P*%
X172679204Y-59265797D03*
X172679204Y-59265797D03*
%TO.N,BIO_2_N*%
X177079203Y-61610797D03*
%TO.N,MIO8*%
X179479204Y-73610797D03*
%TO.N,SD_D2*%
X169679203Y-84147679D03*
X180679203Y-67610797D03*
D11*
%TO.N,UART1_RX*%
X161179203Y-90070797D03*
D10*
X178679203Y-68010797D03*
%TO.N,BIO_22_P*%
X185079204Y-66410797D03*
%TO.N,DONE*%
X197000000Y-59000000D03*
X188679203Y-68410797D03*
%TO.N,BIO_2_P*%
X177879203Y-62410798D03*
%TO.N,BIO_14_N*%
X182679203Y-63210798D03*
%TO.N,BIO_19_N*%
X181479203Y-66010798D03*
%TO.N,AIO_20_P*%
X189079203Y-64010798D03*
D11*
%TO.N,BIO_24_P*%
X170749203Y-75610798D03*
D10*
X184279203Y-64810798D03*
%TO.N,BIO_20_P*%
X184279203Y-66410797D03*
%TO.N,BIO_14_P*%
X183479203Y-63210797D03*
%TO.N,SD_D0*%
X175479203Y-69610797D03*
X169475505Y-82685484D03*
%TO.N,SD_D3*%
X169687851Y-83639462D03*
X175917991Y-70649585D03*
X177479203Y-66010798D03*
%TO.N,AIO_20_N*%
X188279203Y-63210798D03*
%TO.N,DDR_D29*%
X191479203Y-85410798D03*
X191479204Y-75210798D03*
%TO.N,DDR_D18*%
X188679203Y-75610798D03*
X191479203Y-89410797D03*
%TO.N,DDR_D17*%
X195479203Y-89410797D03*
X189013336Y-85618693D03*
%TO.N,DDR_D22*%
X189879203Y-76010797D03*
X189401924Y-88088076D03*
%TO.N,DDR_D25*%
X194679203Y-79210798D03*
X191879203Y-84810798D03*
%TO.N,DDR_D20*%
X189742059Y-90312960D03*
X189079203Y-74410797D03*
%TO.N,DDR_D21*%
X189779204Y-82037036D03*
X194179203Y-90145797D03*
%TO.N,DDR_D27*%
X194679203Y-78310798D03*
X191400626Y-83805389D03*
%TO.N,DDR_DM3*%
X193944203Y-77560797D03*
X193279203Y-84310798D03*
%TO.N,DDR_D19*%
X193389812Y-89415268D03*
X189079203Y-82910798D03*
%TO.N,DDR_D23*%
X195479204Y-91010798D03*
X189879205Y-75210797D03*
%TO.N,DDR_D28*%
X195479204Y-84610797D03*
X194029203Y-76960797D03*
%TO.N,DDR_DQS2_N*%
X191879202Y-89810799D03*
X189124203Y-79310797D03*
%TO.N,DDR_DQS3_N*%
X197334203Y-84110797D03*
X195479204Y-86210797D03*
%TO.N,DDR_DQS3_P*%
X195479203Y-87010798D03*
X197824204Y-84110797D03*
%TO.N,DDR_DQS2_P*%
X192679205Y-89810797D03*
X188634203Y-79310797D03*
D11*
%TO.N,BIO_24_N*%
X170209202Y-75610798D03*
D10*
X183479203Y-64810797D03*
%TO.N,1.8V*%
X183479203Y-70410797D03*
X182679203Y-71210797D03*
X179479204Y-68010797D03*
X184279203Y-71210797D03*
X184879204Y-57360795D03*
X177879203Y-64810797D03*
X186679205Y-68810797D03*
X168579203Y-83500000D03*
X183879204Y-69210797D03*
X181879203Y-70410797D03*
X179879203Y-66010798D03*
X181079204Y-68810798D03*
X177479203Y-67610797D03*
X185079204Y-68810798D03*
%TO.N,1.0V*%
X182279205Y-67610797D03*
X183479203Y-67210797D03*
X185079204Y-72010797D03*
X186679205Y-72010796D03*
X186679203Y-67210797D03*
X187879204Y-67610798D03*
X187879202Y-71610797D03*
X182679203Y-68010797D03*
X181879203Y-72010797D03*
X183479203Y-72010797D03*
X174379206Y-57360795D03*
X185079204Y-67210796D03*
%TO.N,1.5V*%
X171079203Y-98010798D03*
X197479203Y-95010797D03*
X180679202Y-95810798D03*
X197879203Y-92210797D03*
X182079203Y-77510798D03*
X172279203Y-96610798D03*
X196279203Y-92610797D03*
X197979204Y-94210797D03*
X188679204Y-74010797D03*
X197879204Y-81610797D03*
X193179204Y-78210797D03*
X197079203Y-91010798D03*
X172279203Y-85410798D03*
X171079203Y-96210797D03*
X192679204Y-78510797D03*
X194879203Y-90210798D03*
X173079203Y-86210798D03*
X185079203Y-75210797D03*
X193072262Y-90298938D03*
X197079204Y-87010798D03*
X179079204Y-75610798D03*
X178679203Y-87010797D03*
X191479203Y-87810797D03*
X172279203Y-89410797D03*
X197079204Y-96610798D03*
X197879203Y-90510797D03*
X197079204Y-88610797D03*
X171079203Y-96810797D03*
X179169204Y-89925797D03*
X196279203Y-85410798D03*
X179979204Y-93910797D03*
X197879203Y-88610797D03*
X189779204Y-88510798D03*
X173079203Y-87810798D03*
X178279203Y-93010798D03*
X190679204Y-74410798D03*
X197879204Y-86910797D03*
X197079203Y-87810797D03*
X197979203Y-97810797D03*
X171079203Y-97410797D03*
X177879203Y-85410798D03*
X170901703Y-91210798D03*
X172279203Y-95010797D03*
X182279204Y-74810797D03*
X198179203Y-95710797D03*
X172279202Y-87010798D03*
X191065626Y-84310797D03*
X192179203Y-78210797D03*
X173479203Y-92210797D03*
X177079203Y-90210798D03*
X190079203Y-96170794D03*
X190679203Y-87010797D03*
X180279204Y-73610798D03*
X177079203Y-75210797D03*
X173079202Y-91010798D03*
X187879204Y-77810797D03*
X189879204Y-76810797D03*
X193279203Y-93410798D03*
X191479203Y-86210797D03*
%TO.N,3.3V*%
X183079203Y-66010798D03*
X188279203Y-65610797D03*
X174384203Y-77110797D03*
X174479203Y-67310797D03*
X199000000Y-55610800D03*
X187879203Y-72410797D03*
X196079204Y-58410797D03*
X171879203Y-62810797D03*
X195572895Y-57910797D03*
X195279204Y-58410797D03*
X177879202Y-72810797D03*
X184679204Y-72410797D03*
X189079203Y-71210797D03*
X184279203Y-61610797D03*
X192279203Y-61610797D03*
X168179203Y-89710797D03*
X176479203Y-63610797D03*
X185879203Y-64810797D03*
X191479204Y-64010798D03*
X178679203Y-62410798D03*
X205879204Y-59910797D03*
X191879203Y-71610797D03*
X189879204Y-68810797D03*
X186679204Y-62410798D03*
X183479203Y-64010798D03*
X189079202Y-63210798D03*
X192279203Y-69610797D03*
X186279202Y-72410799D03*
X194479204Y-58410797D03*
X193629204Y-72560797D03*
X181079204Y-63210798D03*
X171679203Y-67110798D03*
X179479204Y-72010797D03*
X190679204Y-66410797D03*
%TD*%
D13*
%TO.N,AIO_6_N*%
X188479204Y-66810798D02*
X188279204Y-66610798D01*
X198169204Y-77173518D02*
X198169204Y-72373517D01*
X193293666Y-66816716D02*
X193251239Y-66774289D01*
X198169204Y-72373517D02*
X193122741Y-67327054D01*
X188279204Y-66610798D02*
X188279204Y-66410797D01*
X193122741Y-67157348D02*
X193293666Y-66986422D01*
X202579204Y-78510797D02*
X202269204Y-78820797D01*
X192740901Y-66945214D02*
X192698476Y-66902789D01*
X192606484Y-66810797D02*
X188479204Y-66810798D01*
X192698476Y-66902789D02*
X192606484Y-66810797D01*
X202269204Y-78820797D02*
X199816484Y-78820798D01*
X199816484Y-78820798D02*
X198169204Y-77173518D01*
X193081533Y-66774289D02*
X192910607Y-66945214D01*
X193251238Y-66774290D02*
G75*
G03*
X193081534Y-66774290I-84852J-84853D01*
G01*
X192910606Y-66945213D02*
G75*
G02*
X192740902Y-66945213I-84852J84853D01*
G01*
X193293666Y-66986422D02*
G75*
G03*
X193293635Y-66816747I-84866J84822D01*
G01*
X193122741Y-67327054D02*
G75*
G02*
X193122740Y-67157347I84859J84854D01*
G01*
%TO.N,AIO_22_P*%
X206979203Y-73710799D02*
X206669203Y-73400799D01*
X205741925Y-73400799D02*
X195241924Y-62900798D01*
X206669203Y-73400799D02*
X205741925Y-73400799D01*
X191789203Y-62900798D02*
X191479203Y-63210798D01*
X195241924Y-62900798D02*
X191789203Y-62900798D01*
%TO.N,AIO_21_N*%
X190679205Y-63210798D02*
X191079205Y-63610797D01*
X193024204Y-64255798D02*
X194951484Y-64255798D01*
X202469204Y-72973518D02*
X205116483Y-75620796D01*
X202469204Y-71773517D02*
X202469204Y-72973518D01*
X206669205Y-75620797D02*
X206979203Y-75310798D01*
X194951484Y-64255798D02*
X202469204Y-71773517D01*
X192379204Y-63610797D02*
X193024204Y-64255798D01*
X205116483Y-75620796D02*
X206669205Y-75620797D01*
X191079205Y-63610797D02*
X192379204Y-63610797D01*
%TO.N,JTAG_TCK*%
X187740443Y-72745797D02*
X187405442Y-72410797D01*
X181679204Y-72410797D02*
X181479204Y-72210798D01*
X205593204Y-85624798D02*
X203979203Y-84010798D01*
X183879204Y-72410797D02*
X181679204Y-72410797D01*
X181479204Y-72210798D02*
X181479204Y-70810798D01*
X187405442Y-72410797D02*
X186752966Y-72410799D01*
X192323321Y-72745797D02*
X187740443Y-72745797D01*
X184214204Y-72745797D02*
X183879204Y-72410797D01*
X181479204Y-70810798D02*
X181079205Y-70410799D01*
X205258204Y-95090796D02*
X205593204Y-94755796D01*
X203979203Y-84010798D02*
X203588319Y-84010796D01*
X186752966Y-72410799D02*
X186417966Y-72745797D01*
X205593204Y-94755796D02*
X205593204Y-85624798D01*
X186417966Y-72745797D02*
X184214204Y-72745797D01*
X203588319Y-84010796D02*
X192323321Y-72745797D01*
%TO.N,AIO_24_P*%
X200814831Y-75673705D02*
X198989204Y-73848077D01*
X198989205Y-72148077D02*
X192876924Y-66035797D01*
X201608749Y-76025762D02*
X201533713Y-76025762D01*
X191624645Y-66010798D02*
X187879205Y-66010798D01*
X202579204Y-76110797D02*
X202269205Y-75800798D01*
X202269205Y-75800798D02*
X201833715Y-75800798D01*
X192876924Y-66035797D02*
X191649645Y-66035797D01*
X201233715Y-75800800D02*
X200941925Y-75800799D01*
X191649645Y-66035797D02*
X191624645Y-66010798D01*
X201308749Y-75800800D02*
X201233715Y-75800800D01*
X187879205Y-66010798D02*
X187479205Y-65610797D01*
X198989204Y-73848077D02*
X198989205Y-72148077D01*
X200941925Y-75800799D02*
X200814831Y-75673705D01*
X201533713Y-76025762D02*
G75*
G02*
X201421238Y-75913280I-13J112462D01*
G01*
X201721232Y-75913280D02*
G75*
G02*
X201608749Y-76025832I-112532J-20D01*
G01*
X201421231Y-75913280D02*
G75*
G03*
X201308749Y-75800869I-112431J-20D01*
G01*
X201833715Y-75800798D02*
G75*
G03*
X201721198Y-75913280I-15J-112502D01*
G01*
%TO.N,AIO_21_P*%
X190679205Y-64010797D02*
X191014206Y-64345797D01*
X192859647Y-64345797D02*
X192949647Y-64435798D01*
X194876924Y-64435797D02*
X195137210Y-64696083D01*
X191014206Y-64345797D02*
X192859647Y-64345797D01*
X194579200Y-64435797D02*
X194876924Y-64435797D01*
X194504101Y-64435794D02*
X194579200Y-64435797D01*
X202289204Y-71848077D02*
X202289204Y-73048077D01*
X195137210Y-64696083D02*
X202289204Y-71848077D01*
X194204103Y-64660698D02*
X194279201Y-64660697D01*
X206669205Y-75800798D02*
X206979205Y-76110798D01*
X192949647Y-64435798D02*
X193279203Y-64435798D01*
X202289204Y-73048077D02*
X205041924Y-75800797D01*
X193279203Y-64435798D02*
X193979201Y-64435798D01*
X205041924Y-75800797D02*
X206669205Y-75800798D01*
X194279201Y-64660697D02*
G75*
G03*
X194391697Y-64548246I-1J112497D01*
G01*
X193979201Y-64435798D02*
G75*
G02*
X194091702Y-64548248I-1J-112502D01*
G01*
X194391651Y-64548246D02*
G75*
G02*
X194504101Y-64435751I112449J46D01*
G01*
X194091652Y-64548248D02*
G75*
G03*
X194204103Y-64660648I112448J48D01*
G01*
%TO.N,AIO_22_N*%
X205816483Y-73220797D02*
X195316483Y-62720797D01*
X206669203Y-73220797D02*
X205816483Y-73220797D01*
X195316483Y-62720797D02*
X191789203Y-62720797D01*
X191789203Y-62720797D02*
X191479203Y-62410797D01*
X206979203Y-72910797D02*
X206669203Y-73220797D01*
%TO.N,JTAG_TDO*%
X187679203Y-73610798D02*
X186379204Y-73610797D01*
X186094205Y-73325798D02*
X181594204Y-73325798D01*
X181594204Y-73325798D02*
X181079204Y-72810797D01*
X205258204Y-92550798D02*
X203919204Y-92550798D01*
X203919204Y-92550798D02*
X202079204Y-90710798D01*
X192099646Y-73285797D02*
X188004204Y-73285797D01*
X188004204Y-73285797D02*
X187679203Y-73610798D01*
X202079204Y-83265355D02*
X192099646Y-73285797D01*
X202079204Y-90710798D02*
X202079204Y-83265355D01*
X186379204Y-73610797D02*
X186094205Y-73325798D01*
%TO.N,JTAG_TMS*%
X205258204Y-87470797D02*
X205258204Y-85544355D01*
X205258204Y-85544355D02*
X203904646Y-84190797D01*
X192248762Y-72925798D02*
X187665883Y-72925796D01*
X186492523Y-72925799D02*
X184139645Y-72925796D01*
X187665883Y-72925796D02*
X187330884Y-72590797D01*
X203513761Y-84190797D02*
X192248762Y-72925798D01*
X184139645Y-72925796D02*
X184024646Y-72810797D01*
X187330884Y-72590797D02*
X186827524Y-72590797D01*
X203904646Y-84190797D02*
X203513761Y-84190797D01*
X186827524Y-72590797D02*
X186492523Y-72925799D01*
X184024646Y-72810797D02*
X183479203Y-72810797D01*
%TO.N,AIO_18_P*%
X202841923Y-74500797D02*
X205741923Y-77400797D01*
X191185442Y-64990797D02*
X191340443Y-65145797D01*
X206669206Y-77400797D02*
X206979206Y-77710797D01*
X191340443Y-65145797D02*
X191617967Y-65145797D01*
X191617967Y-65145797D02*
X191772967Y-64990797D01*
X206979206Y-77710797D02*
X206669205Y-77400798D01*
X193831923Y-64990797D02*
X199489203Y-70648077D01*
X199489203Y-71848077D02*
X202141923Y-74500797D01*
X190859203Y-64990798D02*
X191185442Y-64990797D01*
X190679204Y-64810799D02*
X190859203Y-64990798D01*
X205741923Y-77400797D02*
X206669206Y-77400797D01*
X199489203Y-70648077D02*
X199489203Y-71848077D01*
X202141923Y-74500797D02*
X202841923Y-74500797D01*
X191772967Y-64990797D02*
X193831923Y-64990797D01*
%TO.N,AIO_18_N*%
X195009918Y-65914233D02*
X195052346Y-65956660D01*
X199669203Y-70573517D02*
X199669203Y-71773517D01*
X195434182Y-66338497D02*
X195476610Y-66380924D01*
X195464765Y-65883652D02*
X195507191Y-65926078D01*
X195802598Y-66706912D02*
X199669203Y-70573517D01*
X195476610Y-66380924D02*
X195802598Y-66706912D01*
X194373524Y-65108133D02*
X194446531Y-65035123D01*
X199669203Y-71773517D02*
X202216483Y-74320797D01*
X191479204Y-64810797D02*
X193906483Y-64810797D01*
X194658663Y-65247256D02*
X194585653Y-65320263D01*
X195082948Y-65671499D02*
X195009917Y-65744527D01*
X194585654Y-65489969D02*
X194628082Y-65532396D01*
X194797788Y-65532397D02*
X194870816Y-65459366D01*
X195040522Y-65459367D02*
X195082948Y-65501793D01*
X202216483Y-74320797D02*
X202916483Y-74320797D01*
X205816483Y-77220797D02*
X206669205Y-77220797D01*
X193906483Y-64810797D02*
X194203818Y-65108132D01*
X206669205Y-77220797D02*
X206979204Y-76910798D01*
X195222052Y-65956661D02*
X195295059Y-65883651D01*
X194616237Y-65035124D02*
X194658663Y-65077550D01*
X202916483Y-74320797D02*
X205816483Y-77220797D01*
X195507191Y-66095784D02*
X195434181Y-66168791D01*
X195434181Y-66168791D02*
G75*
G03*
X195434226Y-66338453I84819J-84809D01*
G01*
X194446531Y-65035123D02*
G75*
G02*
X194616253Y-65035108I84869J-84877D01*
G01*
X194870817Y-65459367D02*
G75*
G02*
X195040553Y-65459336I84883J-84833D01*
G01*
X195507191Y-65926078D02*
G75*
G02*
X195507160Y-66095753I-84891J-84822D01*
G01*
X195295060Y-65883652D02*
G75*
G02*
X195464753Y-65883664I84840J-84848D01*
G01*
X194585654Y-65320264D02*
G75*
G03*
X194585670Y-65489953I84846J-84836D01*
G01*
X195009917Y-65744527D02*
G75*
G03*
X195009898Y-65914253I84883J-84873D01*
G01*
X194628083Y-65532395D02*
G75*
G03*
X194797752Y-65532361I84817J84895D01*
G01*
X195052347Y-65956659D02*
G75*
G03*
X195222052Y-65956661I84853J84859D01*
G01*
X195082948Y-65501793D02*
G75*
G02*
X195082902Y-65671453I-84848J-84807D01*
G01*
X194658663Y-65077550D02*
G75*
G02*
X194658660Y-65247253I-84863J-84850D01*
G01*
X194203819Y-65108131D02*
G75*
G03*
X194373552Y-65108161I84881J84831D01*
G01*
%TO.N,AIO_6_P*%
X197989204Y-77248078D02*
X199741924Y-79000798D01*
X187479204Y-66410797D02*
X188679204Y-67610797D01*
X193151926Y-67610797D02*
X197989206Y-72448077D01*
X197989206Y-72448077D02*
X197989204Y-77248078D01*
X202269205Y-79000797D02*
X202579206Y-79310797D01*
X188679204Y-67610797D02*
X193151926Y-67610797D01*
X199741924Y-79000798D02*
X202269205Y-79000797D01*
%TO.N,JTAG_TDI*%
X187256327Y-72770797D02*
X186910644Y-72770798D01*
X182214206Y-73145797D02*
X181879205Y-72810797D01*
X187591328Y-73105798D02*
X187256327Y-72770797D01*
X186535644Y-73145798D02*
X182214206Y-73145797D01*
X192174203Y-73105797D02*
X187591328Y-73105798D01*
X186910644Y-72770798D02*
X186535644Y-73145798D01*
X202579204Y-83510797D02*
X192174203Y-73105797D01*
X202579204Y-87310797D02*
X202579204Y-83510797D01*
%TO.N,AIO_24_N*%
X192951484Y-65855798D02*
X199169205Y-72073518D01*
X187879204Y-65210798D02*
X191079203Y-65210798D01*
X201016484Y-75620797D02*
X202269205Y-75620797D01*
X191079203Y-65210798D02*
X191724203Y-65855797D01*
X187479204Y-64810797D02*
X187879204Y-65210798D01*
X199169204Y-73773518D02*
X201016484Y-75620797D01*
X191724203Y-65855797D02*
X192951484Y-65855798D01*
X202269205Y-75620797D02*
X202579206Y-75310798D01*
X199169205Y-72073518D02*
X199169204Y-73773518D01*
%TO.N,BIO_1_P*%
X170716483Y-66500797D02*
X172516483Y-66500797D01*
X178499203Y-61790797D02*
X178679203Y-61610797D01*
X162889203Y-70200799D02*
X167016481Y-70200799D01*
X178172965Y-61790797D02*
X178499203Y-61790797D01*
X177472495Y-61945797D02*
X178017965Y-61945797D01*
X167016481Y-70200799D02*
X170716483Y-66500797D01*
X178017965Y-61945797D02*
X178172965Y-61790797D01*
X176891503Y-62125777D02*
X177292515Y-62125777D01*
X172516483Y-66500797D02*
X176891503Y-62125777D01*
X177292515Y-62125777D02*
X177472495Y-61945797D01*
X162579204Y-70510798D02*
X162889203Y-70200799D01*
%TO.N,BIO_13_P*%
X169369205Y-70694476D02*
X169369205Y-71748078D01*
X180341924Y-65000797D02*
X179941925Y-64600798D01*
X165316484Y-75800799D02*
X164186427Y-75800799D01*
X182369207Y-64500798D02*
X182316483Y-64500799D01*
X178441925Y-64600798D02*
X178141925Y-64300797D01*
X181816484Y-65000797D02*
X180341924Y-65000797D01*
X182679205Y-64810797D02*
X182369207Y-64500798D01*
X182316483Y-64500799D02*
X181816484Y-65000797D01*
X175762883Y-64300798D02*
X169369205Y-70694476D01*
X178141925Y-64300797D02*
X175762883Y-64300798D01*
X169369205Y-71748078D02*
X165316484Y-75800799D01*
X179941925Y-64600798D02*
X178441925Y-64600798D01*
X164186427Y-75800799D02*
X164031429Y-75955798D01*
%TO.N,BIO_13_N*%
X178516484Y-64420797D02*
X178216484Y-64120797D01*
X180416484Y-64820797D02*
X180016485Y-64420797D01*
X182369205Y-64320796D02*
X182241926Y-64320796D01*
X180016485Y-64420797D02*
X178516484Y-64420797D01*
X175688322Y-64120797D02*
X169189204Y-70619916D01*
X182679204Y-64010797D02*
X182369205Y-64320796D01*
X181741924Y-64820798D02*
X180416484Y-64820797D01*
X169189204Y-71673517D02*
X165241926Y-75620797D01*
X178216484Y-64120797D02*
X175688322Y-64120797D01*
X165241926Y-75620797D02*
X164186427Y-75620796D01*
X169189204Y-70619916D02*
X169189204Y-71673517D01*
X164186427Y-75620796D02*
X164031429Y-75465797D01*
X182241926Y-64320796D02*
X181741924Y-64820798D01*
%TO.N,BIO_1_N*%
X176966081Y-61945797D02*
X176966062Y-61945778D01*
X177397937Y-61765797D02*
X177217937Y-61945797D01*
X177879203Y-61610797D02*
X177724203Y-61765797D01*
X176276283Y-62486437D02*
X176276284Y-62486438D01*
X170641923Y-66320797D02*
X166941922Y-70020798D01*
X176166851Y-62122447D02*
X176318708Y-62274304D01*
X174604945Y-64157776D02*
X172441923Y-66320797D01*
X175682314Y-62910701D02*
X175530456Y-62758843D01*
X175742561Y-62546685D02*
X175894444Y-62698568D01*
X175784988Y-62334553D02*
X175742561Y-62376979D01*
X177217937Y-61945797D02*
X176966081Y-61945797D01*
X176318708Y-62444010D02*
X176276283Y-62486437D01*
X175318323Y-62970975D02*
X175470180Y-63122832D01*
X176816944Y-61945778D02*
X176700548Y-62062174D01*
X162889203Y-70020798D02*
X162579203Y-69710798D01*
X175852019Y-62910701D02*
X175852020Y-62910702D01*
X176209278Y-61910315D02*
X176166851Y-61952741D01*
X177724203Y-61765797D02*
X177397937Y-61765797D01*
X176530842Y-62062173D02*
X176378984Y-61910315D01*
X176106578Y-62486437D02*
X175954694Y-62334553D01*
X175894444Y-62868274D02*
X175852019Y-62910701D01*
X175470180Y-63292538D02*
X175427755Y-63334965D01*
X166941922Y-70020798D02*
X162889203Y-70020798D01*
X172441923Y-66320797D02*
X170641923Y-66320797D01*
X175360750Y-62758843D02*
X175318323Y-62801269D01*
X176966062Y-61945778D02*
X176816944Y-61945778D01*
X175427755Y-63334965D02*
X174604945Y-64157776D01*
X175530455Y-62758844D02*
G75*
G03*
X175360751Y-62758844I-84852J-84853D01*
G01*
X176378983Y-61910316D02*
G75*
G03*
X176209279Y-61910316I-84852J-84853D01*
G01*
X175954693Y-62334554D02*
G75*
G03*
X175784989Y-62334554I-84852J-84853D01*
G01*
X175852020Y-62910702D02*
G75*
G02*
X175682347Y-62910668I-84820J84902D01*
G01*
X175894444Y-62698568D02*
G75*
G02*
X175894423Y-62868253I-84844J-84832D01*
G01*
X175742562Y-62376980D02*
G75*
G03*
X175742594Y-62546652I84838J-84820D01*
G01*
X176318707Y-62274305D02*
G75*
G02*
X176318750Y-62444052I-84807J-84895D01*
G01*
X176276284Y-62486438D02*
G75*
G02*
X176106547Y-62486468I-84884J84838D01*
G01*
X175470179Y-63122833D02*
G75*
G02*
X175470194Y-63292552I-84879J-84867D01*
G01*
X176700548Y-62062174D02*
G75*
G02*
X176530847Y-62062168I-84848J84874D01*
G01*
X176166851Y-61952741D02*
G75*
G03*
X176166845Y-62122453I84849J-84859D01*
G01*
X175318323Y-62801269D02*
G75*
G03*
X175318345Y-62970953I84877J-84831D01*
G01*
D14*
%TO.N,PG_1V8*%
X192779203Y-70610797D02*
X187579203Y-70610797D01*
X186679203Y-65610797D02*
X186679203Y-63110797D01*
X175979203Y-55910797D02*
X176479203Y-55910797D01*
X186289203Y-69320797D02*
X186289203Y-66000797D01*
X186679203Y-63110797D02*
X181579203Y-58010797D01*
X175879203Y-57610797D02*
X175879203Y-56010797D01*
X176279203Y-58010797D02*
X175879203Y-57610797D01*
X181579203Y-58010797D02*
X176279203Y-58010797D01*
X197179203Y-75010797D02*
X192779203Y-70610797D01*
X186289203Y-66000797D02*
X186679203Y-65610797D01*
X187579203Y-70610797D02*
X186289203Y-69320797D01*
X175879203Y-56010797D02*
X175979203Y-55910797D01*
D13*
%TO.N,AIO_9_P*%
X201029203Y-61560797D02*
X199279203Y-59810797D01*
X188679204Y-64410797D02*
X189079204Y-64810797D01*
X203429204Y-61560797D02*
X201029203Y-61560797D01*
X191289203Y-59810797D02*
X188679204Y-62420796D01*
X188679204Y-62420796D02*
X188679204Y-64410797D01*
X199279203Y-59810797D02*
X191289203Y-59810797D01*
%TO.N,UART1_TX*%
X161079203Y-90810797D02*
X160579203Y-90310797D01*
X160579203Y-90310797D02*
X160579203Y-89310797D01*
X177659204Y-68230797D02*
X177879204Y-68010797D01*
X160579203Y-89310797D02*
X160984645Y-88905355D01*
X174259204Y-68230797D02*
X177659204Y-68230797D01*
X160984645Y-88905355D02*
X168340087Y-88905355D01*
X162679203Y-93650797D02*
X162679203Y-91710797D01*
X161179203Y-95150797D02*
X162679203Y-93650797D01*
X172879204Y-78766238D02*
X172879204Y-69610797D01*
X170200000Y-81445442D02*
X172879204Y-78766238D01*
X161779203Y-90810797D02*
X161079203Y-90810797D01*
X170200000Y-87045442D02*
X170200000Y-81445442D01*
X172879204Y-69610797D02*
X174259204Y-68230797D01*
X168340087Y-88905355D02*
X170200000Y-87045442D01*
X162679203Y-91710797D02*
X161779203Y-90810797D01*
%TO.N,UART1_RX*%
X170380000Y-81520000D02*
X173059204Y-78840796D01*
X173059204Y-78840796D02*
X173059204Y-69685355D01*
X161208406Y-90100000D02*
X162200000Y-90100000D01*
X162200000Y-90100000D02*
X163214645Y-89085355D01*
X170380000Y-87120000D02*
X170380000Y-81520000D01*
X168414646Y-89085354D02*
X170380000Y-87120000D01*
X163214645Y-89085355D02*
X168414646Y-89085354D01*
X161179203Y-90070797D02*
X161208406Y-90100000D01*
X178279204Y-68410797D02*
X178679204Y-68010797D01*
X174333762Y-68410797D02*
X178279204Y-68410797D01*
X173059204Y-69685355D02*
X174333762Y-68410797D01*
%TO.N,DONE*%
X187144203Y-62623579D02*
X187144203Y-67675796D01*
X190136984Y-59630798D02*
X187144203Y-62623579D01*
X196369202Y-59630798D02*
X190136984Y-59630798D01*
X197000000Y-59000000D02*
X196369202Y-59630798D01*
X187879204Y-68410797D02*
X188679203Y-68410797D01*
X187144203Y-67675796D02*
X187879204Y-68410797D01*
%TO.N,BIO_24_P*%
X170569205Y-75430799D02*
X170569206Y-70257194D01*
X184099205Y-64990798D02*
X184279204Y-64810798D01*
X182607526Y-65610797D02*
X183072526Y-65145797D01*
X183772966Y-64990797D02*
X184099205Y-64990798D01*
X170749204Y-75610798D02*
X170569205Y-75430799D01*
X183617966Y-65145797D02*
X183772966Y-64990797D01*
X170569206Y-70257194D02*
X175215602Y-65610797D01*
X175215602Y-65610797D02*
X182607526Y-65610797D01*
X183072526Y-65145797D02*
X183617966Y-65145797D01*
%TO.N,BIO_24_N*%
X175141044Y-65430798D02*
X182532968Y-65430797D01*
X170389203Y-70182636D02*
X175141044Y-65430798D01*
X183324204Y-64965797D02*
X183479204Y-64810797D01*
X182997966Y-64965798D02*
X183324204Y-64965797D01*
X170209203Y-75610798D02*
X170389202Y-75430799D01*
X170389202Y-75430799D02*
X170389203Y-70182636D01*
X182532968Y-65430797D02*
X182997966Y-64965798D01*
D15*
%TO.N,1.8V*%
X168579203Y-82320797D02*
X172400000Y-78500000D01*
X172400000Y-78500000D02*
X172400000Y-69500000D01*
X174004203Y-67895797D02*
X177194203Y-67895797D01*
X177194203Y-67895797D02*
X177479203Y-67610797D01*
X168579203Y-83500000D02*
X168579203Y-82320797D01*
X172400000Y-69500000D02*
X174004203Y-67895797D01*
%TD*%
M02*
