%TF.GenerationSoftware,KiCad,Pcbnew,8.0.1*%
%TF.CreationDate,2024-05-09T15:37:21+08:00*%
%TF.ProjectId,ProDocument_ZYNQ7020_V1_2024-04-10,50726f44-6f63-4756-9d65-6e745f5a594e,rev?*%
%TF.SameCoordinates,Original*%
%TF.FileFunction,Paste,Bot*%
%TF.FilePolarity,Positive*%
%FSLAX46Y46*%
G04 Gerber Fmt 4.6, Leading zero omitted, Abs format (unit mm)*
G04 Created by KiCad (PCBNEW 8.0.1) date 2024-05-09 15:37:21*
%MOMM*%
%LPD*%
G01*
G04 APERTURE LIST*
G04 Aperture macros list*
%AMRoundRect*
0 Rectangle with rounded corners*
0 $1 Rounding radius*
0 $2 $3 $4 $5 $6 $7 $8 $9 X,Y pos of 4 corners*
0 Add a 4 corners polygon primitive as box body*
4,1,4,$2,$3,$4,$5,$6,$7,$8,$9,$2,$3,0*
0 Add four circle primitives for the rounded corners*
1,1,$1+$1,$2,$3*
1,1,$1+$1,$4,$5*
1,1,$1+$1,$6,$7*
1,1,$1+$1,$8,$9*
0 Add four rect primitives between the rounded corners*
20,1,$1+$1,$2,$3,$4,$5,0*
20,1,$1+$1,$4,$5,$6,$7,0*
20,1,$1+$1,$6,$7,$8,$9,0*
20,1,$1+$1,$8,$9,$2,$3,0*%
G04 Aperture macros list end*
%ADD10C,0.600000*%
%ADD11RoundRect,0.096900X-0.096900X-0.146900X0.096900X-0.146900X0.096900X0.146900X-0.096900X0.146900X0*%
%ADD12RoundRect,0.211900X-0.211900X-0.436900X0.211900X-0.436900X0.211900X0.436900X-0.211900X0.436900X0*%
%ADD13RoundRect,0.211900X0.211900X0.436900X-0.211900X0.436900X-0.211900X-0.436900X0.211900X-0.436900X0*%
%ADD14RoundRect,0.211900X0.436900X-0.211900X0.436900X0.211900X-0.436900X0.211900X-0.436900X-0.211900X0*%
%ADD15RoundRect,0.211900X-0.436900X0.211900X-0.436900X-0.211900X0.436900X-0.211900X0.436900X0.211900X0*%
%ADD16RoundRect,0.096900X0.096900X0.146900X-0.096900X0.146900X-0.096900X-0.146900X0.096900X-0.146900X0*%
%ADD17RoundRect,0.096900X-0.146900X0.096900X-0.146900X-0.096900X0.146900X-0.096900X0.146900X0.096900X0*%
%ADD18RoundRect,0.186900X0.186900X0.211900X-0.186900X0.211900X-0.186900X-0.211900X0.186900X-0.211900X0*%
%ADD19RoundRect,0.186900X-0.211900X0.186900X-0.211900X-0.186900X0.211900X-0.186900X0.211900X0.186900X0*%
%ADD20RoundRect,0.186900X0.211900X-0.186900X0.211900X0.186900X-0.211900X0.186900X-0.211900X-0.186900X0*%
%ADD21RoundRect,0.096900X0.146900X-0.096900X0.146900X0.096900X-0.146900X0.096900X-0.146900X-0.096900X0*%
%ADD22RoundRect,0.101900X-0.101900X-0.131900X0.101900X-0.131900X0.101900X0.131900X-0.101900X0.131900X0*%
%ADD23R,1.847600X0.347600*%
G04 APERTURE END LIST*
D10*
X164179203Y-99310797D02*
G75*
G02*
X161379203Y-99310797I-1400000J0D01*
G01*
X161379203Y-99310797D02*
G75*
G02*
X164179203Y-99310797I1400000J0D01*
G01*
X164179203Y-55310797D02*
G75*
G02*
X161379203Y-55310797I-1400000J0D01*
G01*
X161379203Y-55310797D02*
G75*
G02*
X164179203Y-55310797I1400000J0D01*
G01*
X208179203Y-99310797D02*
G75*
G02*
X205379203Y-99310797I-1400000J0D01*
G01*
X205379203Y-99310797D02*
G75*
G02*
X208179203Y-99310797I1400000J0D01*
G01*
X208179203Y-55310797D02*
G75*
G02*
X205379203Y-55310797I-1400000J0D01*
G01*
X205379203Y-55310797D02*
G75*
G02*
X208179203Y-55310797I1400000J0D01*
G01*
D11*
%TO.C,R20*%
X180179203Y-73510797D03*
X181199201Y-73510797D03*
%TD*%
D12*
%TO.C,C16*%
X169205203Y-97410797D03*
X171105203Y-97410797D03*
%TD*%
D13*
%TO.C,C24*%
X199953203Y-90410797D03*
X198053203Y-90410797D03*
%TD*%
D12*
%TO.C,C50*%
X185379203Y-55190254D03*
X187279203Y-55190254D03*
%TD*%
D14*
%TO.C,C47*%
X193579202Y-74560798D03*
X193579202Y-72660798D03*
%TD*%
D15*
%TO.C,C53*%
X171279204Y-67059296D03*
X171279204Y-68959296D03*
%TD*%
D12*
%TO.C,C36*%
X198027703Y-94210797D03*
X199927703Y-94210797D03*
%TD*%
D16*
%TO.C,R38*%
X181199202Y-68810797D03*
X180179204Y-68810797D03*
%TD*%
D15*
%TO.C,C78*%
X165679203Y-55860798D03*
X165679203Y-57760796D03*
%TD*%
D13*
%TO.C,C59*%
X195266348Y-67090254D03*
X193366348Y-67090254D03*
%TD*%
D12*
%TO.C,C70*%
X171379203Y-56610797D03*
X173279203Y-56610797D03*
%TD*%
D17*
%TO.C,R82*%
X185079203Y-65400798D03*
X185079203Y-66420796D03*
%TD*%
D12*
%TO.C,C19*%
X169205203Y-85610797D03*
X171105203Y-85610797D03*
%TD*%
%TO.C,C35*%
X201227702Y-98010798D03*
X203127702Y-98010798D03*
%TD*%
D13*
%TO.C,C43*%
X169229203Y-93410797D03*
X167329203Y-93410797D03*
%TD*%
D12*
%TO.C,C60*%
X175118348Y-73290254D03*
X177018348Y-73290254D03*
%TD*%
D13*
%TO.C,C30*%
X199953204Y-96210797D03*
X198053204Y-96210797D03*
%TD*%
%TO.C,C69*%
X176829202Y-54610797D03*
X174929204Y-54610797D03*
%TD*%
D11*
%TO.C,R28*%
X178079203Y-73510797D03*
X179099201Y-73510797D03*
%TD*%
%TO.C,R3*%
X191069204Y-72610797D03*
X192089202Y-72610797D03*
%TD*%
D15*
%TO.C,C63*%
X171592348Y-63816254D03*
X171592348Y-65716254D03*
%TD*%
D13*
%TO.C,C58*%
X194866348Y-61290254D03*
X192966348Y-61290254D03*
%TD*%
D18*
%TO.C,C44*%
X174867348Y-62090254D03*
X173317348Y-62090254D03*
%TD*%
D12*
%TO.C,C40*%
X192827704Y-101010797D03*
X194727704Y-101010797D03*
%TD*%
%TO.C,C68*%
X171379203Y-54610797D03*
X173279203Y-54610797D03*
%TD*%
%TO.C,C75*%
X176529204Y-65010797D03*
X178429204Y-65010797D03*
%TD*%
D13*
%TO.C,C33*%
X175453203Y-101010797D03*
X173553203Y-101010797D03*
%TD*%
D19*
%TO.C,C71*%
X186679203Y-66110797D03*
X186679203Y-67660797D03*
%TD*%
D15*
%TO.C,C82*%
X175479204Y-75060798D03*
X175479204Y-76960798D03*
%TD*%
D13*
%TO.C,C49*%
X183779203Y-57210797D03*
X181879203Y-57210797D03*
%TD*%
D11*
%TO.C,R37*%
X180179203Y-71210797D03*
X181199201Y-71210797D03*
%TD*%
D13*
%TO.C,C23*%
X199953203Y-88610797D03*
X198053203Y-88610797D03*
%TD*%
D11*
%TO.C,R2*%
X184459205Y-72710797D03*
X185479203Y-72710797D03*
%TD*%
D20*
%TO.C,C73*%
X182692348Y-69240254D03*
X182692348Y-67690254D03*
%TD*%
D21*
%TO.C,R1*%
X188179203Y-70630795D03*
X188179203Y-69610797D03*
%TD*%
D22*
%TO.C,C1*%
X191099203Y-73610798D03*
X192059203Y-73610798D03*
%TD*%
D13*
%TO.C,C74*%
X181453204Y-65010797D03*
X179553204Y-65010797D03*
%TD*%
%TO.C,C42*%
X171130704Y-91210797D03*
X169230704Y-91210797D03*
%TD*%
D12*
%TO.C,C27*%
X187279203Y-57210797D03*
X189179201Y-57210797D03*
%TD*%
D11*
%TO.C,R33*%
X178259205Y-70710797D03*
X179279203Y-70710797D03*
%TD*%
D21*
%TO.C,R34*%
X179179203Y-69730795D03*
X179179203Y-68710797D03*
%TD*%
D12*
%TO.C,C15*%
X169201709Y-99251298D03*
X171101709Y-99251298D03*
%TD*%
D20*
%TO.C,C21*%
X177392348Y-77665254D03*
X177392348Y-76115254D03*
%TD*%
D23*
%TO.C,CN1*%
X206979203Y-88910797D03*
X202579203Y-88910797D03*
X206979203Y-88110797D03*
X202579203Y-88110797D03*
X206979203Y-87310797D03*
X202579203Y-87310797D03*
X206979203Y-86510796D03*
X202579203Y-86510796D03*
X206979203Y-85710797D03*
X202579203Y-85710797D03*
X206979202Y-84910797D03*
X202579204Y-84910797D03*
X206979203Y-84110797D03*
X202579203Y-84110797D03*
X206979203Y-83310797D03*
X202579203Y-83310797D03*
X206979203Y-82510797D03*
X202579203Y-82510797D03*
X206979203Y-81710797D03*
X202579203Y-81710797D03*
X206979203Y-80910796D03*
X202579203Y-80910796D03*
X206979203Y-80110797D03*
X202579203Y-80110797D03*
X206979202Y-79310797D03*
X202579204Y-79310797D03*
X206979203Y-78510797D03*
X202579203Y-78510797D03*
X206979203Y-77710797D03*
X202579203Y-77710797D03*
X206979203Y-76910797D03*
X202579203Y-76910797D03*
X206979203Y-76110797D03*
X202579203Y-76110797D03*
X206979202Y-75310797D03*
X202579204Y-75310797D03*
X206979203Y-74510797D03*
X202579203Y-74510797D03*
X206979203Y-73710798D03*
X202579203Y-73710798D03*
X206979203Y-72910797D03*
X202579203Y-72910797D03*
X206979203Y-72110797D03*
X202579203Y-72110797D03*
X206979203Y-71310797D03*
X202579203Y-71310797D03*
X206979203Y-70510797D03*
X202579203Y-70510797D03*
X206979202Y-69710797D03*
X202579204Y-69710797D03*
X206979203Y-68910797D03*
X202579203Y-68910797D03*
X206979203Y-68110798D03*
X202579203Y-68110798D03*
X206979203Y-67310797D03*
X202579203Y-67310797D03*
X206979203Y-66510797D03*
X202579203Y-66510797D03*
X206979203Y-65710797D03*
X202579203Y-65710797D03*
%TD*%
D12*
%TO.C,C39*%
X173529203Y-99110798D03*
X175429203Y-99110798D03*
%TD*%
D22*
%TO.C,C48*%
X180179205Y-69810797D03*
X181139205Y-69810797D03*
%TD*%
D12*
%TO.C,C18*%
X169205204Y-87410797D03*
X171105204Y-87410797D03*
%TD*%
D13*
%TO.C,C26*%
X199953203Y-98010798D03*
X198053203Y-98010798D03*
%TD*%
D12*
%TO.C,C62*%
X193155204Y-55160797D03*
X195055204Y-55160797D03*
%TD*%
D15*
%TO.C,C61*%
X173479203Y-75060797D03*
X173479203Y-76960797D03*
%TD*%
D16*
%TO.C,R36*%
X179279202Y-71710797D03*
X178259204Y-71710797D03*
%TD*%
D12*
%TO.C,C76*%
X181879203Y-55190254D03*
X183779203Y-55190254D03*
%TD*%
%TO.C,C17*%
X169205204Y-89210798D03*
X171105204Y-89210798D03*
%TD*%
D21*
%TO.C,R6*%
X190179203Y-74220796D03*
X190179203Y-73200798D03*
%TD*%
D12*
%TO.C,C65*%
X193155203Y-57110797D03*
X195055203Y-57110797D03*
%TD*%
D19*
%TO.C,C22*%
X188892348Y-72015254D03*
X188892348Y-73565254D03*
%TD*%
D23*
%TO.C,CN2*%
X166979203Y-88910797D03*
X162579203Y-88910797D03*
X166979203Y-88110797D03*
X162579203Y-88110797D03*
X166979203Y-87310797D03*
X162579203Y-87310797D03*
X166979203Y-86510796D03*
X162579203Y-86510796D03*
X166979203Y-85710797D03*
X162579203Y-85710797D03*
X166979202Y-84910797D03*
X162579204Y-84910797D03*
X166979203Y-84110797D03*
X162579203Y-84110797D03*
X166979203Y-83310797D03*
X162579203Y-83310797D03*
X166979203Y-82510797D03*
X162579203Y-82510797D03*
X166979203Y-81710797D03*
X162579203Y-81710797D03*
X166979203Y-80910796D03*
X162579203Y-80910796D03*
X166979203Y-80110797D03*
X162579203Y-80110797D03*
X166979202Y-79310797D03*
X162579204Y-79310797D03*
X166979203Y-78510797D03*
X162579203Y-78510797D03*
X166979203Y-77710797D03*
X162579203Y-77710797D03*
X166979203Y-76910797D03*
X162579203Y-76910797D03*
X166979203Y-76110797D03*
X162579203Y-76110797D03*
X166979202Y-75310797D03*
X162579204Y-75310797D03*
X166979203Y-74510797D03*
X162579203Y-74510797D03*
X166979203Y-73710798D03*
X162579203Y-73710798D03*
X166979203Y-72910797D03*
X162579203Y-72910797D03*
X166979203Y-72110797D03*
X162579203Y-72110797D03*
X166979203Y-71310797D03*
X162579203Y-71310797D03*
X166979203Y-70510797D03*
X162579203Y-70510797D03*
X166979202Y-69710797D03*
X162579204Y-69710797D03*
X166979203Y-68910797D03*
X162579203Y-68910797D03*
X166979203Y-68110798D03*
X162579203Y-68110798D03*
X166979203Y-67310797D03*
X162579203Y-67310797D03*
X166979203Y-66510797D03*
X162579203Y-66510797D03*
X166979203Y-65710797D03*
X162579203Y-65710797D03*
%TD*%
D14*
%TO.C,C41*%
X192679204Y-78562298D03*
X192679204Y-76662298D03*
%TD*%
D12*
%TO.C,C67*%
X185479204Y-62760797D03*
X187379204Y-62760797D03*
%TD*%
D13*
%TO.C,C37*%
X169230704Y-95410799D03*
X167330704Y-95410799D03*
%TD*%
D15*
%TO.C,C51*%
X169279203Y-67059296D03*
X169279203Y-68959296D03*
%TD*%
D13*
%TO.C,C64*%
X198853203Y-57110797D03*
X196953203Y-57110797D03*
%TD*%
D16*
%TO.C,R19*%
X183599202Y-73510797D03*
X182579204Y-73510797D03*
%TD*%
D12*
%TO.C,C34*%
X198027703Y-100010798D03*
X199927703Y-100010798D03*
%TD*%
D13*
%TO.C,C31*%
X203153204Y-100010798D03*
X201253204Y-100010798D03*
%TD*%
%TO.C,C25*%
X199953204Y-92210797D03*
X198053204Y-92210797D03*
%TD*%
D11*
%TO.C,R22*%
X185190001Y-77300000D03*
X186209999Y-77300000D03*
%TD*%
D12*
%TO.C,C38*%
X201227702Y-96210797D03*
X203127702Y-96210797D03*
%TD*%
M02*
