M48
; DRILL file {KiCad 8.0.1} date 2024-05-09T15:37:25+0800
; FORMAT={-:-/ absolute / inch / decimal}
; #@! TF.CreationDate,2024-05-09T15:37:25+08:00
; #@! TF.GenerationSoftware,Kicad,Pcbnew,8.0.1
; #@! TF.FileFunction,Plated,1,6,PTH
FMAT,2
INCH
; #@! TA.AperFunction,Plated,PTH,ViaDrill
T1C0.0079
; #@! TA.AperFunction,Plated,PTH,ViaDrill
T2C0.0787
%
G90
G05
T1
X6.3206Y-2.6067
X6.322Y-3.6461
X6.3456Y-3.5461
X6.3456Y-3.6461
X6.3456Y-3.7461
X6.3693Y-3.6461
X6.3968Y-2.5437
X6.3968Y-3.4374
X6.3968Y-3.4689
X6.4008Y-2.7445
X6.4008Y-3.4059
X6.4008Y-2.776
X6.4529Y-2.6876
X6.4529Y-2.7069
X6.4553Y-3.0341
X6.4553Y-3.0534
X6.4553Y-2.8329
X6.4553Y-2.8136
X6.4559Y-2.8959
X6.4559Y-2.8766
X6.4579Y-2.9711
X6.4579Y-2.9904
X6.4637Y-3.3233
X6.4834Y-3.3036
X6.4834Y-3.3429
X6.4834Y-3.3429
X6.5071Y-2.276
X6.5149Y-2.1126
X6.5228Y-2.2032
X6.5307Y-2.276
X6.5386Y-2.2032
X6.5523Y-3.6815
X6.5543Y-2.2307
X6.574Y-3.4374
X6.574Y-3.4689
X6.574Y-3.4059
X6.576Y-2.2111
X6.5799Y-3.8075
X6.5996Y-2.1126
X6.6114Y-2.2209
X6.6134Y-2.5083
X6.6134Y-2.5477
X6.6212Y-3.5319
X6.637Y-3.2874
X6.6508Y-2.7209
X6.6508Y-2.7445
X6.6535Y-3.1811
X6.6567Y-2.1028
X6.6626Y-2.2111
X6.6626Y-3.3744
X6.6626Y-3.528
X6.6685Y-3.5957
X6.6695Y-2.5172
X6.6723Y-3.2553
X6.6724Y-3.2746
X6.6803Y-2.1028
X6.6803Y-3.3129
X6.6806Y-3.2929
X6.6823Y-3.9217
X6.6832Y-2.5309
X6.6842Y-3.9729
X6.6901Y-3.0555
X6.6941Y-2.7937
X6.7011Y-2.9768
X6.7039Y-2.1028
X6.7224Y-2.9768
X6.7275Y-2.1028
X6.7284Y-3.591
X6.7334Y-2.7701
X6.7354Y-3.7878
X6.7354Y-3.8114
X6.7354Y-3.8351
X6.7354Y-3.8587
X6.7374Y-3.7268
X6.7452Y-2.8508
X6.7457Y-3.247
X6.7511Y-2.1028
X6.759Y-2.6422
X6.7669Y-2.4729
X6.7826Y-3.4256
X6.7826Y-3.5516
X6.7826Y-3.6461
X6.7826Y-3.7721
X6.7826Y-3.3626
X6.7826Y-3.3941
X6.7826Y-3.4571
X6.7826Y-3.4886
X6.7826Y-3.5201
X6.7826Y-3.5831
X6.7826Y-3.7091
X6.7826Y-3.7406
X6.7826Y-3.8036
X6.7826Y-3.8351
X6.7984Y-2.3526
X6.7984Y-2.3526
X6.7984Y-2.3333
X6.7984Y-2.3333
X6.8141Y-3.5831
X6.8141Y-3.8036
X6.8141Y-3.3941
X6.8141Y-3.4571
X6.8141Y-3.4886
X6.8141Y-3.6146
X6.8141Y-3.6776
X6.8141Y-3.7406
X6.8141Y-3.7721
X6.8141Y-3.8351
X6.822Y-3.1658
X6.8299Y-3.6303
X6.8299Y-3.5359
X6.8299Y-3.8193
X6.8319Y-2.9177
X6.8319Y-2.9492
X6.8417Y-3.9464
X6.8437Y-3.2651
X6.8456Y-3.7091
X6.8456Y-3.3941
X6.8456Y-3.5831
X6.8456Y-3.6146
X6.8456Y-3.7406
X6.8456Y-3.7721
X6.8456Y-3.8351
X6.8456Y-3.4571
X6.8456Y-3.6776
X6.8594Y-2.8941
X6.8594Y-2.9177
X6.8614Y-3.5359
X6.8634Y-3.4729
X6.8653Y-2.2583
X6.8655Y-3.0359
X6.8693Y-2.65
X6.8693Y-3.1618
X6.8716Y-3.2873
X6.8726Y-3.3438
X6.8727Y-3.2513
X6.8728Y-3.6463
X6.8858Y-3.3626
X6.8909Y-2.4492
X6.8929Y-3.4571
X6.899Y-3.3483
X6.9008Y-3.4217
X6.9015Y-2.6067
X6.9086Y-2.7209
X6.9086Y-2.7406
X6.9145Y-3.9729
X6.9259Y-2.7815
X6.9277Y-2.7597
X6.9393Y-3.4611
X6.9401Y-2.1028
X6.9401Y-2.8341
X6.948Y-2.2012
X6.948Y-2.5044
X6.9499Y-2.8036
X6.9519Y-2.2386
X6.9549Y-3.4724
X6.9637Y-2.1028
X6.9716Y-2.4256
X6.9716Y-2.9611
X6.9716Y-3.3941
X6.9716Y-3.4256
X6.9716Y-3.5516
X6.9716Y-3.6146
X6.9716Y-3.7721
X6.9716Y-3.8351
X6.9716Y-3.6776
X6.9834Y-2.8154
X6.9874Y-2.1028
X6.9874Y-2.5044
X6.9874Y-2.5989
X6.9874Y-2.6618
X6.9874Y-2.9453
X6.9874Y-3.7248
X6.9874Y-3.8587
X6.9874Y-3.5989
X6.9884Y-3.4729
X6.9913Y-3.6908
X6.9952Y-3.2603
X6.9977Y-3.8877
X6.9992Y-3.0516
X7.0031Y-2.7406
X7.0031Y-2.8666
X7.0031Y-3.5516
X7.0031Y-3.7721
X7.0031Y-2.4256
X7.0031Y-2.4571
X7.0031Y-2.5516
X7.0031Y-2.6776
X7.0031Y-2.9296
X7.0031Y-3.3626
X7.0031Y-3.4571
X7.0031Y-3.4886
X7.0031Y-3.5201
X7.0037Y-3.2208
X7.0092Y-3.0949
X7.0105Y-3.2472
X7.011Y-2.1028
X7.0189Y-2.7248
X7.0189Y-2.7878
X7.0189Y-3.6618
X7.0189Y-3.6953
X7.0189Y-3.5674
X7.0285Y-3.0949
X7.0287Y-2.2209
X7.0346Y-2.1028
X7.0346Y-2.4256
X7.0346Y-2.4571
X7.0346Y-2.5201
X7.0346Y-2.6776
X7.0346Y-2.8351
X7.0346Y-2.9296
X7.0346Y-3.3626
X7.0346Y-3.3941
X7.0346Y-3.4256
X7.0346Y-3.5516
X7.0346Y-3.6461
X7.0464Y-3.6975
X7.0504Y-2.5989
X7.0504Y-2.9453
X7.0504Y-3.9256
X7.0504Y-2.9768
X7.0508Y-2.7883
X7.0539Y-3.5404
X7.0547Y-3.5971
X7.0565Y-3.1737
X7.0582Y-2.1028
X7.0651Y-3.0634
X7.0661Y-2.5201
X7.0661Y-2.4886
X7.0661Y-2.6776
X7.0661Y-2.8351
X7.0661Y-2.8666
X7.0661Y-2.8981
X7.074Y-3.5985
X7.0758Y-3.1737
X7.0819Y-2.5989
X7.0819Y-2.9453
X7.0858Y-3.6973
X7.0891Y-2.2051
X7.0937Y-2.404
X7.0976Y-2.4886
X7.0976Y-2.7091
X7.0976Y-2.8351
X7.0976Y-2.4571
X7.0976Y-2.5201
X7.0976Y-2.8981
X7.1085Y-3.6908
X7.1134Y-3.7721
X7.1134Y-2.6618
X7.1134Y-2.9138
X7.1134Y-2.9453
X7.1134Y-3.0359
X7.1291Y-2.7406
X7.1291Y-2.8666
X7.1291Y-2.9611
X7.1291Y-2.4886
X7.1291Y-2.7091
X7.1291Y-2.7721
X7.1291Y-2.8351
X7.137Y-2.1028
X7.1449Y-2.5359
X7.1449Y-2.5989
X7.1449Y-2.9453
X7.1449Y-3.8469
X7.145Y-2.9142
X7.1606Y-2.1028
X7.1606Y-2.6776
X7.1606Y-2.7721
X7.1606Y-2.8351
X7.1606Y-2.8666
X7.1685Y-3.0516
X7.1685Y-3.8469
X7.1763Y-2.4729
X7.1763Y-2.9138
X7.1763Y-2.5989
X7.1763Y-2.9453
X7.1763Y-2.6618
X7.1842Y-2.1028
X7.1921Y-2.4886
X7.1921Y-2.5201
X7.1921Y-2.6776
X7.1921Y-2.7091
X7.1921Y-2.8036
X7.1921Y-2.8666
X7.1921Y-3.8469
X7.1921Y-2.5516
X7.1921Y-2.7721
X7.196Y-3.7485
X7.2078Y-2.5989
X7.2078Y-2.7248
X7.2078Y-2.9453
X7.2078Y-2.9138
X7.2236Y-2.7406
X7.2236Y-2.8666
X7.2236Y-2.4886
X7.2236Y-2.5201
X7.2236Y-2.5516
X7.2236Y-2.6146
X7.2236Y-2.6461
X7.2236Y-2.6776
X7.2236Y-2.7721
X7.2236Y-2.8351
X7.225Y-3.8258
X7.2393Y-2.6933
X7.2393Y-2.9138
X7.2393Y-3.6457
X7.2393Y-2.7248
X7.2393Y-2.9453
X7.2407Y-3.8065
X7.2433Y-3.6264
X7.2472Y-3.7012
X7.2539Y-3.7872
X7.2551Y-2.4256
X7.2551Y-2.4886
X7.2551Y-2.5516
X7.2551Y-2.5831
X7.2551Y-2.6146
X7.2551Y-2.6461
X7.2551Y-2.8036
X7.2551Y-3.3981
X7.2551Y-3.4296
X7.2551Y-3.4611
X7.2584Y-3.9194
X7.259Y-3.3469
X7.263Y-2.1028
X7.2669Y-3.4995
X7.2669Y-3.4138
X7.2669Y-3.4453
X7.2671Y-3.768
X7.2708Y-2.5044
X7.2708Y-2.9453
X7.2708Y-2.8508
X7.2708Y-2.9138
X7.2728Y-3.841
X7.2765Y-3.5162
X7.278Y-3.8988
X7.2787Y-2.2583
X7.2866Y-2.1028
X7.2866Y-2.8036
X7.2866Y-2.9611
X7.2866Y-2.4886
X7.2866Y-2.6146
X7.2866Y-2.6461
X7.2866Y-2.6776
X7.2866Y-2.7091
X7.2866Y-2.8351
X7.2939Y-3.309
X7.2945Y-3.8666
X7.3019Y-3.0709
X7.3023Y-2.8508
X7.3023Y-2.9138
X7.3023Y-3.6618
X7.3023Y-3.7248
X7.3071Y-3.3261
X7.3091Y-3.3475
X7.3102Y-2.1028
X7.3102Y-3.9689
X7.3181Y-2.5516
X7.3181Y-2.7091
X7.3181Y-3.8823
X7.3181Y-2.6461
X7.3212Y-3.0709
X7.3242Y-3.3794
X7.3279Y-2.3469
X7.3279Y-2.3784
X7.3317Y-3.0871
X7.3338Y-2.8508
X7.3338Y-2.1028
X7.3338Y-2.9138
X7.334Y-3.2791
X7.3384Y-3.8967
X7.3435Y-3.3794
X7.3476Y-3.2927
X7.3496Y-2.4256
X7.3496Y-2.6461
X7.3496Y-2.4571
X7.3496Y-2.6146
X7.3496Y-2.7091
X7.3496Y-2.8351
X7.3496Y-2.9296
X7.3535Y-3.6776
X7.3574Y-2.1028
X7.3596Y-3.4886
X7.3653Y-2.8823
X7.3653Y-2.9138
X7.3714Y-2.2341
X7.3732Y-3.9242
X7.3789Y-3.4886
X7.3811Y-2.1028
X7.3811Y-2.4256
X7.3811Y-2.5201
X7.3811Y-2.5516
X7.3811Y-2.6146
X7.3811Y-2.6461
X7.3811Y-2.7091
X7.3811Y-2.5831
X7.3843Y-3.6071
X7.3929Y-2.2317
X7.3968Y-2.8193
X7.3968Y-2.8508
X7.3968Y-2.6618
X7.3968Y-3.0634
X7.4023Y-3.5747
X7.4126Y-2.4886
X7.4126Y-2.5201
X7.4126Y-2.5516
X7.4126Y-2.5831
X7.4126Y-2.6146
X7.4126Y-2.6776
X7.4126Y-2.9296
X7.4154Y-3.6078
X7.4204Y-2.3784
X7.4265Y-3.1225
X7.4277Y-2.7193
X7.4283Y-2.6933
X7.4283Y-2.9768
X7.4283Y-2.9138
X7.4367Y-3.5905
X7.4415Y-3.3708
X7.4441Y-2.4886
X7.4441Y-2.7406
X7.4441Y-2.9611
X7.4441Y-2.5201
X7.4441Y-2.5516
X7.4441Y-2.5831
X7.4441Y-2.6146
X7.4441Y-2.6461
X7.4441Y-2.6776
X7.4441Y-2.7091
X7.4441Y-2.8036
X7.4441Y-2.8351
X7.4441Y-2.9296
X7.4441Y-3.2642
X7.4458Y-3.1225
X7.4481Y-2.2219
X7.4567Y-3.9414
X7.4568Y-3.468
X7.4702Y-3.5556
X7.4716Y-3.2298
X7.4716Y-3.4847
X7.4756Y-2.5516
X7.4756Y-2.9926
X7.4756Y-2.4571
X7.4756Y-2.4886
X7.4756Y-2.5201
X7.4756Y-2.6461
X7.4756Y-2.6776
X7.4756Y-2.7091
X7.4756Y-3.024
X7.4756Y-2.5831
X7.4756Y-2.9611
X7.4795Y-3.2642
X7.4834Y-3.402
X7.4834Y-3.7863
X7.4913Y-2.8508
X7.5031Y-2.212
X7.5071Y-2.4256
X7.5071Y-2.4571
X7.5071Y-2.5201
X7.5071Y-2.5516
X7.5071Y-2.6461
X7.5071Y-3.4256
X7.5071Y-3.4886
X7.5071Y-2.4886
X7.5071Y-2.6146
X7.5071Y-2.9296
X7.5071Y-3.5516
X7.5071Y-3.5831
X7.5071Y-3.7721
X7.5071Y-3.4571
X7.5223Y-3.3193
X7.5228Y-2.1028
X7.5228Y-3.8193
X7.5355Y-3.2994
X7.5386Y-2.4571
X7.5386Y-2.4886
X7.5386Y-2.5516
X7.5386Y-2.9926
X7.5386Y-3.3626
X7.5386Y-3.3941
X7.5386Y-3.4571
X7.5386Y-3.5201
X7.5386Y-3.6776
X7.5386Y-3.7406
X7.5386Y-3.7721
X7.5386Y-2.4256
X7.5386Y-2.5201
X7.5386Y-2.9611
X7.5464Y-2.1028
X7.5543Y-3.5359
X7.5543Y-2.8193
X7.5543Y-2.9453
X7.5543Y-3.339
X7.5543Y-3.8508
X7.5661Y-3.0792
X7.57Y-2.1028
X7.57Y-2.4256
X7.57Y-2.7406
X7.57Y-3.7091
X7.57Y-3.7721
X7.57Y-3.7406
X7.5858Y-3.091
X7.5858Y-3.8193
X7.5858Y-3.5359
X7.5897Y-3.3784
X7.5917Y-2.5733
X7.5937Y-2.1028
X7.5937Y-3.9768
X7.6013Y-3.5551
X7.6055Y-3.0792
X7.6094Y-3.3193
X7.6094Y-3.6776
X7.6138Y-3.5203
X7.6232Y-2.8567
X7.6336Y-3.8666
X7.6356Y-3.0536
X7.6389Y-3.03
X7.6449Y-3.549
X7.6449Y-3.7248
X7.6488Y-2.6264
X7.6567Y-3.6933
X7.6567Y-2.2996
X7.6645Y-3.0831
X7.6645Y-3.1185
X7.6724Y-3.5516
X7.6763Y-3.5989
X7.6763Y-3.7406
X7.6777Y-3.8351
X7.6803Y-3.6303
X7.6882Y-2.1028
X7.6882Y-2.2996
X7.696Y-3.4256
X7.696Y-3.5201
X7.696Y-3.3311
X7.696Y-3.3941
X7.696Y-3.5831
X7.696Y-3.7721
X7.6997Y-2.28
X7.7118Y-2.1028
X7.7118Y-3.6303
X7.7197Y-2.2996
X7.7256Y-2.4237
X7.7275Y-3.3626
X7.7275Y-3.6461
X7.7275Y-3.7406
X7.7275Y-3.7721
X7.7275Y-3.8351
X7.7354Y-2.1028
X7.7433Y-3.5989
X7.7433Y-3.8193
X7.7559Y-2.3228
X7.759Y-2.1028
X7.759Y-3.4571
X7.759Y-3.5831
X7.759Y-3.8351
X7.759Y-3.4256
X7.759Y-3.4886
X7.759Y-3.6461
X7.759Y-3.7091
X7.759Y-3.7721
X7.759Y-3.8036
X7.763Y-2.9532
X7.7635Y-2.8815
X7.7635Y-2.9051
X7.7635Y-2.9288
X7.7649Y-2.4394
X7.7691Y-3.3114
X7.7748Y-3.7406
X7.7826Y-2.1028
X7.7884Y-3.3114
X7.7905Y-3.4886
X7.7905Y-3.5634
X7.7905Y-3.6303
X7.7905Y-3.213
X7.7905Y-3.4217
X7.7945Y-3.8508
X7.7945Y-3.7091
X7.8023Y-3.7681
X7.8063Y-2.1028
X7.8181Y-2.9059
X7.8346Y-2.1894
X7.8378Y-3.0083
X7.8653Y-2.8863
X7.8693Y-3.9374
X7.8701Y-3.7091
X7.8811Y-2.776
X7.8929Y-2.7996
X7.9165Y-2.5831
X7.9165Y-2.6146
X7.9204Y-3.1894
X7.9204Y-3.2957
X7.9213Y-3.1299
X7.9244Y-3.7878
X7.9548Y-2.1177
X7.9548Y-2.2516
X7.9567Y-2.3031
X7.9724Y-3.2165
X7.9756Y-2.9965
X7.9756Y-3.091
X7.9756Y-3.4374
X7.9756Y-2.965
X7.9756Y-3.1225
X8.009Y-2.4237
X8.009Y-2.2937
X8.0394Y-3.3858
X8.0643Y-2.9294
X8.081Y-3.4437
X8.081Y-3.6437
X8.081Y-3.7437
X8.0836Y-2.9294
X8.1055Y-2.3587
X8.1378Y-2.6496
X8.1488Y-2.7445
X8.1488Y-2.965
X8.1488Y-3.1225
X8.1488Y-2.6815
X8.1488Y-2.713
X8.1488Y-2.8075
X8.1488Y-2.8705
X8.1488Y-2.902
X8.1488Y-3.028
X8.1488Y-3.091
X8.1488Y-3.2485
X8.1488Y-2.776
X8.1488Y-2.9965
X8.1488Y-2.839
X8.1488Y-3.0595
X8.1488Y-3.28
X8.1493Y-3.2162
X8.1493Y-3.4996
X8.1535Y-2.9331
X8.2078Y-2.5831
X8.2078Y-2.6146
T2
X6.4086Y-2.1776
X6.4086Y-3.9099
X8.1409Y-2.1776
X8.1409Y-3.9099
M30
