%TF.GenerationSoftware,KiCad,Pcbnew,8.0.1*%
%TF.CreationDate,2024-05-09T15:37:21+08:00*%
%TF.ProjectId,ProDocument_ZYNQ7020_V1_2024-04-10,50726f44-6f63-4756-9d65-6e745f5a594e,rev?*%
%TF.SameCoordinates,Original*%
%TF.FileFunction,Legend,Bot*%
%TF.FilePolarity,Positive*%
%FSLAX46Y46*%
G04 Gerber Fmt 4.6, Leading zero omitted, Abs format (unit mm)*
G04 Created by KiCad (PCBNEW 8.0.1) date 2024-05-09 15:37:21*
%MOMM*%
%LPD*%
G01*
G04 APERTURE LIST*
%ADD10C,0.100000*%
%ADD11C,0.120000*%
%ADD12C,0.254000*%
%ADD13C,0.000000*%
G04 APERTURE END LIST*
D10*
X181074916Y-74953168D02*
X181274916Y-74667454D01*
X181417773Y-74953168D02*
X181417773Y-74353168D01*
X181417773Y-74353168D02*
X181189202Y-74353168D01*
X181189202Y-74353168D02*
X181132059Y-74381739D01*
X181132059Y-74381739D02*
X181103488Y-74410311D01*
X181103488Y-74410311D02*
X181074916Y-74467454D01*
X181074916Y-74467454D02*
X181074916Y-74553168D01*
X181074916Y-74553168D02*
X181103488Y-74610311D01*
X181103488Y-74610311D02*
X181132059Y-74638882D01*
X181132059Y-74638882D02*
X181189202Y-74667454D01*
X181189202Y-74667454D02*
X181417773Y-74667454D01*
X180846345Y-74410311D02*
X180817773Y-74381739D01*
X180817773Y-74381739D02*
X180760631Y-74353168D01*
X180760631Y-74353168D02*
X180617773Y-74353168D01*
X180617773Y-74353168D02*
X180560631Y-74381739D01*
X180560631Y-74381739D02*
X180532059Y-74410311D01*
X180532059Y-74410311D02*
X180503488Y-74467454D01*
X180503488Y-74467454D02*
X180503488Y-74524597D01*
X180503488Y-74524597D02*
X180532059Y-74610311D01*
X180532059Y-74610311D02*
X180874916Y-74953168D01*
X180874916Y-74953168D02*
X180503488Y-74953168D01*
X180132059Y-74353168D02*
X180074916Y-74353168D01*
X180074916Y-74353168D02*
X180017773Y-74381739D01*
X180017773Y-74381739D02*
X179989202Y-74410311D01*
X179989202Y-74410311D02*
X179960630Y-74467454D01*
X179960630Y-74467454D02*
X179932059Y-74581739D01*
X179932059Y-74581739D02*
X179932059Y-74724597D01*
X179932059Y-74724597D02*
X179960630Y-74838882D01*
X179960630Y-74838882D02*
X179989202Y-74896025D01*
X179989202Y-74896025D02*
X180017773Y-74924597D01*
X180017773Y-74924597D02*
X180074916Y-74953168D01*
X180074916Y-74953168D02*
X180132059Y-74953168D01*
X180132059Y-74953168D02*
X180189202Y-74924597D01*
X180189202Y-74924597D02*
X180217773Y-74896025D01*
X180217773Y-74896025D02*
X180246344Y-74838882D01*
X180246344Y-74838882D02*
X180274916Y-74724597D01*
X180274916Y-74724597D02*
X180274916Y-74581739D01*
X180274916Y-74581739D02*
X180246344Y-74467454D01*
X180246344Y-74467454D02*
X180217773Y-74410311D01*
X180217773Y-74410311D02*
X180189202Y-74381739D01*
X180189202Y-74381739D02*
X180132059Y-74353168D01*
X167264917Y-97626025D02*
X167293489Y-97654597D01*
X167293489Y-97654597D02*
X167379203Y-97683168D01*
X167379203Y-97683168D02*
X167436346Y-97683168D01*
X167436346Y-97683168D02*
X167522060Y-97654597D01*
X167522060Y-97654597D02*
X167579203Y-97597454D01*
X167579203Y-97597454D02*
X167607774Y-97540311D01*
X167607774Y-97540311D02*
X167636346Y-97426025D01*
X167636346Y-97426025D02*
X167636346Y-97340311D01*
X167636346Y-97340311D02*
X167607774Y-97226025D01*
X167607774Y-97226025D02*
X167579203Y-97168882D01*
X167579203Y-97168882D02*
X167522060Y-97111739D01*
X167522060Y-97111739D02*
X167436346Y-97083168D01*
X167436346Y-97083168D02*
X167379203Y-97083168D01*
X167379203Y-97083168D02*
X167293489Y-97111739D01*
X167293489Y-97111739D02*
X167264917Y-97140311D01*
X166693489Y-97683168D02*
X167036346Y-97683168D01*
X166864917Y-97683168D02*
X166864917Y-97083168D01*
X166864917Y-97083168D02*
X166922060Y-97168882D01*
X166922060Y-97168882D02*
X166979203Y-97226025D01*
X166979203Y-97226025D02*
X167036346Y-97254597D01*
X166179203Y-97083168D02*
X166293488Y-97083168D01*
X166293488Y-97083168D02*
X166350631Y-97111739D01*
X166350631Y-97111739D02*
X166379203Y-97140311D01*
X166379203Y-97140311D02*
X166436345Y-97226025D01*
X166436345Y-97226025D02*
X166464917Y-97340311D01*
X166464917Y-97340311D02*
X166464917Y-97568882D01*
X166464917Y-97568882D02*
X166436345Y-97626025D01*
X166436345Y-97626025D02*
X166407774Y-97654597D01*
X166407774Y-97654597D02*
X166350631Y-97683168D01*
X166350631Y-97683168D02*
X166236345Y-97683168D01*
X166236345Y-97683168D02*
X166179203Y-97654597D01*
X166179203Y-97654597D02*
X166150631Y-97626025D01*
X166150631Y-97626025D02*
X166122060Y-97568882D01*
X166122060Y-97568882D02*
X166122060Y-97426025D01*
X166122060Y-97426025D02*
X166150631Y-97368882D01*
X166150631Y-97368882D02*
X166179203Y-97340311D01*
X166179203Y-97340311D02*
X166236345Y-97311739D01*
X166236345Y-97311739D02*
X166350631Y-97311739D01*
X166350631Y-97311739D02*
X166407774Y-97340311D01*
X166407774Y-97340311D02*
X166436345Y-97368882D01*
X166436345Y-97368882D02*
X166464917Y-97426025D01*
X196264917Y-90826025D02*
X196293489Y-90854597D01*
X196293489Y-90854597D02*
X196379203Y-90883168D01*
X196379203Y-90883168D02*
X196436346Y-90883168D01*
X196436346Y-90883168D02*
X196522060Y-90854597D01*
X196522060Y-90854597D02*
X196579203Y-90797454D01*
X196579203Y-90797454D02*
X196607774Y-90740311D01*
X196607774Y-90740311D02*
X196636346Y-90626025D01*
X196636346Y-90626025D02*
X196636346Y-90540311D01*
X196636346Y-90540311D02*
X196607774Y-90426025D01*
X196607774Y-90426025D02*
X196579203Y-90368882D01*
X196579203Y-90368882D02*
X196522060Y-90311739D01*
X196522060Y-90311739D02*
X196436346Y-90283168D01*
X196436346Y-90283168D02*
X196379203Y-90283168D01*
X196379203Y-90283168D02*
X196293489Y-90311739D01*
X196293489Y-90311739D02*
X196264917Y-90340311D01*
X196036346Y-90340311D02*
X196007774Y-90311739D01*
X196007774Y-90311739D02*
X195950632Y-90283168D01*
X195950632Y-90283168D02*
X195807774Y-90283168D01*
X195807774Y-90283168D02*
X195750632Y-90311739D01*
X195750632Y-90311739D02*
X195722060Y-90340311D01*
X195722060Y-90340311D02*
X195693489Y-90397454D01*
X195693489Y-90397454D02*
X195693489Y-90454597D01*
X195693489Y-90454597D02*
X195722060Y-90540311D01*
X195722060Y-90540311D02*
X196064917Y-90883168D01*
X196064917Y-90883168D02*
X195693489Y-90883168D01*
X195179203Y-90483168D02*
X195179203Y-90883168D01*
X195322060Y-90254597D02*
X195464917Y-90683168D01*
X195464917Y-90683168D02*
X195093488Y-90683168D01*
X185894431Y-57225082D02*
X185923003Y-57196510D01*
X185923003Y-57196510D02*
X185951574Y-57110796D01*
X185951574Y-57110796D02*
X185951574Y-57053653D01*
X185951574Y-57053653D02*
X185923003Y-56967939D01*
X185923003Y-56967939D02*
X185865860Y-56910796D01*
X185865860Y-56910796D02*
X185808717Y-56882225D01*
X185808717Y-56882225D02*
X185694431Y-56853653D01*
X185694431Y-56853653D02*
X185608717Y-56853653D01*
X185608717Y-56853653D02*
X185494431Y-56882225D01*
X185494431Y-56882225D02*
X185437288Y-56910796D01*
X185437288Y-56910796D02*
X185380145Y-56967939D01*
X185380145Y-56967939D02*
X185351574Y-57053653D01*
X185351574Y-57053653D02*
X185351574Y-57110796D01*
X185351574Y-57110796D02*
X185380145Y-57196510D01*
X185380145Y-57196510D02*
X185408717Y-57225082D01*
X185351574Y-57767939D02*
X185351574Y-57482225D01*
X185351574Y-57482225D02*
X185637288Y-57453653D01*
X185637288Y-57453653D02*
X185608717Y-57482225D01*
X185608717Y-57482225D02*
X185580145Y-57539368D01*
X185580145Y-57539368D02*
X185580145Y-57682225D01*
X185580145Y-57682225D02*
X185608717Y-57739368D01*
X185608717Y-57739368D02*
X185637288Y-57767939D01*
X185637288Y-57767939D02*
X185694431Y-57796510D01*
X185694431Y-57796510D02*
X185837288Y-57796510D01*
X185837288Y-57796510D02*
X185894431Y-57767939D01*
X185894431Y-57767939D02*
X185923003Y-57739368D01*
X185923003Y-57739368D02*
X185951574Y-57682225D01*
X185951574Y-57682225D02*
X185951574Y-57539368D01*
X185951574Y-57539368D02*
X185923003Y-57482225D01*
X185923003Y-57482225D02*
X185894431Y-57453653D01*
X185351574Y-58167939D02*
X185351574Y-58225082D01*
X185351574Y-58225082D02*
X185380145Y-58282225D01*
X185380145Y-58282225D02*
X185408717Y-58310797D01*
X185408717Y-58310797D02*
X185465860Y-58339368D01*
X185465860Y-58339368D02*
X185580145Y-58367939D01*
X185580145Y-58367939D02*
X185723003Y-58367939D01*
X185723003Y-58367939D02*
X185837288Y-58339368D01*
X185837288Y-58339368D02*
X185894431Y-58310797D01*
X185894431Y-58310797D02*
X185923003Y-58282225D01*
X185923003Y-58282225D02*
X185951574Y-58225082D01*
X185951574Y-58225082D02*
X185951574Y-58167939D01*
X185951574Y-58167939D02*
X185923003Y-58110797D01*
X185923003Y-58110797D02*
X185894431Y-58082225D01*
X185894431Y-58082225D02*
X185837288Y-58053654D01*
X185837288Y-58053654D02*
X185723003Y-58025082D01*
X185723003Y-58025082D02*
X185580145Y-58025082D01*
X185580145Y-58025082D02*
X185465860Y-58053654D01*
X185465860Y-58053654D02*
X185408717Y-58082225D01*
X185408717Y-58082225D02*
X185380145Y-58110797D01*
X185380145Y-58110797D02*
X185351574Y-58167939D01*
X195474430Y-73225083D02*
X195503002Y-73196511D01*
X195503002Y-73196511D02*
X195531573Y-73110797D01*
X195531573Y-73110797D02*
X195531573Y-73053654D01*
X195531573Y-73053654D02*
X195503002Y-72967940D01*
X195503002Y-72967940D02*
X195445859Y-72910797D01*
X195445859Y-72910797D02*
X195388716Y-72882226D01*
X195388716Y-72882226D02*
X195274430Y-72853654D01*
X195274430Y-72853654D02*
X195188716Y-72853654D01*
X195188716Y-72853654D02*
X195074430Y-72882226D01*
X195074430Y-72882226D02*
X195017287Y-72910797D01*
X195017287Y-72910797D02*
X194960144Y-72967940D01*
X194960144Y-72967940D02*
X194931573Y-73053654D01*
X194931573Y-73053654D02*
X194931573Y-73110797D01*
X194931573Y-73110797D02*
X194960144Y-73196511D01*
X194960144Y-73196511D02*
X194988716Y-73225083D01*
X195131573Y-73739369D02*
X195531573Y-73739369D01*
X194903002Y-73596511D02*
X195331573Y-73453654D01*
X195331573Y-73453654D02*
X195331573Y-73825083D01*
X194931573Y-73996512D02*
X194931573Y-74396512D01*
X194931573Y-74396512D02*
X195531573Y-74139369D01*
X171094431Y-70825082D02*
X171123003Y-70796510D01*
X171123003Y-70796510D02*
X171151574Y-70710796D01*
X171151574Y-70710796D02*
X171151574Y-70653653D01*
X171151574Y-70653653D02*
X171123003Y-70567939D01*
X171123003Y-70567939D02*
X171065860Y-70510796D01*
X171065860Y-70510796D02*
X171008717Y-70482225D01*
X171008717Y-70482225D02*
X170894431Y-70453653D01*
X170894431Y-70453653D02*
X170808717Y-70453653D01*
X170808717Y-70453653D02*
X170694431Y-70482225D01*
X170694431Y-70482225D02*
X170637288Y-70510796D01*
X170637288Y-70510796D02*
X170580145Y-70567939D01*
X170580145Y-70567939D02*
X170551574Y-70653653D01*
X170551574Y-70653653D02*
X170551574Y-70710796D01*
X170551574Y-70710796D02*
X170580145Y-70796510D01*
X170580145Y-70796510D02*
X170608717Y-70825082D01*
X170551574Y-71367939D02*
X170551574Y-71082225D01*
X170551574Y-71082225D02*
X170837288Y-71053653D01*
X170837288Y-71053653D02*
X170808717Y-71082225D01*
X170808717Y-71082225D02*
X170780145Y-71139368D01*
X170780145Y-71139368D02*
X170780145Y-71282225D01*
X170780145Y-71282225D02*
X170808717Y-71339368D01*
X170808717Y-71339368D02*
X170837288Y-71367939D01*
X170837288Y-71367939D02*
X170894431Y-71396510D01*
X170894431Y-71396510D02*
X171037288Y-71396510D01*
X171037288Y-71396510D02*
X171094431Y-71367939D01*
X171094431Y-71367939D02*
X171123003Y-71339368D01*
X171123003Y-71339368D02*
X171151574Y-71282225D01*
X171151574Y-71282225D02*
X171151574Y-71139368D01*
X171151574Y-71139368D02*
X171123003Y-71082225D01*
X171123003Y-71082225D02*
X171094431Y-71053653D01*
X170551574Y-71596511D02*
X170551574Y-71967939D01*
X170551574Y-71967939D02*
X170780145Y-71767939D01*
X170780145Y-71767939D02*
X170780145Y-71853654D01*
X170780145Y-71853654D02*
X170808717Y-71910797D01*
X170808717Y-71910797D02*
X170837288Y-71939368D01*
X170837288Y-71939368D02*
X170894431Y-71967939D01*
X170894431Y-71967939D02*
X171037288Y-71967939D01*
X171037288Y-71967939D02*
X171094431Y-71939368D01*
X171094431Y-71939368D02*
X171123003Y-71910797D01*
X171123003Y-71910797D02*
X171151574Y-71853654D01*
X171151574Y-71853654D02*
X171151574Y-71682225D01*
X171151574Y-71682225D02*
X171123003Y-71625082D01*
X171123003Y-71625082D02*
X171094431Y-71596511D01*
X196264917Y-94426025D02*
X196293489Y-94454597D01*
X196293489Y-94454597D02*
X196379203Y-94483168D01*
X196379203Y-94483168D02*
X196436346Y-94483168D01*
X196436346Y-94483168D02*
X196522060Y-94454597D01*
X196522060Y-94454597D02*
X196579203Y-94397454D01*
X196579203Y-94397454D02*
X196607774Y-94340311D01*
X196607774Y-94340311D02*
X196636346Y-94226025D01*
X196636346Y-94226025D02*
X196636346Y-94140311D01*
X196636346Y-94140311D02*
X196607774Y-94026025D01*
X196607774Y-94026025D02*
X196579203Y-93968882D01*
X196579203Y-93968882D02*
X196522060Y-93911739D01*
X196522060Y-93911739D02*
X196436346Y-93883168D01*
X196436346Y-93883168D02*
X196379203Y-93883168D01*
X196379203Y-93883168D02*
X196293489Y-93911739D01*
X196293489Y-93911739D02*
X196264917Y-93940311D01*
X196064917Y-93883168D02*
X195693489Y-93883168D01*
X195693489Y-93883168D02*
X195893489Y-94111739D01*
X195893489Y-94111739D02*
X195807774Y-94111739D01*
X195807774Y-94111739D02*
X195750632Y-94140311D01*
X195750632Y-94140311D02*
X195722060Y-94168882D01*
X195722060Y-94168882D02*
X195693489Y-94226025D01*
X195693489Y-94226025D02*
X195693489Y-94368882D01*
X195693489Y-94368882D02*
X195722060Y-94426025D01*
X195722060Y-94426025D02*
X195750632Y-94454597D01*
X195750632Y-94454597D02*
X195807774Y-94483168D01*
X195807774Y-94483168D02*
X195979203Y-94483168D01*
X195979203Y-94483168D02*
X196036346Y-94454597D01*
X196036346Y-94454597D02*
X196064917Y-94426025D01*
X195179203Y-93883168D02*
X195293488Y-93883168D01*
X195293488Y-93883168D02*
X195350631Y-93911739D01*
X195350631Y-93911739D02*
X195379203Y-93940311D01*
X195379203Y-93940311D02*
X195436345Y-94026025D01*
X195436345Y-94026025D02*
X195464917Y-94140311D01*
X195464917Y-94140311D02*
X195464917Y-94368882D01*
X195464917Y-94368882D02*
X195436345Y-94426025D01*
X195436345Y-94426025D02*
X195407774Y-94454597D01*
X195407774Y-94454597D02*
X195350631Y-94483168D01*
X195350631Y-94483168D02*
X195236345Y-94483168D01*
X195236345Y-94483168D02*
X195179203Y-94454597D01*
X195179203Y-94454597D02*
X195150631Y-94426025D01*
X195150631Y-94426025D02*
X195122060Y-94368882D01*
X195122060Y-94368882D02*
X195122060Y-94226025D01*
X195122060Y-94226025D02*
X195150631Y-94168882D01*
X195150631Y-94168882D02*
X195179203Y-94140311D01*
X195179203Y-94140311D02*
X195236345Y-94111739D01*
X195236345Y-94111739D02*
X195350631Y-94111739D01*
X195350631Y-94111739D02*
X195407774Y-94140311D01*
X195407774Y-94140311D02*
X195436345Y-94168882D01*
X195436345Y-94168882D02*
X195464917Y-94226025D01*
X181264917Y-68183168D02*
X181464917Y-67897454D01*
X181607774Y-68183168D02*
X181607774Y-67583168D01*
X181607774Y-67583168D02*
X181379203Y-67583168D01*
X181379203Y-67583168D02*
X181322060Y-67611739D01*
X181322060Y-67611739D02*
X181293489Y-67640311D01*
X181293489Y-67640311D02*
X181264917Y-67697454D01*
X181264917Y-67697454D02*
X181264917Y-67783168D01*
X181264917Y-67783168D02*
X181293489Y-67840311D01*
X181293489Y-67840311D02*
X181322060Y-67868882D01*
X181322060Y-67868882D02*
X181379203Y-67897454D01*
X181379203Y-67897454D02*
X181607774Y-67897454D01*
X181064917Y-67583168D02*
X180693489Y-67583168D01*
X180693489Y-67583168D02*
X180893489Y-67811739D01*
X180893489Y-67811739D02*
X180807774Y-67811739D01*
X180807774Y-67811739D02*
X180750632Y-67840311D01*
X180750632Y-67840311D02*
X180722060Y-67868882D01*
X180722060Y-67868882D02*
X180693489Y-67926025D01*
X180693489Y-67926025D02*
X180693489Y-68068882D01*
X180693489Y-68068882D02*
X180722060Y-68126025D01*
X180722060Y-68126025D02*
X180750632Y-68154597D01*
X180750632Y-68154597D02*
X180807774Y-68183168D01*
X180807774Y-68183168D02*
X180979203Y-68183168D01*
X180979203Y-68183168D02*
X181036346Y-68154597D01*
X181036346Y-68154597D02*
X181064917Y-68126025D01*
X180350631Y-67840311D02*
X180407774Y-67811739D01*
X180407774Y-67811739D02*
X180436345Y-67783168D01*
X180436345Y-67783168D02*
X180464917Y-67726025D01*
X180464917Y-67726025D02*
X180464917Y-67697454D01*
X180464917Y-67697454D02*
X180436345Y-67640311D01*
X180436345Y-67640311D02*
X180407774Y-67611739D01*
X180407774Y-67611739D02*
X180350631Y-67583168D01*
X180350631Y-67583168D02*
X180236345Y-67583168D01*
X180236345Y-67583168D02*
X180179203Y-67611739D01*
X180179203Y-67611739D02*
X180150631Y-67640311D01*
X180150631Y-67640311D02*
X180122060Y-67697454D01*
X180122060Y-67697454D02*
X180122060Y-67726025D01*
X180122060Y-67726025D02*
X180150631Y-67783168D01*
X180150631Y-67783168D02*
X180179203Y-67811739D01*
X180179203Y-67811739D02*
X180236345Y-67840311D01*
X180236345Y-67840311D02*
X180350631Y-67840311D01*
X180350631Y-67840311D02*
X180407774Y-67868882D01*
X180407774Y-67868882D02*
X180436345Y-67897454D01*
X180436345Y-67897454D02*
X180464917Y-67954597D01*
X180464917Y-67954597D02*
X180464917Y-68068882D01*
X180464917Y-68068882D02*
X180436345Y-68126025D01*
X180436345Y-68126025D02*
X180407774Y-68154597D01*
X180407774Y-68154597D02*
X180350631Y-68183168D01*
X180350631Y-68183168D02*
X180236345Y-68183168D01*
X180236345Y-68183168D02*
X180179203Y-68154597D01*
X180179203Y-68154597D02*
X180150631Y-68126025D01*
X180150631Y-68126025D02*
X180122060Y-68068882D01*
X180122060Y-68068882D02*
X180122060Y-67954597D01*
X180122060Y-67954597D02*
X180150631Y-67897454D01*
X180150631Y-67897454D02*
X180179203Y-67868882D01*
X180179203Y-67868882D02*
X180236345Y-67840311D01*
X164294431Y-57425082D02*
X164323003Y-57396510D01*
X164323003Y-57396510D02*
X164351574Y-57310796D01*
X164351574Y-57310796D02*
X164351574Y-57253653D01*
X164351574Y-57253653D02*
X164323003Y-57167939D01*
X164323003Y-57167939D02*
X164265860Y-57110796D01*
X164265860Y-57110796D02*
X164208717Y-57082225D01*
X164208717Y-57082225D02*
X164094431Y-57053653D01*
X164094431Y-57053653D02*
X164008717Y-57053653D01*
X164008717Y-57053653D02*
X163894431Y-57082225D01*
X163894431Y-57082225D02*
X163837288Y-57110796D01*
X163837288Y-57110796D02*
X163780145Y-57167939D01*
X163780145Y-57167939D02*
X163751574Y-57253653D01*
X163751574Y-57253653D02*
X163751574Y-57310796D01*
X163751574Y-57310796D02*
X163780145Y-57396510D01*
X163780145Y-57396510D02*
X163808717Y-57425082D01*
X163751574Y-57625082D02*
X163751574Y-58025082D01*
X163751574Y-58025082D02*
X164351574Y-57767939D01*
X164008717Y-58339368D02*
X163980145Y-58282225D01*
X163980145Y-58282225D02*
X163951574Y-58253654D01*
X163951574Y-58253654D02*
X163894431Y-58225082D01*
X163894431Y-58225082D02*
X163865860Y-58225082D01*
X163865860Y-58225082D02*
X163808717Y-58253654D01*
X163808717Y-58253654D02*
X163780145Y-58282225D01*
X163780145Y-58282225D02*
X163751574Y-58339368D01*
X163751574Y-58339368D02*
X163751574Y-58453654D01*
X163751574Y-58453654D02*
X163780145Y-58510797D01*
X163780145Y-58510797D02*
X163808717Y-58539368D01*
X163808717Y-58539368D02*
X163865860Y-58567939D01*
X163865860Y-58567939D02*
X163894431Y-58567939D01*
X163894431Y-58567939D02*
X163951574Y-58539368D01*
X163951574Y-58539368D02*
X163980145Y-58510797D01*
X163980145Y-58510797D02*
X164008717Y-58453654D01*
X164008717Y-58453654D02*
X164008717Y-58339368D01*
X164008717Y-58339368D02*
X164037288Y-58282225D01*
X164037288Y-58282225D02*
X164065860Y-58253654D01*
X164065860Y-58253654D02*
X164123003Y-58225082D01*
X164123003Y-58225082D02*
X164237288Y-58225082D01*
X164237288Y-58225082D02*
X164294431Y-58253654D01*
X164294431Y-58253654D02*
X164323003Y-58282225D01*
X164323003Y-58282225D02*
X164351574Y-58339368D01*
X164351574Y-58339368D02*
X164351574Y-58453654D01*
X164351574Y-58453654D02*
X164323003Y-58510797D01*
X164323003Y-58510797D02*
X164294431Y-58539368D01*
X164294431Y-58539368D02*
X164237288Y-58567939D01*
X164237288Y-58567939D02*
X164123003Y-58567939D01*
X164123003Y-58567939D02*
X164065860Y-58539368D01*
X164065860Y-58539368D02*
X164037288Y-58510797D01*
X164037288Y-58510797D02*
X164008717Y-58453654D01*
X194702062Y-65625482D02*
X194730634Y-65654054D01*
X194730634Y-65654054D02*
X194816348Y-65682625D01*
X194816348Y-65682625D02*
X194873491Y-65682625D01*
X194873491Y-65682625D02*
X194959205Y-65654054D01*
X194959205Y-65654054D02*
X195016348Y-65596911D01*
X195016348Y-65596911D02*
X195044919Y-65539768D01*
X195044919Y-65539768D02*
X195073491Y-65425482D01*
X195073491Y-65425482D02*
X195073491Y-65339768D01*
X195073491Y-65339768D02*
X195044919Y-65225482D01*
X195044919Y-65225482D02*
X195016348Y-65168339D01*
X195016348Y-65168339D02*
X194959205Y-65111196D01*
X194959205Y-65111196D02*
X194873491Y-65082625D01*
X194873491Y-65082625D02*
X194816348Y-65082625D01*
X194816348Y-65082625D02*
X194730634Y-65111196D01*
X194730634Y-65111196D02*
X194702062Y-65139768D01*
X194159205Y-65082625D02*
X194444919Y-65082625D01*
X194444919Y-65082625D02*
X194473491Y-65368339D01*
X194473491Y-65368339D02*
X194444919Y-65339768D01*
X194444919Y-65339768D02*
X194387777Y-65311196D01*
X194387777Y-65311196D02*
X194244919Y-65311196D01*
X194244919Y-65311196D02*
X194187777Y-65339768D01*
X194187777Y-65339768D02*
X194159205Y-65368339D01*
X194159205Y-65368339D02*
X194130634Y-65425482D01*
X194130634Y-65425482D02*
X194130634Y-65568339D01*
X194130634Y-65568339D02*
X194159205Y-65625482D01*
X194159205Y-65625482D02*
X194187777Y-65654054D01*
X194187777Y-65654054D02*
X194244919Y-65682625D01*
X194244919Y-65682625D02*
X194387777Y-65682625D01*
X194387777Y-65682625D02*
X194444919Y-65654054D01*
X194444919Y-65654054D02*
X194473491Y-65625482D01*
X193844919Y-65682625D02*
X193730633Y-65682625D01*
X193730633Y-65682625D02*
X193673490Y-65654054D01*
X193673490Y-65654054D02*
X193644919Y-65625482D01*
X193644919Y-65625482D02*
X193587776Y-65539768D01*
X193587776Y-65539768D02*
X193559205Y-65425482D01*
X193559205Y-65425482D02*
X193559205Y-65196911D01*
X193559205Y-65196911D02*
X193587776Y-65139768D01*
X193587776Y-65139768D02*
X193616348Y-65111196D01*
X193616348Y-65111196D02*
X193673490Y-65082625D01*
X193673490Y-65082625D02*
X193787776Y-65082625D01*
X193787776Y-65082625D02*
X193844919Y-65111196D01*
X193844919Y-65111196D02*
X193873490Y-65139768D01*
X193873490Y-65139768D02*
X193902062Y-65196911D01*
X193902062Y-65196911D02*
X193902062Y-65339768D01*
X193902062Y-65339768D02*
X193873490Y-65396911D01*
X193873490Y-65396911D02*
X193844919Y-65425482D01*
X193844919Y-65425482D02*
X193787776Y-65454054D01*
X193787776Y-65454054D02*
X193673490Y-65454054D01*
X193673490Y-65454054D02*
X193616348Y-65425482D01*
X193616348Y-65425482D02*
X193587776Y-65396911D01*
X193587776Y-65396911D02*
X193559205Y-65339768D01*
X169664917Y-56026025D02*
X169693489Y-56054597D01*
X169693489Y-56054597D02*
X169779203Y-56083168D01*
X169779203Y-56083168D02*
X169836346Y-56083168D01*
X169836346Y-56083168D02*
X169922060Y-56054597D01*
X169922060Y-56054597D02*
X169979203Y-55997454D01*
X169979203Y-55997454D02*
X170007774Y-55940311D01*
X170007774Y-55940311D02*
X170036346Y-55826025D01*
X170036346Y-55826025D02*
X170036346Y-55740311D01*
X170036346Y-55740311D02*
X170007774Y-55626025D01*
X170007774Y-55626025D02*
X169979203Y-55568882D01*
X169979203Y-55568882D02*
X169922060Y-55511739D01*
X169922060Y-55511739D02*
X169836346Y-55483168D01*
X169836346Y-55483168D02*
X169779203Y-55483168D01*
X169779203Y-55483168D02*
X169693489Y-55511739D01*
X169693489Y-55511739D02*
X169664917Y-55540311D01*
X169464917Y-55483168D02*
X169064917Y-55483168D01*
X169064917Y-55483168D02*
X169322060Y-56083168D01*
X168722060Y-55483168D02*
X168664917Y-55483168D01*
X168664917Y-55483168D02*
X168607774Y-55511739D01*
X168607774Y-55511739D02*
X168579203Y-55540311D01*
X168579203Y-55540311D02*
X168550631Y-55597454D01*
X168550631Y-55597454D02*
X168522060Y-55711739D01*
X168522060Y-55711739D02*
X168522060Y-55854597D01*
X168522060Y-55854597D02*
X168550631Y-55968882D01*
X168550631Y-55968882D02*
X168579203Y-56026025D01*
X168579203Y-56026025D02*
X168607774Y-56054597D01*
X168607774Y-56054597D02*
X168664917Y-56083168D01*
X168664917Y-56083168D02*
X168722060Y-56083168D01*
X168722060Y-56083168D02*
X168779203Y-56054597D01*
X168779203Y-56054597D02*
X168807774Y-56026025D01*
X168807774Y-56026025D02*
X168836345Y-55968882D01*
X168836345Y-55968882D02*
X168864917Y-55854597D01*
X168864917Y-55854597D02*
X168864917Y-55711739D01*
X168864917Y-55711739D02*
X168836345Y-55597454D01*
X168836345Y-55597454D02*
X168807774Y-55540311D01*
X168807774Y-55540311D02*
X168779203Y-55511739D01*
X168779203Y-55511739D02*
X168722060Y-55483168D01*
X184251574Y-65525082D02*
X183965860Y-65325082D01*
X184251574Y-65182225D02*
X183651574Y-65182225D01*
X183651574Y-65182225D02*
X183651574Y-65410796D01*
X183651574Y-65410796D02*
X183680145Y-65467939D01*
X183680145Y-65467939D02*
X183708717Y-65496510D01*
X183708717Y-65496510D02*
X183765860Y-65525082D01*
X183765860Y-65525082D02*
X183851574Y-65525082D01*
X183851574Y-65525082D02*
X183908717Y-65496510D01*
X183908717Y-65496510D02*
X183937288Y-65467939D01*
X183937288Y-65467939D02*
X183965860Y-65410796D01*
X183965860Y-65410796D02*
X183965860Y-65182225D01*
X183908717Y-65867939D02*
X183880145Y-65810796D01*
X183880145Y-65810796D02*
X183851574Y-65782225D01*
X183851574Y-65782225D02*
X183794431Y-65753653D01*
X183794431Y-65753653D02*
X183765860Y-65753653D01*
X183765860Y-65753653D02*
X183708717Y-65782225D01*
X183708717Y-65782225D02*
X183680145Y-65810796D01*
X183680145Y-65810796D02*
X183651574Y-65867939D01*
X183651574Y-65867939D02*
X183651574Y-65982225D01*
X183651574Y-65982225D02*
X183680145Y-66039368D01*
X183680145Y-66039368D02*
X183708717Y-66067939D01*
X183708717Y-66067939D02*
X183765860Y-66096510D01*
X183765860Y-66096510D02*
X183794431Y-66096510D01*
X183794431Y-66096510D02*
X183851574Y-66067939D01*
X183851574Y-66067939D02*
X183880145Y-66039368D01*
X183880145Y-66039368D02*
X183908717Y-65982225D01*
X183908717Y-65982225D02*
X183908717Y-65867939D01*
X183908717Y-65867939D02*
X183937288Y-65810796D01*
X183937288Y-65810796D02*
X183965860Y-65782225D01*
X183965860Y-65782225D02*
X184023003Y-65753653D01*
X184023003Y-65753653D02*
X184137288Y-65753653D01*
X184137288Y-65753653D02*
X184194431Y-65782225D01*
X184194431Y-65782225D02*
X184223003Y-65810796D01*
X184223003Y-65810796D02*
X184251574Y-65867939D01*
X184251574Y-65867939D02*
X184251574Y-65982225D01*
X184251574Y-65982225D02*
X184223003Y-66039368D01*
X184223003Y-66039368D02*
X184194431Y-66067939D01*
X184194431Y-66067939D02*
X184137288Y-66096510D01*
X184137288Y-66096510D02*
X184023003Y-66096510D01*
X184023003Y-66096510D02*
X183965860Y-66067939D01*
X183965860Y-66067939D02*
X183937288Y-66039368D01*
X183937288Y-66039368D02*
X183908717Y-65982225D01*
X183708717Y-66325082D02*
X183680145Y-66353654D01*
X183680145Y-66353654D02*
X183651574Y-66410797D01*
X183651574Y-66410797D02*
X183651574Y-66553654D01*
X183651574Y-66553654D02*
X183680145Y-66610797D01*
X183680145Y-66610797D02*
X183708717Y-66639368D01*
X183708717Y-66639368D02*
X183765860Y-66667939D01*
X183765860Y-66667939D02*
X183823003Y-66667939D01*
X183823003Y-66667939D02*
X183908717Y-66639368D01*
X183908717Y-66639368D02*
X184251574Y-66296511D01*
X184251574Y-66296511D02*
X184251574Y-66667939D01*
X173864917Y-85826025D02*
X173893489Y-85854597D01*
X173893489Y-85854597D02*
X173979203Y-85883168D01*
X173979203Y-85883168D02*
X174036346Y-85883168D01*
X174036346Y-85883168D02*
X174122060Y-85854597D01*
X174122060Y-85854597D02*
X174179203Y-85797454D01*
X174179203Y-85797454D02*
X174207774Y-85740311D01*
X174207774Y-85740311D02*
X174236346Y-85626025D01*
X174236346Y-85626025D02*
X174236346Y-85540311D01*
X174236346Y-85540311D02*
X174207774Y-85426025D01*
X174207774Y-85426025D02*
X174179203Y-85368882D01*
X174179203Y-85368882D02*
X174122060Y-85311739D01*
X174122060Y-85311739D02*
X174036346Y-85283168D01*
X174036346Y-85283168D02*
X173979203Y-85283168D01*
X173979203Y-85283168D02*
X173893489Y-85311739D01*
X173893489Y-85311739D02*
X173864917Y-85340311D01*
X173293489Y-85883168D02*
X173636346Y-85883168D01*
X173464917Y-85883168D02*
X173464917Y-85283168D01*
X173464917Y-85283168D02*
X173522060Y-85368882D01*
X173522060Y-85368882D02*
X173579203Y-85426025D01*
X173579203Y-85426025D02*
X173636346Y-85454597D01*
X173007774Y-85883168D02*
X172893488Y-85883168D01*
X172893488Y-85883168D02*
X172836345Y-85854597D01*
X172836345Y-85854597D02*
X172807774Y-85826025D01*
X172807774Y-85826025D02*
X172750631Y-85740311D01*
X172750631Y-85740311D02*
X172722060Y-85626025D01*
X172722060Y-85626025D02*
X172722060Y-85397454D01*
X172722060Y-85397454D02*
X172750631Y-85340311D01*
X172750631Y-85340311D02*
X172779203Y-85311739D01*
X172779203Y-85311739D02*
X172836345Y-85283168D01*
X172836345Y-85283168D02*
X172950631Y-85283168D01*
X172950631Y-85283168D02*
X173007774Y-85311739D01*
X173007774Y-85311739D02*
X173036345Y-85340311D01*
X173036345Y-85340311D02*
X173064917Y-85397454D01*
X173064917Y-85397454D02*
X173064917Y-85540311D01*
X173064917Y-85540311D02*
X173036345Y-85597454D01*
X173036345Y-85597454D02*
X173007774Y-85626025D01*
X173007774Y-85626025D02*
X172950631Y-85654597D01*
X172950631Y-85654597D02*
X172836345Y-85654597D01*
X172836345Y-85654597D02*
X172779203Y-85626025D01*
X172779203Y-85626025D02*
X172750631Y-85597454D01*
X172750631Y-85597454D02*
X172722060Y-85540311D01*
X202864917Y-94626025D02*
X202893489Y-94654597D01*
X202893489Y-94654597D02*
X202979203Y-94683168D01*
X202979203Y-94683168D02*
X203036346Y-94683168D01*
X203036346Y-94683168D02*
X203122060Y-94654597D01*
X203122060Y-94654597D02*
X203179203Y-94597454D01*
X203179203Y-94597454D02*
X203207774Y-94540311D01*
X203207774Y-94540311D02*
X203236346Y-94426025D01*
X203236346Y-94426025D02*
X203236346Y-94340311D01*
X203236346Y-94340311D02*
X203207774Y-94226025D01*
X203207774Y-94226025D02*
X203179203Y-94168882D01*
X203179203Y-94168882D02*
X203122060Y-94111739D01*
X203122060Y-94111739D02*
X203036346Y-94083168D01*
X203036346Y-94083168D02*
X202979203Y-94083168D01*
X202979203Y-94083168D02*
X202893489Y-94111739D01*
X202893489Y-94111739D02*
X202864917Y-94140311D01*
X202664917Y-94083168D02*
X202293489Y-94083168D01*
X202293489Y-94083168D02*
X202493489Y-94311739D01*
X202493489Y-94311739D02*
X202407774Y-94311739D01*
X202407774Y-94311739D02*
X202350632Y-94340311D01*
X202350632Y-94340311D02*
X202322060Y-94368882D01*
X202322060Y-94368882D02*
X202293489Y-94426025D01*
X202293489Y-94426025D02*
X202293489Y-94568882D01*
X202293489Y-94568882D02*
X202322060Y-94626025D01*
X202322060Y-94626025D02*
X202350632Y-94654597D01*
X202350632Y-94654597D02*
X202407774Y-94683168D01*
X202407774Y-94683168D02*
X202579203Y-94683168D01*
X202579203Y-94683168D02*
X202636346Y-94654597D01*
X202636346Y-94654597D02*
X202664917Y-94626025D01*
X201750631Y-94083168D02*
X202036345Y-94083168D01*
X202036345Y-94083168D02*
X202064917Y-94368882D01*
X202064917Y-94368882D02*
X202036345Y-94340311D01*
X202036345Y-94340311D02*
X201979203Y-94311739D01*
X201979203Y-94311739D02*
X201836345Y-94311739D01*
X201836345Y-94311739D02*
X201779203Y-94340311D01*
X201779203Y-94340311D02*
X201750631Y-94368882D01*
X201750631Y-94368882D02*
X201722060Y-94426025D01*
X201722060Y-94426025D02*
X201722060Y-94568882D01*
X201722060Y-94568882D02*
X201750631Y-94626025D01*
X201750631Y-94626025D02*
X201779203Y-94654597D01*
X201779203Y-94654597D02*
X201836345Y-94683168D01*
X201836345Y-94683168D02*
X201979203Y-94683168D01*
X201979203Y-94683168D02*
X202036345Y-94654597D01*
X202036345Y-94654597D02*
X202064917Y-94626025D01*
X171864917Y-93626025D02*
X171893489Y-93654597D01*
X171893489Y-93654597D02*
X171979203Y-93683168D01*
X171979203Y-93683168D02*
X172036346Y-93683168D01*
X172036346Y-93683168D02*
X172122060Y-93654597D01*
X172122060Y-93654597D02*
X172179203Y-93597454D01*
X172179203Y-93597454D02*
X172207774Y-93540311D01*
X172207774Y-93540311D02*
X172236346Y-93426025D01*
X172236346Y-93426025D02*
X172236346Y-93340311D01*
X172236346Y-93340311D02*
X172207774Y-93226025D01*
X172207774Y-93226025D02*
X172179203Y-93168882D01*
X172179203Y-93168882D02*
X172122060Y-93111739D01*
X172122060Y-93111739D02*
X172036346Y-93083168D01*
X172036346Y-93083168D02*
X171979203Y-93083168D01*
X171979203Y-93083168D02*
X171893489Y-93111739D01*
X171893489Y-93111739D02*
X171864917Y-93140311D01*
X171350632Y-93283168D02*
X171350632Y-93683168D01*
X171493489Y-93054597D02*
X171636346Y-93483168D01*
X171636346Y-93483168D02*
X171264917Y-93483168D01*
X171093488Y-93083168D02*
X170722060Y-93083168D01*
X170722060Y-93083168D02*
X170922060Y-93311739D01*
X170922060Y-93311739D02*
X170836345Y-93311739D01*
X170836345Y-93311739D02*
X170779203Y-93340311D01*
X170779203Y-93340311D02*
X170750631Y-93368882D01*
X170750631Y-93368882D02*
X170722060Y-93426025D01*
X170722060Y-93426025D02*
X170722060Y-93568882D01*
X170722060Y-93568882D02*
X170750631Y-93626025D01*
X170750631Y-93626025D02*
X170779203Y-93654597D01*
X170779203Y-93654597D02*
X170836345Y-93683168D01*
X170836345Y-93683168D02*
X171007774Y-93683168D01*
X171007774Y-93683168D02*
X171064917Y-93654597D01*
X171064917Y-93654597D02*
X171093488Y-93626025D01*
X176454062Y-75185482D02*
X176482634Y-75214054D01*
X176482634Y-75214054D02*
X176568348Y-75242625D01*
X176568348Y-75242625D02*
X176625491Y-75242625D01*
X176625491Y-75242625D02*
X176711205Y-75214054D01*
X176711205Y-75214054D02*
X176768348Y-75156911D01*
X176768348Y-75156911D02*
X176796919Y-75099768D01*
X176796919Y-75099768D02*
X176825491Y-74985482D01*
X176825491Y-74985482D02*
X176825491Y-74899768D01*
X176825491Y-74899768D02*
X176796919Y-74785482D01*
X176796919Y-74785482D02*
X176768348Y-74728339D01*
X176768348Y-74728339D02*
X176711205Y-74671196D01*
X176711205Y-74671196D02*
X176625491Y-74642625D01*
X176625491Y-74642625D02*
X176568348Y-74642625D01*
X176568348Y-74642625D02*
X176482634Y-74671196D01*
X176482634Y-74671196D02*
X176454062Y-74699768D01*
X175939777Y-74642625D02*
X176054062Y-74642625D01*
X176054062Y-74642625D02*
X176111205Y-74671196D01*
X176111205Y-74671196D02*
X176139777Y-74699768D01*
X176139777Y-74699768D02*
X176196919Y-74785482D01*
X176196919Y-74785482D02*
X176225491Y-74899768D01*
X176225491Y-74899768D02*
X176225491Y-75128339D01*
X176225491Y-75128339D02*
X176196919Y-75185482D01*
X176196919Y-75185482D02*
X176168348Y-75214054D01*
X176168348Y-75214054D02*
X176111205Y-75242625D01*
X176111205Y-75242625D02*
X175996919Y-75242625D01*
X175996919Y-75242625D02*
X175939777Y-75214054D01*
X175939777Y-75214054D02*
X175911205Y-75185482D01*
X175911205Y-75185482D02*
X175882634Y-75128339D01*
X175882634Y-75128339D02*
X175882634Y-74985482D01*
X175882634Y-74985482D02*
X175911205Y-74928339D01*
X175911205Y-74928339D02*
X175939777Y-74899768D01*
X175939777Y-74899768D02*
X175996919Y-74871196D01*
X175996919Y-74871196D02*
X176111205Y-74871196D01*
X176111205Y-74871196D02*
X176168348Y-74899768D01*
X176168348Y-74899768D02*
X176196919Y-74928339D01*
X176196919Y-74928339D02*
X176225491Y-74985482D01*
X175511205Y-74642625D02*
X175454062Y-74642625D01*
X175454062Y-74642625D02*
X175396919Y-74671196D01*
X175396919Y-74671196D02*
X175368348Y-74699768D01*
X175368348Y-74699768D02*
X175339776Y-74756911D01*
X175339776Y-74756911D02*
X175311205Y-74871196D01*
X175311205Y-74871196D02*
X175311205Y-75014054D01*
X175311205Y-75014054D02*
X175339776Y-75128339D01*
X175339776Y-75128339D02*
X175368348Y-75185482D01*
X175368348Y-75185482D02*
X175396919Y-75214054D01*
X175396919Y-75214054D02*
X175454062Y-75242625D01*
X175454062Y-75242625D02*
X175511205Y-75242625D01*
X175511205Y-75242625D02*
X175568348Y-75214054D01*
X175568348Y-75214054D02*
X175596919Y-75185482D01*
X175596919Y-75185482D02*
X175625490Y-75128339D01*
X175625490Y-75128339D02*
X175654062Y-75014054D01*
X175654062Y-75014054D02*
X175654062Y-74871196D01*
X175654062Y-74871196D02*
X175625490Y-74756911D01*
X175625490Y-74756911D02*
X175596919Y-74699768D01*
X175596919Y-74699768D02*
X175568348Y-74671196D01*
X175568348Y-74671196D02*
X175511205Y-74642625D01*
X196064918Y-96026024D02*
X196093490Y-96054596D01*
X196093490Y-96054596D02*
X196179204Y-96083167D01*
X196179204Y-96083167D02*
X196236347Y-96083167D01*
X196236347Y-96083167D02*
X196322061Y-96054596D01*
X196322061Y-96054596D02*
X196379204Y-95997453D01*
X196379204Y-95997453D02*
X196407775Y-95940310D01*
X196407775Y-95940310D02*
X196436347Y-95826024D01*
X196436347Y-95826024D02*
X196436347Y-95740310D01*
X196436347Y-95740310D02*
X196407775Y-95626024D01*
X196407775Y-95626024D02*
X196379204Y-95568881D01*
X196379204Y-95568881D02*
X196322061Y-95511738D01*
X196322061Y-95511738D02*
X196236347Y-95483167D01*
X196236347Y-95483167D02*
X196179204Y-95483167D01*
X196179204Y-95483167D02*
X196093490Y-95511738D01*
X196093490Y-95511738D02*
X196064918Y-95540310D01*
X195864918Y-95483167D02*
X195493490Y-95483167D01*
X195493490Y-95483167D02*
X195693490Y-95711738D01*
X195693490Y-95711738D02*
X195607775Y-95711738D01*
X195607775Y-95711738D02*
X195550633Y-95740310D01*
X195550633Y-95740310D02*
X195522061Y-95768881D01*
X195522061Y-95768881D02*
X195493490Y-95826024D01*
X195493490Y-95826024D02*
X195493490Y-95968881D01*
X195493490Y-95968881D02*
X195522061Y-96026024D01*
X195522061Y-96026024D02*
X195550633Y-96054596D01*
X195550633Y-96054596D02*
X195607775Y-96083167D01*
X195607775Y-96083167D02*
X195779204Y-96083167D01*
X195779204Y-96083167D02*
X195836347Y-96054596D01*
X195836347Y-96054596D02*
X195864918Y-96026024D01*
X195122061Y-95483167D02*
X195064918Y-95483167D01*
X195064918Y-95483167D02*
X195007775Y-95511738D01*
X195007775Y-95511738D02*
X194979204Y-95540310D01*
X194979204Y-95540310D02*
X194950632Y-95597453D01*
X194950632Y-95597453D02*
X194922061Y-95711738D01*
X194922061Y-95711738D02*
X194922061Y-95854596D01*
X194922061Y-95854596D02*
X194950632Y-95968881D01*
X194950632Y-95968881D02*
X194979204Y-96026024D01*
X194979204Y-96026024D02*
X195007775Y-96054596D01*
X195007775Y-96054596D02*
X195064918Y-96083167D01*
X195064918Y-96083167D02*
X195122061Y-96083167D01*
X195122061Y-96083167D02*
X195179204Y-96054596D01*
X195179204Y-96054596D02*
X195207775Y-96026024D01*
X195207775Y-96026024D02*
X195236346Y-95968881D01*
X195236346Y-95968881D02*
X195264918Y-95854596D01*
X195264918Y-95854596D02*
X195264918Y-95711738D01*
X195264918Y-95711738D02*
X195236346Y-95597453D01*
X195236346Y-95597453D02*
X195207775Y-95540310D01*
X195207775Y-95540310D02*
X195179204Y-95511738D01*
X195179204Y-95511738D02*
X195122061Y-95483167D01*
X176264917Y-53146026D02*
X176293489Y-53174598D01*
X176293489Y-53174598D02*
X176379203Y-53203169D01*
X176379203Y-53203169D02*
X176436346Y-53203169D01*
X176436346Y-53203169D02*
X176522060Y-53174598D01*
X176522060Y-53174598D02*
X176579203Y-53117455D01*
X176579203Y-53117455D02*
X176607774Y-53060312D01*
X176607774Y-53060312D02*
X176636346Y-52946026D01*
X176636346Y-52946026D02*
X176636346Y-52860312D01*
X176636346Y-52860312D02*
X176607774Y-52746026D01*
X176607774Y-52746026D02*
X176579203Y-52688883D01*
X176579203Y-52688883D02*
X176522060Y-52631740D01*
X176522060Y-52631740D02*
X176436346Y-52603169D01*
X176436346Y-52603169D02*
X176379203Y-52603169D01*
X176379203Y-52603169D02*
X176293489Y-52631740D01*
X176293489Y-52631740D02*
X176264917Y-52660312D01*
X175750632Y-52603169D02*
X175864917Y-52603169D01*
X175864917Y-52603169D02*
X175922060Y-52631740D01*
X175922060Y-52631740D02*
X175950632Y-52660312D01*
X175950632Y-52660312D02*
X176007774Y-52746026D01*
X176007774Y-52746026D02*
X176036346Y-52860312D01*
X176036346Y-52860312D02*
X176036346Y-53088883D01*
X176036346Y-53088883D02*
X176007774Y-53146026D01*
X176007774Y-53146026D02*
X175979203Y-53174598D01*
X175979203Y-53174598D02*
X175922060Y-53203169D01*
X175922060Y-53203169D02*
X175807774Y-53203169D01*
X175807774Y-53203169D02*
X175750632Y-53174598D01*
X175750632Y-53174598D02*
X175722060Y-53146026D01*
X175722060Y-53146026D02*
X175693489Y-53088883D01*
X175693489Y-53088883D02*
X175693489Y-52946026D01*
X175693489Y-52946026D02*
X175722060Y-52888883D01*
X175722060Y-52888883D02*
X175750632Y-52860312D01*
X175750632Y-52860312D02*
X175807774Y-52831740D01*
X175807774Y-52831740D02*
X175922060Y-52831740D01*
X175922060Y-52831740D02*
X175979203Y-52860312D01*
X175979203Y-52860312D02*
X176007774Y-52888883D01*
X176007774Y-52888883D02*
X176036346Y-52946026D01*
X175407774Y-53203169D02*
X175293488Y-53203169D01*
X175293488Y-53203169D02*
X175236345Y-53174598D01*
X175236345Y-53174598D02*
X175207774Y-53146026D01*
X175207774Y-53146026D02*
X175150631Y-53060312D01*
X175150631Y-53060312D02*
X175122060Y-52946026D01*
X175122060Y-52946026D02*
X175122060Y-52717455D01*
X175122060Y-52717455D02*
X175150631Y-52660312D01*
X175150631Y-52660312D02*
X175179203Y-52631740D01*
X175179203Y-52631740D02*
X175236345Y-52603169D01*
X175236345Y-52603169D02*
X175350631Y-52603169D01*
X175350631Y-52603169D02*
X175407774Y-52631740D01*
X175407774Y-52631740D02*
X175436345Y-52660312D01*
X175436345Y-52660312D02*
X175464917Y-52717455D01*
X175464917Y-52717455D02*
X175464917Y-52860312D01*
X175464917Y-52860312D02*
X175436345Y-52917455D01*
X175436345Y-52917455D02*
X175407774Y-52946026D01*
X175407774Y-52946026D02*
X175350631Y-52974598D01*
X175350631Y-52974598D02*
X175236345Y-52974598D01*
X175236345Y-52974598D02*
X175179203Y-52946026D01*
X175179203Y-52946026D02*
X175150631Y-52917455D01*
X175150631Y-52917455D02*
X175122060Y-52860312D01*
X178974916Y-74953168D02*
X179174916Y-74667454D01*
X179317773Y-74953168D02*
X179317773Y-74353168D01*
X179317773Y-74353168D02*
X179089202Y-74353168D01*
X179089202Y-74353168D02*
X179032059Y-74381739D01*
X179032059Y-74381739D02*
X179003488Y-74410311D01*
X179003488Y-74410311D02*
X178974916Y-74467454D01*
X178974916Y-74467454D02*
X178974916Y-74553168D01*
X178974916Y-74553168D02*
X179003488Y-74610311D01*
X179003488Y-74610311D02*
X179032059Y-74638882D01*
X179032059Y-74638882D02*
X179089202Y-74667454D01*
X179089202Y-74667454D02*
X179317773Y-74667454D01*
X178746345Y-74410311D02*
X178717773Y-74381739D01*
X178717773Y-74381739D02*
X178660631Y-74353168D01*
X178660631Y-74353168D02*
X178517773Y-74353168D01*
X178517773Y-74353168D02*
X178460631Y-74381739D01*
X178460631Y-74381739D02*
X178432059Y-74410311D01*
X178432059Y-74410311D02*
X178403488Y-74467454D01*
X178403488Y-74467454D02*
X178403488Y-74524597D01*
X178403488Y-74524597D02*
X178432059Y-74610311D01*
X178432059Y-74610311D02*
X178774916Y-74953168D01*
X178774916Y-74953168D02*
X178403488Y-74953168D01*
X178060630Y-74610311D02*
X178117773Y-74581739D01*
X178117773Y-74581739D02*
X178146344Y-74553168D01*
X178146344Y-74553168D02*
X178174916Y-74496025D01*
X178174916Y-74496025D02*
X178174916Y-74467454D01*
X178174916Y-74467454D02*
X178146344Y-74410311D01*
X178146344Y-74410311D02*
X178117773Y-74381739D01*
X178117773Y-74381739D02*
X178060630Y-74353168D01*
X178060630Y-74353168D02*
X177946344Y-74353168D01*
X177946344Y-74353168D02*
X177889202Y-74381739D01*
X177889202Y-74381739D02*
X177860630Y-74410311D01*
X177860630Y-74410311D02*
X177832059Y-74467454D01*
X177832059Y-74467454D02*
X177832059Y-74496025D01*
X177832059Y-74496025D02*
X177860630Y-74553168D01*
X177860630Y-74553168D02*
X177889202Y-74581739D01*
X177889202Y-74581739D02*
X177946344Y-74610311D01*
X177946344Y-74610311D02*
X178060630Y-74610311D01*
X178060630Y-74610311D02*
X178117773Y-74638882D01*
X178117773Y-74638882D02*
X178146344Y-74667454D01*
X178146344Y-74667454D02*
X178174916Y-74724597D01*
X178174916Y-74724597D02*
X178174916Y-74838882D01*
X178174916Y-74838882D02*
X178146344Y-74896025D01*
X178146344Y-74896025D02*
X178117773Y-74924597D01*
X178117773Y-74924597D02*
X178060630Y-74953168D01*
X178060630Y-74953168D02*
X177946344Y-74953168D01*
X177946344Y-74953168D02*
X177889202Y-74924597D01*
X177889202Y-74924597D02*
X177860630Y-74896025D01*
X177860630Y-74896025D02*
X177832059Y-74838882D01*
X177832059Y-74838882D02*
X177832059Y-74724597D01*
X177832059Y-74724597D02*
X177860630Y-74667454D01*
X177860630Y-74667454D02*
X177889202Y-74638882D01*
X177889202Y-74638882D02*
X177946344Y-74610311D01*
X191079202Y-71883168D02*
X191279202Y-71597454D01*
X191422059Y-71883168D02*
X191422059Y-71283168D01*
X191422059Y-71283168D02*
X191193488Y-71283168D01*
X191193488Y-71283168D02*
X191136345Y-71311739D01*
X191136345Y-71311739D02*
X191107774Y-71340311D01*
X191107774Y-71340311D02*
X191079202Y-71397454D01*
X191079202Y-71397454D02*
X191079202Y-71483168D01*
X191079202Y-71483168D02*
X191107774Y-71540311D01*
X191107774Y-71540311D02*
X191136345Y-71568882D01*
X191136345Y-71568882D02*
X191193488Y-71597454D01*
X191193488Y-71597454D02*
X191422059Y-71597454D01*
X190879202Y-71283168D02*
X190507774Y-71283168D01*
X190507774Y-71283168D02*
X190707774Y-71511739D01*
X190707774Y-71511739D02*
X190622059Y-71511739D01*
X190622059Y-71511739D02*
X190564917Y-71540311D01*
X190564917Y-71540311D02*
X190536345Y-71568882D01*
X190536345Y-71568882D02*
X190507774Y-71626025D01*
X190507774Y-71626025D02*
X190507774Y-71768882D01*
X190507774Y-71768882D02*
X190536345Y-71826025D01*
X190536345Y-71826025D02*
X190564917Y-71854597D01*
X190564917Y-71854597D02*
X190622059Y-71883168D01*
X190622059Y-71883168D02*
X190793488Y-71883168D01*
X190793488Y-71883168D02*
X190850631Y-71854597D01*
X190850631Y-71854597D02*
X190879202Y-71826025D01*
X170127576Y-64380539D02*
X170156148Y-64351967D01*
X170156148Y-64351967D02*
X170184719Y-64266253D01*
X170184719Y-64266253D02*
X170184719Y-64209110D01*
X170184719Y-64209110D02*
X170156148Y-64123396D01*
X170156148Y-64123396D02*
X170099005Y-64066253D01*
X170099005Y-64066253D02*
X170041862Y-64037682D01*
X170041862Y-64037682D02*
X169927576Y-64009110D01*
X169927576Y-64009110D02*
X169841862Y-64009110D01*
X169841862Y-64009110D02*
X169727576Y-64037682D01*
X169727576Y-64037682D02*
X169670433Y-64066253D01*
X169670433Y-64066253D02*
X169613290Y-64123396D01*
X169613290Y-64123396D02*
X169584719Y-64209110D01*
X169584719Y-64209110D02*
X169584719Y-64266253D01*
X169584719Y-64266253D02*
X169613290Y-64351967D01*
X169613290Y-64351967D02*
X169641862Y-64380539D01*
X169584719Y-64894825D02*
X169584719Y-64780539D01*
X169584719Y-64780539D02*
X169613290Y-64723396D01*
X169613290Y-64723396D02*
X169641862Y-64694825D01*
X169641862Y-64694825D02*
X169727576Y-64637682D01*
X169727576Y-64637682D02*
X169841862Y-64609110D01*
X169841862Y-64609110D02*
X170070433Y-64609110D01*
X170070433Y-64609110D02*
X170127576Y-64637682D01*
X170127576Y-64637682D02*
X170156148Y-64666253D01*
X170156148Y-64666253D02*
X170184719Y-64723396D01*
X170184719Y-64723396D02*
X170184719Y-64837682D01*
X170184719Y-64837682D02*
X170156148Y-64894825D01*
X170156148Y-64894825D02*
X170127576Y-64923396D01*
X170127576Y-64923396D02*
X170070433Y-64951967D01*
X170070433Y-64951967D02*
X169927576Y-64951967D01*
X169927576Y-64951967D02*
X169870433Y-64923396D01*
X169870433Y-64923396D02*
X169841862Y-64894825D01*
X169841862Y-64894825D02*
X169813290Y-64837682D01*
X169813290Y-64837682D02*
X169813290Y-64723396D01*
X169813290Y-64723396D02*
X169841862Y-64666253D01*
X169841862Y-64666253D02*
X169870433Y-64637682D01*
X169870433Y-64637682D02*
X169927576Y-64609110D01*
X169584719Y-65151968D02*
X169584719Y-65523396D01*
X169584719Y-65523396D02*
X169813290Y-65323396D01*
X169813290Y-65323396D02*
X169813290Y-65409111D01*
X169813290Y-65409111D02*
X169841862Y-65466254D01*
X169841862Y-65466254D02*
X169870433Y-65494825D01*
X169870433Y-65494825D02*
X169927576Y-65523396D01*
X169927576Y-65523396D02*
X170070433Y-65523396D01*
X170070433Y-65523396D02*
X170127576Y-65494825D01*
X170127576Y-65494825D02*
X170156148Y-65466254D01*
X170156148Y-65466254D02*
X170184719Y-65409111D01*
X170184719Y-65409111D02*
X170184719Y-65237682D01*
X170184719Y-65237682D02*
X170156148Y-65180539D01*
X170156148Y-65180539D02*
X170127576Y-65151968D01*
X194302062Y-59825482D02*
X194330634Y-59854054D01*
X194330634Y-59854054D02*
X194416348Y-59882625D01*
X194416348Y-59882625D02*
X194473491Y-59882625D01*
X194473491Y-59882625D02*
X194559205Y-59854054D01*
X194559205Y-59854054D02*
X194616348Y-59796911D01*
X194616348Y-59796911D02*
X194644919Y-59739768D01*
X194644919Y-59739768D02*
X194673491Y-59625482D01*
X194673491Y-59625482D02*
X194673491Y-59539768D01*
X194673491Y-59539768D02*
X194644919Y-59425482D01*
X194644919Y-59425482D02*
X194616348Y-59368339D01*
X194616348Y-59368339D02*
X194559205Y-59311196D01*
X194559205Y-59311196D02*
X194473491Y-59282625D01*
X194473491Y-59282625D02*
X194416348Y-59282625D01*
X194416348Y-59282625D02*
X194330634Y-59311196D01*
X194330634Y-59311196D02*
X194302062Y-59339768D01*
X193759205Y-59282625D02*
X194044919Y-59282625D01*
X194044919Y-59282625D02*
X194073491Y-59568339D01*
X194073491Y-59568339D02*
X194044919Y-59539768D01*
X194044919Y-59539768D02*
X193987777Y-59511196D01*
X193987777Y-59511196D02*
X193844919Y-59511196D01*
X193844919Y-59511196D02*
X193787777Y-59539768D01*
X193787777Y-59539768D02*
X193759205Y-59568339D01*
X193759205Y-59568339D02*
X193730634Y-59625482D01*
X193730634Y-59625482D02*
X193730634Y-59768339D01*
X193730634Y-59768339D02*
X193759205Y-59825482D01*
X193759205Y-59825482D02*
X193787777Y-59854054D01*
X193787777Y-59854054D02*
X193844919Y-59882625D01*
X193844919Y-59882625D02*
X193987777Y-59882625D01*
X193987777Y-59882625D02*
X194044919Y-59854054D01*
X194044919Y-59854054D02*
X194073491Y-59825482D01*
X193387776Y-59539768D02*
X193444919Y-59511196D01*
X193444919Y-59511196D02*
X193473490Y-59482625D01*
X193473490Y-59482625D02*
X193502062Y-59425482D01*
X193502062Y-59425482D02*
X193502062Y-59396911D01*
X193502062Y-59396911D02*
X193473490Y-59339768D01*
X193473490Y-59339768D02*
X193444919Y-59311196D01*
X193444919Y-59311196D02*
X193387776Y-59282625D01*
X193387776Y-59282625D02*
X193273490Y-59282625D01*
X193273490Y-59282625D02*
X193216348Y-59311196D01*
X193216348Y-59311196D02*
X193187776Y-59339768D01*
X193187776Y-59339768D02*
X193159205Y-59396911D01*
X193159205Y-59396911D02*
X193159205Y-59425482D01*
X193159205Y-59425482D02*
X193187776Y-59482625D01*
X193187776Y-59482625D02*
X193216348Y-59511196D01*
X193216348Y-59511196D02*
X193273490Y-59539768D01*
X193273490Y-59539768D02*
X193387776Y-59539768D01*
X193387776Y-59539768D02*
X193444919Y-59568339D01*
X193444919Y-59568339D02*
X193473490Y-59596911D01*
X193473490Y-59596911D02*
X193502062Y-59654054D01*
X193502062Y-59654054D02*
X193502062Y-59768339D01*
X193502062Y-59768339D02*
X193473490Y-59825482D01*
X193473490Y-59825482D02*
X193444919Y-59854054D01*
X193444919Y-59854054D02*
X193387776Y-59882625D01*
X193387776Y-59882625D02*
X193273490Y-59882625D01*
X193273490Y-59882625D02*
X193216348Y-59854054D01*
X193216348Y-59854054D02*
X193187776Y-59825482D01*
X193187776Y-59825482D02*
X193159205Y-59768339D01*
X193159205Y-59768339D02*
X193159205Y-59654054D01*
X193159205Y-59654054D02*
X193187776Y-59596911D01*
X193187776Y-59596911D02*
X193216348Y-59568339D01*
X193216348Y-59568339D02*
X193273490Y-59539768D01*
X174364917Y-61026025D02*
X174393489Y-61054597D01*
X174393489Y-61054597D02*
X174479203Y-61083168D01*
X174479203Y-61083168D02*
X174536346Y-61083168D01*
X174536346Y-61083168D02*
X174622060Y-61054597D01*
X174622060Y-61054597D02*
X174679203Y-60997454D01*
X174679203Y-60997454D02*
X174707774Y-60940311D01*
X174707774Y-60940311D02*
X174736346Y-60826025D01*
X174736346Y-60826025D02*
X174736346Y-60740311D01*
X174736346Y-60740311D02*
X174707774Y-60626025D01*
X174707774Y-60626025D02*
X174679203Y-60568882D01*
X174679203Y-60568882D02*
X174622060Y-60511739D01*
X174622060Y-60511739D02*
X174536346Y-60483168D01*
X174536346Y-60483168D02*
X174479203Y-60483168D01*
X174479203Y-60483168D02*
X174393489Y-60511739D01*
X174393489Y-60511739D02*
X174364917Y-60540311D01*
X173850632Y-60683168D02*
X173850632Y-61083168D01*
X173993489Y-60454597D02*
X174136346Y-60883168D01*
X174136346Y-60883168D02*
X173764917Y-60883168D01*
X173279203Y-60683168D02*
X173279203Y-61083168D01*
X173422060Y-60454597D02*
X173564917Y-60883168D01*
X173564917Y-60883168D02*
X173193488Y-60883168D01*
X194264917Y-99426025D02*
X194293489Y-99454597D01*
X194293489Y-99454597D02*
X194379203Y-99483168D01*
X194379203Y-99483168D02*
X194436346Y-99483168D01*
X194436346Y-99483168D02*
X194522060Y-99454597D01*
X194522060Y-99454597D02*
X194579203Y-99397454D01*
X194579203Y-99397454D02*
X194607774Y-99340311D01*
X194607774Y-99340311D02*
X194636346Y-99226025D01*
X194636346Y-99226025D02*
X194636346Y-99140311D01*
X194636346Y-99140311D02*
X194607774Y-99026025D01*
X194607774Y-99026025D02*
X194579203Y-98968882D01*
X194579203Y-98968882D02*
X194522060Y-98911739D01*
X194522060Y-98911739D02*
X194436346Y-98883168D01*
X194436346Y-98883168D02*
X194379203Y-98883168D01*
X194379203Y-98883168D02*
X194293489Y-98911739D01*
X194293489Y-98911739D02*
X194264917Y-98940311D01*
X193750632Y-99083168D02*
X193750632Y-99483168D01*
X193893489Y-98854597D02*
X194036346Y-99283168D01*
X194036346Y-99283168D02*
X193664917Y-99283168D01*
X193322060Y-98883168D02*
X193264917Y-98883168D01*
X193264917Y-98883168D02*
X193207774Y-98911739D01*
X193207774Y-98911739D02*
X193179203Y-98940311D01*
X193179203Y-98940311D02*
X193150631Y-98997454D01*
X193150631Y-98997454D02*
X193122060Y-99111739D01*
X193122060Y-99111739D02*
X193122060Y-99254597D01*
X193122060Y-99254597D02*
X193150631Y-99368882D01*
X193150631Y-99368882D02*
X193179203Y-99426025D01*
X193179203Y-99426025D02*
X193207774Y-99454597D01*
X193207774Y-99454597D02*
X193264917Y-99483168D01*
X193264917Y-99483168D02*
X193322060Y-99483168D01*
X193322060Y-99483168D02*
X193379203Y-99454597D01*
X193379203Y-99454597D02*
X193407774Y-99426025D01*
X193407774Y-99426025D02*
X193436345Y-99368882D01*
X193436345Y-99368882D02*
X193464917Y-99254597D01*
X193464917Y-99254597D02*
X193464917Y-99111739D01*
X193464917Y-99111739D02*
X193436345Y-98997454D01*
X193436345Y-98997454D02*
X193407774Y-98940311D01*
X193407774Y-98940311D02*
X193379203Y-98911739D01*
X193379203Y-98911739D02*
X193322060Y-98883168D01*
X169664917Y-54826025D02*
X169693489Y-54854597D01*
X169693489Y-54854597D02*
X169779203Y-54883168D01*
X169779203Y-54883168D02*
X169836346Y-54883168D01*
X169836346Y-54883168D02*
X169922060Y-54854597D01*
X169922060Y-54854597D02*
X169979203Y-54797454D01*
X169979203Y-54797454D02*
X170007774Y-54740311D01*
X170007774Y-54740311D02*
X170036346Y-54626025D01*
X170036346Y-54626025D02*
X170036346Y-54540311D01*
X170036346Y-54540311D02*
X170007774Y-54426025D01*
X170007774Y-54426025D02*
X169979203Y-54368882D01*
X169979203Y-54368882D02*
X169922060Y-54311739D01*
X169922060Y-54311739D02*
X169836346Y-54283168D01*
X169836346Y-54283168D02*
X169779203Y-54283168D01*
X169779203Y-54283168D02*
X169693489Y-54311739D01*
X169693489Y-54311739D02*
X169664917Y-54340311D01*
X169150632Y-54283168D02*
X169264917Y-54283168D01*
X169264917Y-54283168D02*
X169322060Y-54311739D01*
X169322060Y-54311739D02*
X169350632Y-54340311D01*
X169350632Y-54340311D02*
X169407774Y-54426025D01*
X169407774Y-54426025D02*
X169436346Y-54540311D01*
X169436346Y-54540311D02*
X169436346Y-54768882D01*
X169436346Y-54768882D02*
X169407774Y-54826025D01*
X169407774Y-54826025D02*
X169379203Y-54854597D01*
X169379203Y-54854597D02*
X169322060Y-54883168D01*
X169322060Y-54883168D02*
X169207774Y-54883168D01*
X169207774Y-54883168D02*
X169150632Y-54854597D01*
X169150632Y-54854597D02*
X169122060Y-54826025D01*
X169122060Y-54826025D02*
X169093489Y-54768882D01*
X169093489Y-54768882D02*
X169093489Y-54626025D01*
X169093489Y-54626025D02*
X169122060Y-54568882D01*
X169122060Y-54568882D02*
X169150632Y-54540311D01*
X169150632Y-54540311D02*
X169207774Y-54511739D01*
X169207774Y-54511739D02*
X169322060Y-54511739D01*
X169322060Y-54511739D02*
X169379203Y-54540311D01*
X169379203Y-54540311D02*
X169407774Y-54568882D01*
X169407774Y-54568882D02*
X169436346Y-54626025D01*
X168750631Y-54540311D02*
X168807774Y-54511739D01*
X168807774Y-54511739D02*
X168836345Y-54483168D01*
X168836345Y-54483168D02*
X168864917Y-54426025D01*
X168864917Y-54426025D02*
X168864917Y-54397454D01*
X168864917Y-54397454D02*
X168836345Y-54340311D01*
X168836345Y-54340311D02*
X168807774Y-54311739D01*
X168807774Y-54311739D02*
X168750631Y-54283168D01*
X168750631Y-54283168D02*
X168636345Y-54283168D01*
X168636345Y-54283168D02*
X168579203Y-54311739D01*
X168579203Y-54311739D02*
X168550631Y-54340311D01*
X168550631Y-54340311D02*
X168522060Y-54397454D01*
X168522060Y-54397454D02*
X168522060Y-54426025D01*
X168522060Y-54426025D02*
X168550631Y-54483168D01*
X168550631Y-54483168D02*
X168579203Y-54511739D01*
X168579203Y-54511739D02*
X168636345Y-54540311D01*
X168636345Y-54540311D02*
X168750631Y-54540311D01*
X168750631Y-54540311D02*
X168807774Y-54568882D01*
X168807774Y-54568882D02*
X168836345Y-54597454D01*
X168836345Y-54597454D02*
X168864917Y-54654597D01*
X168864917Y-54654597D02*
X168864917Y-54768882D01*
X168864917Y-54768882D02*
X168836345Y-54826025D01*
X168836345Y-54826025D02*
X168807774Y-54854597D01*
X168807774Y-54854597D02*
X168750631Y-54883168D01*
X168750631Y-54883168D02*
X168636345Y-54883168D01*
X168636345Y-54883168D02*
X168579203Y-54854597D01*
X168579203Y-54854597D02*
X168550631Y-54826025D01*
X168550631Y-54826025D02*
X168522060Y-54768882D01*
X168522060Y-54768882D02*
X168522060Y-54654597D01*
X168522060Y-54654597D02*
X168550631Y-54597454D01*
X168550631Y-54597454D02*
X168579203Y-54568882D01*
X168579203Y-54568882D02*
X168636345Y-54540311D01*
X177864918Y-66906025D02*
X177893490Y-66934597D01*
X177893490Y-66934597D02*
X177979204Y-66963168D01*
X177979204Y-66963168D02*
X178036347Y-66963168D01*
X178036347Y-66963168D02*
X178122061Y-66934597D01*
X178122061Y-66934597D02*
X178179204Y-66877454D01*
X178179204Y-66877454D02*
X178207775Y-66820311D01*
X178207775Y-66820311D02*
X178236347Y-66706025D01*
X178236347Y-66706025D02*
X178236347Y-66620311D01*
X178236347Y-66620311D02*
X178207775Y-66506025D01*
X178207775Y-66506025D02*
X178179204Y-66448882D01*
X178179204Y-66448882D02*
X178122061Y-66391739D01*
X178122061Y-66391739D02*
X178036347Y-66363168D01*
X178036347Y-66363168D02*
X177979204Y-66363168D01*
X177979204Y-66363168D02*
X177893490Y-66391739D01*
X177893490Y-66391739D02*
X177864918Y-66420311D01*
X177664918Y-66363168D02*
X177264918Y-66363168D01*
X177264918Y-66363168D02*
X177522061Y-66963168D01*
X176750632Y-66363168D02*
X177036346Y-66363168D01*
X177036346Y-66363168D02*
X177064918Y-66648882D01*
X177064918Y-66648882D02*
X177036346Y-66620311D01*
X177036346Y-66620311D02*
X176979204Y-66591739D01*
X176979204Y-66591739D02*
X176836346Y-66591739D01*
X176836346Y-66591739D02*
X176779204Y-66620311D01*
X176779204Y-66620311D02*
X176750632Y-66648882D01*
X176750632Y-66648882D02*
X176722061Y-66706025D01*
X176722061Y-66706025D02*
X176722061Y-66848882D01*
X176722061Y-66848882D02*
X176750632Y-66906025D01*
X176750632Y-66906025D02*
X176779204Y-66934597D01*
X176779204Y-66934597D02*
X176836346Y-66963168D01*
X176836346Y-66963168D02*
X176979204Y-66963168D01*
X176979204Y-66963168D02*
X177036346Y-66934597D01*
X177036346Y-66934597D02*
X177064918Y-66906025D01*
X178064917Y-101426025D02*
X178093489Y-101454597D01*
X178093489Y-101454597D02*
X178179203Y-101483168D01*
X178179203Y-101483168D02*
X178236346Y-101483168D01*
X178236346Y-101483168D02*
X178322060Y-101454597D01*
X178322060Y-101454597D02*
X178379203Y-101397454D01*
X178379203Y-101397454D02*
X178407774Y-101340311D01*
X178407774Y-101340311D02*
X178436346Y-101226025D01*
X178436346Y-101226025D02*
X178436346Y-101140311D01*
X178436346Y-101140311D02*
X178407774Y-101026025D01*
X178407774Y-101026025D02*
X178379203Y-100968882D01*
X178379203Y-100968882D02*
X178322060Y-100911739D01*
X178322060Y-100911739D02*
X178236346Y-100883168D01*
X178236346Y-100883168D02*
X178179203Y-100883168D01*
X178179203Y-100883168D02*
X178093489Y-100911739D01*
X178093489Y-100911739D02*
X178064917Y-100940311D01*
X177864917Y-100883168D02*
X177493489Y-100883168D01*
X177493489Y-100883168D02*
X177693489Y-101111739D01*
X177693489Y-101111739D02*
X177607774Y-101111739D01*
X177607774Y-101111739D02*
X177550632Y-101140311D01*
X177550632Y-101140311D02*
X177522060Y-101168882D01*
X177522060Y-101168882D02*
X177493489Y-101226025D01*
X177493489Y-101226025D02*
X177493489Y-101368882D01*
X177493489Y-101368882D02*
X177522060Y-101426025D01*
X177522060Y-101426025D02*
X177550632Y-101454597D01*
X177550632Y-101454597D02*
X177607774Y-101483168D01*
X177607774Y-101483168D02*
X177779203Y-101483168D01*
X177779203Y-101483168D02*
X177836346Y-101454597D01*
X177836346Y-101454597D02*
X177864917Y-101426025D01*
X177293488Y-100883168D02*
X176922060Y-100883168D01*
X176922060Y-100883168D02*
X177122060Y-101111739D01*
X177122060Y-101111739D02*
X177036345Y-101111739D01*
X177036345Y-101111739D02*
X176979203Y-101140311D01*
X176979203Y-101140311D02*
X176950631Y-101168882D01*
X176950631Y-101168882D02*
X176922060Y-101226025D01*
X176922060Y-101226025D02*
X176922060Y-101368882D01*
X176922060Y-101368882D02*
X176950631Y-101426025D01*
X176950631Y-101426025D02*
X176979203Y-101454597D01*
X176979203Y-101454597D02*
X177036345Y-101483168D01*
X177036345Y-101483168D02*
X177207774Y-101483168D01*
X177207774Y-101483168D02*
X177264917Y-101454597D01*
X177264917Y-101454597D02*
X177293488Y-101426025D01*
X186494430Y-68675082D02*
X186523002Y-68646510D01*
X186523002Y-68646510D02*
X186551573Y-68560796D01*
X186551573Y-68560796D02*
X186551573Y-68503653D01*
X186551573Y-68503653D02*
X186523002Y-68417939D01*
X186523002Y-68417939D02*
X186465859Y-68360796D01*
X186465859Y-68360796D02*
X186408716Y-68332225D01*
X186408716Y-68332225D02*
X186294430Y-68303653D01*
X186294430Y-68303653D02*
X186208716Y-68303653D01*
X186208716Y-68303653D02*
X186094430Y-68332225D01*
X186094430Y-68332225D02*
X186037287Y-68360796D01*
X186037287Y-68360796D02*
X185980144Y-68417939D01*
X185980144Y-68417939D02*
X185951573Y-68503653D01*
X185951573Y-68503653D02*
X185951573Y-68560796D01*
X185951573Y-68560796D02*
X185980144Y-68646510D01*
X185980144Y-68646510D02*
X186008716Y-68675082D01*
X185951573Y-68875082D02*
X185951573Y-69275082D01*
X185951573Y-69275082D02*
X186551573Y-69017939D01*
X186551573Y-69817939D02*
X186551573Y-69475082D01*
X186551573Y-69646511D02*
X185951573Y-69646511D01*
X185951573Y-69646511D02*
X186037287Y-69589368D01*
X186037287Y-69589368D02*
X186094430Y-69532225D01*
X186094430Y-69532225D02*
X186123002Y-69475082D01*
X174014432Y-75625083D02*
X174043004Y-75596511D01*
X174043004Y-75596511D02*
X174071575Y-75510797D01*
X174071575Y-75510797D02*
X174071575Y-75453654D01*
X174071575Y-75453654D02*
X174043004Y-75367940D01*
X174043004Y-75367940D02*
X173985861Y-75310797D01*
X173985861Y-75310797D02*
X173928718Y-75282226D01*
X173928718Y-75282226D02*
X173814432Y-75253654D01*
X173814432Y-75253654D02*
X173728718Y-75253654D01*
X173728718Y-75253654D02*
X173614432Y-75282226D01*
X173614432Y-75282226D02*
X173557289Y-75310797D01*
X173557289Y-75310797D02*
X173500146Y-75367940D01*
X173500146Y-75367940D02*
X173471575Y-75453654D01*
X173471575Y-75453654D02*
X173471575Y-75510797D01*
X173471575Y-75510797D02*
X173500146Y-75596511D01*
X173500146Y-75596511D02*
X173528718Y-75625083D01*
X173728718Y-75967940D02*
X173700146Y-75910797D01*
X173700146Y-75910797D02*
X173671575Y-75882226D01*
X173671575Y-75882226D02*
X173614432Y-75853654D01*
X173614432Y-75853654D02*
X173585861Y-75853654D01*
X173585861Y-75853654D02*
X173528718Y-75882226D01*
X173528718Y-75882226D02*
X173500146Y-75910797D01*
X173500146Y-75910797D02*
X173471575Y-75967940D01*
X173471575Y-75967940D02*
X173471575Y-76082226D01*
X173471575Y-76082226D02*
X173500146Y-76139369D01*
X173500146Y-76139369D02*
X173528718Y-76167940D01*
X173528718Y-76167940D02*
X173585861Y-76196511D01*
X173585861Y-76196511D02*
X173614432Y-76196511D01*
X173614432Y-76196511D02*
X173671575Y-76167940D01*
X173671575Y-76167940D02*
X173700146Y-76139369D01*
X173700146Y-76139369D02*
X173728718Y-76082226D01*
X173728718Y-76082226D02*
X173728718Y-75967940D01*
X173728718Y-75967940D02*
X173757289Y-75910797D01*
X173757289Y-75910797D02*
X173785861Y-75882226D01*
X173785861Y-75882226D02*
X173843004Y-75853654D01*
X173843004Y-75853654D02*
X173957289Y-75853654D01*
X173957289Y-75853654D02*
X174014432Y-75882226D01*
X174014432Y-75882226D02*
X174043004Y-75910797D01*
X174043004Y-75910797D02*
X174071575Y-75967940D01*
X174071575Y-75967940D02*
X174071575Y-76082226D01*
X174071575Y-76082226D02*
X174043004Y-76139369D01*
X174043004Y-76139369D02*
X174014432Y-76167940D01*
X174014432Y-76167940D02*
X173957289Y-76196511D01*
X173957289Y-76196511D02*
X173843004Y-76196511D01*
X173843004Y-76196511D02*
X173785861Y-76167940D01*
X173785861Y-76167940D02*
X173757289Y-76139369D01*
X173757289Y-76139369D02*
X173728718Y-76082226D01*
X173528718Y-76425083D02*
X173500146Y-76453655D01*
X173500146Y-76453655D02*
X173471575Y-76510798D01*
X173471575Y-76510798D02*
X173471575Y-76653655D01*
X173471575Y-76653655D02*
X173500146Y-76710798D01*
X173500146Y-76710798D02*
X173528718Y-76739369D01*
X173528718Y-76739369D02*
X173585861Y-76767940D01*
X173585861Y-76767940D02*
X173643004Y-76767940D01*
X173643004Y-76767940D02*
X173728718Y-76739369D01*
X173728718Y-76739369D02*
X174071575Y-76396512D01*
X174071575Y-76396512D02*
X174071575Y-76767940D01*
X180064917Y-56626025D02*
X180093489Y-56654597D01*
X180093489Y-56654597D02*
X180179203Y-56683168D01*
X180179203Y-56683168D02*
X180236346Y-56683168D01*
X180236346Y-56683168D02*
X180322060Y-56654597D01*
X180322060Y-56654597D02*
X180379203Y-56597454D01*
X180379203Y-56597454D02*
X180407774Y-56540311D01*
X180407774Y-56540311D02*
X180436346Y-56426025D01*
X180436346Y-56426025D02*
X180436346Y-56340311D01*
X180436346Y-56340311D02*
X180407774Y-56226025D01*
X180407774Y-56226025D02*
X180379203Y-56168882D01*
X180379203Y-56168882D02*
X180322060Y-56111739D01*
X180322060Y-56111739D02*
X180236346Y-56083168D01*
X180236346Y-56083168D02*
X180179203Y-56083168D01*
X180179203Y-56083168D02*
X180093489Y-56111739D01*
X180093489Y-56111739D02*
X180064917Y-56140311D01*
X179550632Y-56283168D02*
X179550632Y-56683168D01*
X179693489Y-56054597D02*
X179836346Y-56483168D01*
X179836346Y-56483168D02*
X179464917Y-56483168D01*
X179207774Y-56683168D02*
X179093488Y-56683168D01*
X179093488Y-56683168D02*
X179036345Y-56654597D01*
X179036345Y-56654597D02*
X179007774Y-56626025D01*
X179007774Y-56626025D02*
X178950631Y-56540311D01*
X178950631Y-56540311D02*
X178922060Y-56426025D01*
X178922060Y-56426025D02*
X178922060Y-56197454D01*
X178922060Y-56197454D02*
X178950631Y-56140311D01*
X178950631Y-56140311D02*
X178979203Y-56111739D01*
X178979203Y-56111739D02*
X179036345Y-56083168D01*
X179036345Y-56083168D02*
X179150631Y-56083168D01*
X179150631Y-56083168D02*
X179207774Y-56111739D01*
X179207774Y-56111739D02*
X179236345Y-56140311D01*
X179236345Y-56140311D02*
X179264917Y-56197454D01*
X179264917Y-56197454D02*
X179264917Y-56340311D01*
X179264917Y-56340311D02*
X179236345Y-56397454D01*
X179236345Y-56397454D02*
X179207774Y-56426025D01*
X179207774Y-56426025D02*
X179150631Y-56454597D01*
X179150631Y-56454597D02*
X179036345Y-56454597D01*
X179036345Y-56454597D02*
X178979203Y-56426025D01*
X178979203Y-56426025D02*
X178950631Y-56397454D01*
X178950631Y-56397454D02*
X178922060Y-56340311D01*
X181074916Y-72653168D02*
X181274916Y-72367454D01*
X181417773Y-72653168D02*
X181417773Y-72053168D01*
X181417773Y-72053168D02*
X181189202Y-72053168D01*
X181189202Y-72053168D02*
X181132059Y-72081739D01*
X181132059Y-72081739D02*
X181103488Y-72110311D01*
X181103488Y-72110311D02*
X181074916Y-72167454D01*
X181074916Y-72167454D02*
X181074916Y-72253168D01*
X181074916Y-72253168D02*
X181103488Y-72310311D01*
X181103488Y-72310311D02*
X181132059Y-72338882D01*
X181132059Y-72338882D02*
X181189202Y-72367454D01*
X181189202Y-72367454D02*
X181417773Y-72367454D01*
X180874916Y-72053168D02*
X180503488Y-72053168D01*
X180503488Y-72053168D02*
X180703488Y-72281739D01*
X180703488Y-72281739D02*
X180617773Y-72281739D01*
X180617773Y-72281739D02*
X180560631Y-72310311D01*
X180560631Y-72310311D02*
X180532059Y-72338882D01*
X180532059Y-72338882D02*
X180503488Y-72396025D01*
X180503488Y-72396025D02*
X180503488Y-72538882D01*
X180503488Y-72538882D02*
X180532059Y-72596025D01*
X180532059Y-72596025D02*
X180560631Y-72624597D01*
X180560631Y-72624597D02*
X180617773Y-72653168D01*
X180617773Y-72653168D02*
X180789202Y-72653168D01*
X180789202Y-72653168D02*
X180846345Y-72624597D01*
X180846345Y-72624597D02*
X180874916Y-72596025D01*
X180303487Y-72053168D02*
X179903487Y-72053168D01*
X179903487Y-72053168D02*
X180160630Y-72653168D01*
X196264917Y-89026025D02*
X196293489Y-89054597D01*
X196293489Y-89054597D02*
X196379203Y-89083168D01*
X196379203Y-89083168D02*
X196436346Y-89083168D01*
X196436346Y-89083168D02*
X196522060Y-89054597D01*
X196522060Y-89054597D02*
X196579203Y-88997454D01*
X196579203Y-88997454D02*
X196607774Y-88940311D01*
X196607774Y-88940311D02*
X196636346Y-88826025D01*
X196636346Y-88826025D02*
X196636346Y-88740311D01*
X196636346Y-88740311D02*
X196607774Y-88626025D01*
X196607774Y-88626025D02*
X196579203Y-88568882D01*
X196579203Y-88568882D02*
X196522060Y-88511739D01*
X196522060Y-88511739D02*
X196436346Y-88483168D01*
X196436346Y-88483168D02*
X196379203Y-88483168D01*
X196379203Y-88483168D02*
X196293489Y-88511739D01*
X196293489Y-88511739D02*
X196264917Y-88540311D01*
X196036346Y-88540311D02*
X196007774Y-88511739D01*
X196007774Y-88511739D02*
X195950632Y-88483168D01*
X195950632Y-88483168D02*
X195807774Y-88483168D01*
X195807774Y-88483168D02*
X195750632Y-88511739D01*
X195750632Y-88511739D02*
X195722060Y-88540311D01*
X195722060Y-88540311D02*
X195693489Y-88597454D01*
X195693489Y-88597454D02*
X195693489Y-88654597D01*
X195693489Y-88654597D02*
X195722060Y-88740311D01*
X195722060Y-88740311D02*
X196064917Y-89083168D01*
X196064917Y-89083168D02*
X195693489Y-89083168D01*
X195493488Y-88483168D02*
X195122060Y-88483168D01*
X195122060Y-88483168D02*
X195322060Y-88711739D01*
X195322060Y-88711739D02*
X195236345Y-88711739D01*
X195236345Y-88711739D02*
X195179203Y-88740311D01*
X195179203Y-88740311D02*
X195150631Y-88768882D01*
X195150631Y-88768882D02*
X195122060Y-88826025D01*
X195122060Y-88826025D02*
X195122060Y-88968882D01*
X195122060Y-88968882D02*
X195150631Y-89026025D01*
X195150631Y-89026025D02*
X195179203Y-89054597D01*
X195179203Y-89054597D02*
X195236345Y-89083168D01*
X195236345Y-89083168D02*
X195407774Y-89083168D01*
X195407774Y-89083168D02*
X195464917Y-89054597D01*
X195464917Y-89054597D02*
X195493488Y-89026025D01*
X184979202Y-73783168D02*
X185179202Y-73497454D01*
X185322059Y-73783168D02*
X185322059Y-73183168D01*
X185322059Y-73183168D02*
X185093488Y-73183168D01*
X185093488Y-73183168D02*
X185036345Y-73211739D01*
X185036345Y-73211739D02*
X185007774Y-73240311D01*
X185007774Y-73240311D02*
X184979202Y-73297454D01*
X184979202Y-73297454D02*
X184979202Y-73383168D01*
X184979202Y-73383168D02*
X185007774Y-73440311D01*
X185007774Y-73440311D02*
X185036345Y-73468882D01*
X185036345Y-73468882D02*
X185093488Y-73497454D01*
X185093488Y-73497454D02*
X185322059Y-73497454D01*
X184750631Y-73240311D02*
X184722059Y-73211739D01*
X184722059Y-73211739D02*
X184664917Y-73183168D01*
X184664917Y-73183168D02*
X184522059Y-73183168D01*
X184522059Y-73183168D02*
X184464917Y-73211739D01*
X184464917Y-73211739D02*
X184436345Y-73240311D01*
X184436345Y-73240311D02*
X184407774Y-73297454D01*
X184407774Y-73297454D02*
X184407774Y-73354597D01*
X184407774Y-73354597D02*
X184436345Y-73440311D01*
X184436345Y-73440311D02*
X184779202Y-73783168D01*
X184779202Y-73783168D02*
X184407774Y-73783168D01*
X184337576Y-68079539D02*
X184366148Y-68050967D01*
X184366148Y-68050967D02*
X184394719Y-67965253D01*
X184394719Y-67965253D02*
X184394719Y-67908110D01*
X184394719Y-67908110D02*
X184366148Y-67822396D01*
X184366148Y-67822396D02*
X184309005Y-67765253D01*
X184309005Y-67765253D02*
X184251862Y-67736682D01*
X184251862Y-67736682D02*
X184137576Y-67708110D01*
X184137576Y-67708110D02*
X184051862Y-67708110D01*
X184051862Y-67708110D02*
X183937576Y-67736682D01*
X183937576Y-67736682D02*
X183880433Y-67765253D01*
X183880433Y-67765253D02*
X183823290Y-67822396D01*
X183823290Y-67822396D02*
X183794719Y-67908110D01*
X183794719Y-67908110D02*
X183794719Y-67965253D01*
X183794719Y-67965253D02*
X183823290Y-68050967D01*
X183823290Y-68050967D02*
X183851862Y-68079539D01*
X183794719Y-68279539D02*
X183794719Y-68679539D01*
X183794719Y-68679539D02*
X184394719Y-68422396D01*
X183794719Y-68850968D02*
X183794719Y-69222396D01*
X183794719Y-69222396D02*
X184023290Y-69022396D01*
X184023290Y-69022396D02*
X184023290Y-69108111D01*
X184023290Y-69108111D02*
X184051862Y-69165254D01*
X184051862Y-69165254D02*
X184080433Y-69193825D01*
X184080433Y-69193825D02*
X184137576Y-69222396D01*
X184137576Y-69222396D02*
X184280433Y-69222396D01*
X184280433Y-69222396D02*
X184337576Y-69193825D01*
X184337576Y-69193825D02*
X184366148Y-69165254D01*
X184366148Y-69165254D02*
X184394719Y-69108111D01*
X184394719Y-69108111D02*
X184394719Y-68936682D01*
X184394719Y-68936682D02*
X184366148Y-68879539D01*
X184366148Y-68879539D02*
X184337576Y-68850968D01*
X189621574Y-70020796D02*
X189335860Y-69820796D01*
X189621574Y-69677939D02*
X189021574Y-69677939D01*
X189021574Y-69677939D02*
X189021574Y-69906510D01*
X189021574Y-69906510D02*
X189050145Y-69963653D01*
X189050145Y-69963653D02*
X189078717Y-69992224D01*
X189078717Y-69992224D02*
X189135860Y-70020796D01*
X189135860Y-70020796D02*
X189221574Y-70020796D01*
X189221574Y-70020796D02*
X189278717Y-69992224D01*
X189278717Y-69992224D02*
X189307288Y-69963653D01*
X189307288Y-69963653D02*
X189335860Y-69906510D01*
X189335860Y-69906510D02*
X189335860Y-69677939D01*
X189621574Y-70592224D02*
X189621574Y-70249367D01*
X189621574Y-70420796D02*
X189021574Y-70420796D01*
X189021574Y-70420796D02*
X189107288Y-70363653D01*
X189107288Y-70363653D02*
X189164431Y-70306510D01*
X189164431Y-70306510D02*
X189193003Y-70249367D01*
X191479202Y-74626025D02*
X191507774Y-74654597D01*
X191507774Y-74654597D02*
X191593488Y-74683168D01*
X191593488Y-74683168D02*
X191650631Y-74683168D01*
X191650631Y-74683168D02*
X191736345Y-74654597D01*
X191736345Y-74654597D02*
X191793488Y-74597454D01*
X191793488Y-74597454D02*
X191822059Y-74540311D01*
X191822059Y-74540311D02*
X191850631Y-74426025D01*
X191850631Y-74426025D02*
X191850631Y-74340311D01*
X191850631Y-74340311D02*
X191822059Y-74226025D01*
X191822059Y-74226025D02*
X191793488Y-74168882D01*
X191793488Y-74168882D02*
X191736345Y-74111739D01*
X191736345Y-74111739D02*
X191650631Y-74083168D01*
X191650631Y-74083168D02*
X191593488Y-74083168D01*
X191593488Y-74083168D02*
X191507774Y-74111739D01*
X191507774Y-74111739D02*
X191479202Y-74140311D01*
X190907774Y-74683168D02*
X191250631Y-74683168D01*
X191079202Y-74683168D02*
X191079202Y-74083168D01*
X191079202Y-74083168D02*
X191136345Y-74168882D01*
X191136345Y-74168882D02*
X191193488Y-74226025D01*
X191193488Y-74226025D02*
X191250631Y-74254597D01*
X180888918Y-63546025D02*
X180917490Y-63574597D01*
X180917490Y-63574597D02*
X181003204Y-63603168D01*
X181003204Y-63603168D02*
X181060347Y-63603168D01*
X181060347Y-63603168D02*
X181146061Y-63574597D01*
X181146061Y-63574597D02*
X181203204Y-63517454D01*
X181203204Y-63517454D02*
X181231775Y-63460311D01*
X181231775Y-63460311D02*
X181260347Y-63346025D01*
X181260347Y-63346025D02*
X181260347Y-63260311D01*
X181260347Y-63260311D02*
X181231775Y-63146025D01*
X181231775Y-63146025D02*
X181203204Y-63088882D01*
X181203204Y-63088882D02*
X181146061Y-63031739D01*
X181146061Y-63031739D02*
X181060347Y-63003168D01*
X181060347Y-63003168D02*
X181003204Y-63003168D01*
X181003204Y-63003168D02*
X180917490Y-63031739D01*
X180917490Y-63031739D02*
X180888918Y-63060311D01*
X180688918Y-63003168D02*
X180288918Y-63003168D01*
X180288918Y-63003168D02*
X180546061Y-63603168D01*
X179803204Y-63203168D02*
X179803204Y-63603168D01*
X179946061Y-62974597D02*
X180088918Y-63403168D01*
X180088918Y-63403168D02*
X179717489Y-63403168D01*
X173890417Y-89466024D02*
X173918989Y-89494596D01*
X173918989Y-89494596D02*
X174004703Y-89523167D01*
X174004703Y-89523167D02*
X174061846Y-89523167D01*
X174061846Y-89523167D02*
X174147560Y-89494596D01*
X174147560Y-89494596D02*
X174204703Y-89437453D01*
X174204703Y-89437453D02*
X174233274Y-89380310D01*
X174233274Y-89380310D02*
X174261846Y-89266024D01*
X174261846Y-89266024D02*
X174261846Y-89180310D01*
X174261846Y-89180310D02*
X174233274Y-89066024D01*
X174233274Y-89066024D02*
X174204703Y-89008881D01*
X174204703Y-89008881D02*
X174147560Y-88951738D01*
X174147560Y-88951738D02*
X174061846Y-88923167D01*
X174061846Y-88923167D02*
X174004703Y-88923167D01*
X174004703Y-88923167D02*
X173918989Y-88951738D01*
X173918989Y-88951738D02*
X173890417Y-88980310D01*
X173376132Y-89123167D02*
X173376132Y-89523167D01*
X173518989Y-88894596D02*
X173661846Y-89323167D01*
X173661846Y-89323167D02*
X173290417Y-89323167D01*
X173090417Y-88980310D02*
X173061845Y-88951738D01*
X173061845Y-88951738D02*
X173004703Y-88923167D01*
X173004703Y-88923167D02*
X172861845Y-88923167D01*
X172861845Y-88923167D02*
X172804703Y-88951738D01*
X172804703Y-88951738D02*
X172776131Y-88980310D01*
X172776131Y-88980310D02*
X172747560Y-89037453D01*
X172747560Y-89037453D02*
X172747560Y-89094596D01*
X172747560Y-89094596D02*
X172776131Y-89180310D01*
X172776131Y-89180310D02*
X173118988Y-89523167D01*
X173118988Y-89523167D02*
X172747560Y-89523167D01*
X188614916Y-59106024D02*
X188643488Y-59134596D01*
X188643488Y-59134596D02*
X188729202Y-59163167D01*
X188729202Y-59163167D02*
X188786345Y-59163167D01*
X188786345Y-59163167D02*
X188872059Y-59134596D01*
X188872059Y-59134596D02*
X188929202Y-59077453D01*
X188929202Y-59077453D02*
X188957773Y-59020310D01*
X188957773Y-59020310D02*
X188986345Y-58906024D01*
X188986345Y-58906024D02*
X188986345Y-58820310D01*
X188986345Y-58820310D02*
X188957773Y-58706024D01*
X188957773Y-58706024D02*
X188929202Y-58648881D01*
X188929202Y-58648881D02*
X188872059Y-58591738D01*
X188872059Y-58591738D02*
X188786345Y-58563167D01*
X188786345Y-58563167D02*
X188729202Y-58563167D01*
X188729202Y-58563167D02*
X188643488Y-58591738D01*
X188643488Y-58591738D02*
X188614916Y-58620310D01*
X188386345Y-58620310D02*
X188357773Y-58591738D01*
X188357773Y-58591738D02*
X188300631Y-58563167D01*
X188300631Y-58563167D02*
X188157773Y-58563167D01*
X188157773Y-58563167D02*
X188100631Y-58591738D01*
X188100631Y-58591738D02*
X188072059Y-58620310D01*
X188072059Y-58620310D02*
X188043488Y-58677453D01*
X188043488Y-58677453D02*
X188043488Y-58734596D01*
X188043488Y-58734596D02*
X188072059Y-58820310D01*
X188072059Y-58820310D02*
X188414916Y-59163167D01*
X188414916Y-59163167D02*
X188043488Y-59163167D01*
X187843487Y-58563167D02*
X187443487Y-58563167D01*
X187443487Y-58563167D02*
X187700630Y-59163167D01*
X178064917Y-70083168D02*
X178264917Y-69797454D01*
X178407774Y-70083168D02*
X178407774Y-69483168D01*
X178407774Y-69483168D02*
X178179203Y-69483168D01*
X178179203Y-69483168D02*
X178122060Y-69511739D01*
X178122060Y-69511739D02*
X178093489Y-69540311D01*
X178093489Y-69540311D02*
X178064917Y-69597454D01*
X178064917Y-69597454D02*
X178064917Y-69683168D01*
X178064917Y-69683168D02*
X178093489Y-69740311D01*
X178093489Y-69740311D02*
X178122060Y-69768882D01*
X178122060Y-69768882D02*
X178179203Y-69797454D01*
X178179203Y-69797454D02*
X178407774Y-69797454D01*
X177864917Y-69483168D02*
X177493489Y-69483168D01*
X177493489Y-69483168D02*
X177693489Y-69711739D01*
X177693489Y-69711739D02*
X177607774Y-69711739D01*
X177607774Y-69711739D02*
X177550632Y-69740311D01*
X177550632Y-69740311D02*
X177522060Y-69768882D01*
X177522060Y-69768882D02*
X177493489Y-69826025D01*
X177493489Y-69826025D02*
X177493489Y-69968882D01*
X177493489Y-69968882D02*
X177522060Y-70026025D01*
X177522060Y-70026025D02*
X177550632Y-70054597D01*
X177550632Y-70054597D02*
X177607774Y-70083168D01*
X177607774Y-70083168D02*
X177779203Y-70083168D01*
X177779203Y-70083168D02*
X177836346Y-70054597D01*
X177836346Y-70054597D02*
X177864917Y-70026025D01*
X177293488Y-69483168D02*
X176922060Y-69483168D01*
X176922060Y-69483168D02*
X177122060Y-69711739D01*
X177122060Y-69711739D02*
X177036345Y-69711739D01*
X177036345Y-69711739D02*
X176979203Y-69740311D01*
X176979203Y-69740311D02*
X176950631Y-69768882D01*
X176950631Y-69768882D02*
X176922060Y-69826025D01*
X176922060Y-69826025D02*
X176922060Y-69968882D01*
X176922060Y-69968882D02*
X176950631Y-70026025D01*
X176950631Y-70026025D02*
X176979203Y-70054597D01*
X176979203Y-70054597D02*
X177036345Y-70083168D01*
X177036345Y-70083168D02*
X177207774Y-70083168D01*
X177207774Y-70083168D02*
X177264917Y-70054597D01*
X177264917Y-70054597D02*
X177293488Y-70026025D01*
X178551574Y-67925082D02*
X178265860Y-67725082D01*
X178551574Y-67582225D02*
X177951574Y-67582225D01*
X177951574Y-67582225D02*
X177951574Y-67810796D01*
X177951574Y-67810796D02*
X177980145Y-67867939D01*
X177980145Y-67867939D02*
X178008717Y-67896510D01*
X178008717Y-67896510D02*
X178065860Y-67925082D01*
X178065860Y-67925082D02*
X178151574Y-67925082D01*
X178151574Y-67925082D02*
X178208717Y-67896510D01*
X178208717Y-67896510D02*
X178237288Y-67867939D01*
X178237288Y-67867939D02*
X178265860Y-67810796D01*
X178265860Y-67810796D02*
X178265860Y-67582225D01*
X177951574Y-68125082D02*
X177951574Y-68496510D01*
X177951574Y-68496510D02*
X178180145Y-68296510D01*
X178180145Y-68296510D02*
X178180145Y-68382225D01*
X178180145Y-68382225D02*
X178208717Y-68439368D01*
X178208717Y-68439368D02*
X178237288Y-68467939D01*
X178237288Y-68467939D02*
X178294431Y-68496510D01*
X178294431Y-68496510D02*
X178437288Y-68496510D01*
X178437288Y-68496510D02*
X178494431Y-68467939D01*
X178494431Y-68467939D02*
X178523003Y-68439368D01*
X178523003Y-68439368D02*
X178551574Y-68382225D01*
X178551574Y-68382225D02*
X178551574Y-68210796D01*
X178551574Y-68210796D02*
X178523003Y-68153653D01*
X178523003Y-68153653D02*
X178494431Y-68125082D01*
X178151574Y-69010797D02*
X178551574Y-69010797D01*
X177923003Y-68867939D02*
X178351574Y-68725082D01*
X178351574Y-68725082D02*
X178351574Y-69096511D01*
X167261423Y-99466526D02*
X167289995Y-99495098D01*
X167289995Y-99495098D02*
X167375709Y-99523669D01*
X167375709Y-99523669D02*
X167432852Y-99523669D01*
X167432852Y-99523669D02*
X167518566Y-99495098D01*
X167518566Y-99495098D02*
X167575709Y-99437955D01*
X167575709Y-99437955D02*
X167604280Y-99380812D01*
X167604280Y-99380812D02*
X167632852Y-99266526D01*
X167632852Y-99266526D02*
X167632852Y-99180812D01*
X167632852Y-99180812D02*
X167604280Y-99066526D01*
X167604280Y-99066526D02*
X167575709Y-99009383D01*
X167575709Y-99009383D02*
X167518566Y-98952240D01*
X167518566Y-98952240D02*
X167432852Y-98923669D01*
X167432852Y-98923669D02*
X167375709Y-98923669D01*
X167375709Y-98923669D02*
X167289995Y-98952240D01*
X167289995Y-98952240D02*
X167261423Y-98980812D01*
X166689995Y-99523669D02*
X167032852Y-99523669D01*
X166861423Y-99523669D02*
X166861423Y-98923669D01*
X166861423Y-98923669D02*
X166918566Y-99009383D01*
X166918566Y-99009383D02*
X166975709Y-99066526D01*
X166975709Y-99066526D02*
X167032852Y-99095098D01*
X166147137Y-98923669D02*
X166432851Y-98923669D01*
X166432851Y-98923669D02*
X166461423Y-99209383D01*
X166461423Y-99209383D02*
X166432851Y-99180812D01*
X166432851Y-99180812D02*
X166375709Y-99152240D01*
X166375709Y-99152240D02*
X166232851Y-99152240D01*
X166232851Y-99152240D02*
X166175709Y-99180812D01*
X166175709Y-99180812D02*
X166147137Y-99209383D01*
X166147137Y-99209383D02*
X166118566Y-99266526D01*
X166118566Y-99266526D02*
X166118566Y-99409383D01*
X166118566Y-99409383D02*
X166147137Y-99466526D01*
X166147137Y-99466526D02*
X166175709Y-99495098D01*
X166175709Y-99495098D02*
X166232851Y-99523669D01*
X166232851Y-99523669D02*
X166375709Y-99523669D01*
X166375709Y-99523669D02*
X166432851Y-99495098D01*
X166432851Y-99495098D02*
X166461423Y-99466526D01*
X179037576Y-76504539D02*
X179066148Y-76475967D01*
X179066148Y-76475967D02*
X179094719Y-76390253D01*
X179094719Y-76390253D02*
X179094719Y-76333110D01*
X179094719Y-76333110D02*
X179066148Y-76247396D01*
X179066148Y-76247396D02*
X179009005Y-76190253D01*
X179009005Y-76190253D02*
X178951862Y-76161682D01*
X178951862Y-76161682D02*
X178837576Y-76133110D01*
X178837576Y-76133110D02*
X178751862Y-76133110D01*
X178751862Y-76133110D02*
X178637576Y-76161682D01*
X178637576Y-76161682D02*
X178580433Y-76190253D01*
X178580433Y-76190253D02*
X178523290Y-76247396D01*
X178523290Y-76247396D02*
X178494719Y-76333110D01*
X178494719Y-76333110D02*
X178494719Y-76390253D01*
X178494719Y-76390253D02*
X178523290Y-76475967D01*
X178523290Y-76475967D02*
X178551862Y-76504539D01*
X178551862Y-76733110D02*
X178523290Y-76761682D01*
X178523290Y-76761682D02*
X178494719Y-76818825D01*
X178494719Y-76818825D02*
X178494719Y-76961682D01*
X178494719Y-76961682D02*
X178523290Y-77018825D01*
X178523290Y-77018825D02*
X178551862Y-77047396D01*
X178551862Y-77047396D02*
X178609005Y-77075967D01*
X178609005Y-77075967D02*
X178666148Y-77075967D01*
X178666148Y-77075967D02*
X178751862Y-77047396D01*
X178751862Y-77047396D02*
X179094719Y-76704539D01*
X179094719Y-76704539D02*
X179094719Y-77075967D01*
X179094719Y-77647396D02*
X179094719Y-77304539D01*
X179094719Y-77475968D02*
X178494719Y-77475968D01*
X178494719Y-77475968D02*
X178580433Y-77418825D01*
X178580433Y-77418825D02*
X178637576Y-77361682D01*
X178637576Y-77361682D02*
X178666148Y-77304539D01*
X207293488Y-93226025D02*
X207322060Y-93254597D01*
X207322060Y-93254597D02*
X207407774Y-93283168D01*
X207407774Y-93283168D02*
X207464917Y-93283168D01*
X207464917Y-93283168D02*
X207550631Y-93254597D01*
X207550631Y-93254597D02*
X207607774Y-93197454D01*
X207607774Y-93197454D02*
X207636345Y-93140311D01*
X207636345Y-93140311D02*
X207664917Y-93026025D01*
X207664917Y-93026025D02*
X207664917Y-92940311D01*
X207664917Y-92940311D02*
X207636345Y-92826025D01*
X207636345Y-92826025D02*
X207607774Y-92768882D01*
X207607774Y-92768882D02*
X207550631Y-92711739D01*
X207550631Y-92711739D02*
X207464917Y-92683168D01*
X207464917Y-92683168D02*
X207407774Y-92683168D01*
X207407774Y-92683168D02*
X207322060Y-92711739D01*
X207322060Y-92711739D02*
X207293488Y-92740311D01*
X207036345Y-93283168D02*
X207036345Y-92683168D01*
X207036345Y-92683168D02*
X206693488Y-93283168D01*
X206693488Y-93283168D02*
X206693488Y-92683168D01*
X206093489Y-93283168D02*
X206436346Y-93283168D01*
X206264917Y-93283168D02*
X206264917Y-92683168D01*
X206264917Y-92683168D02*
X206322060Y-92768882D01*
X206322060Y-92768882D02*
X206379203Y-92826025D01*
X206379203Y-92826025D02*
X206436346Y-92854597D01*
X178040917Y-100086026D02*
X178069489Y-100114598D01*
X178069489Y-100114598D02*
X178155203Y-100143169D01*
X178155203Y-100143169D02*
X178212346Y-100143169D01*
X178212346Y-100143169D02*
X178298060Y-100114598D01*
X178298060Y-100114598D02*
X178355203Y-100057455D01*
X178355203Y-100057455D02*
X178383774Y-100000312D01*
X178383774Y-100000312D02*
X178412346Y-99886026D01*
X178412346Y-99886026D02*
X178412346Y-99800312D01*
X178412346Y-99800312D02*
X178383774Y-99686026D01*
X178383774Y-99686026D02*
X178355203Y-99628883D01*
X178355203Y-99628883D02*
X178298060Y-99571740D01*
X178298060Y-99571740D02*
X178212346Y-99543169D01*
X178212346Y-99543169D02*
X178155203Y-99543169D01*
X178155203Y-99543169D02*
X178069489Y-99571740D01*
X178069489Y-99571740D02*
X178040917Y-99600312D01*
X177840917Y-99543169D02*
X177469489Y-99543169D01*
X177469489Y-99543169D02*
X177669489Y-99771740D01*
X177669489Y-99771740D02*
X177583774Y-99771740D01*
X177583774Y-99771740D02*
X177526632Y-99800312D01*
X177526632Y-99800312D02*
X177498060Y-99828883D01*
X177498060Y-99828883D02*
X177469489Y-99886026D01*
X177469489Y-99886026D02*
X177469489Y-100028883D01*
X177469489Y-100028883D02*
X177498060Y-100086026D01*
X177498060Y-100086026D02*
X177526632Y-100114598D01*
X177526632Y-100114598D02*
X177583774Y-100143169D01*
X177583774Y-100143169D02*
X177755203Y-100143169D01*
X177755203Y-100143169D02*
X177812346Y-100114598D01*
X177812346Y-100114598D02*
X177840917Y-100086026D01*
X177183774Y-100143169D02*
X177069488Y-100143169D01*
X177069488Y-100143169D02*
X177012345Y-100114598D01*
X177012345Y-100114598D02*
X176983774Y-100086026D01*
X176983774Y-100086026D02*
X176926631Y-100000312D01*
X176926631Y-100000312D02*
X176898060Y-99886026D01*
X176898060Y-99886026D02*
X176898060Y-99657455D01*
X176898060Y-99657455D02*
X176926631Y-99600312D01*
X176926631Y-99600312D02*
X176955203Y-99571740D01*
X176955203Y-99571740D02*
X177012345Y-99543169D01*
X177012345Y-99543169D02*
X177126631Y-99543169D01*
X177126631Y-99543169D02*
X177183774Y-99571740D01*
X177183774Y-99571740D02*
X177212345Y-99600312D01*
X177212345Y-99600312D02*
X177240917Y-99657455D01*
X177240917Y-99657455D02*
X177240917Y-99800312D01*
X177240917Y-99800312D02*
X177212345Y-99857455D01*
X177212345Y-99857455D02*
X177183774Y-99886026D01*
X177183774Y-99886026D02*
X177126631Y-99914598D01*
X177126631Y-99914598D02*
X177012345Y-99914598D01*
X177012345Y-99914598D02*
X176955203Y-99886026D01*
X176955203Y-99886026D02*
X176926631Y-99857455D01*
X176926631Y-99857455D02*
X176898060Y-99800312D01*
X183364917Y-71026025D02*
X183393489Y-71054597D01*
X183393489Y-71054597D02*
X183479203Y-71083168D01*
X183479203Y-71083168D02*
X183536346Y-71083168D01*
X183536346Y-71083168D02*
X183622060Y-71054597D01*
X183622060Y-71054597D02*
X183679203Y-70997454D01*
X183679203Y-70997454D02*
X183707774Y-70940311D01*
X183707774Y-70940311D02*
X183736346Y-70826025D01*
X183736346Y-70826025D02*
X183736346Y-70740311D01*
X183736346Y-70740311D02*
X183707774Y-70626025D01*
X183707774Y-70626025D02*
X183679203Y-70568882D01*
X183679203Y-70568882D02*
X183622060Y-70511739D01*
X183622060Y-70511739D02*
X183536346Y-70483168D01*
X183536346Y-70483168D02*
X183479203Y-70483168D01*
X183479203Y-70483168D02*
X183393489Y-70511739D01*
X183393489Y-70511739D02*
X183364917Y-70540311D01*
X182850632Y-70683168D02*
X182850632Y-71083168D01*
X182993489Y-70454597D02*
X183136346Y-70883168D01*
X183136346Y-70883168D02*
X182764917Y-70883168D01*
X182450631Y-70740311D02*
X182507774Y-70711739D01*
X182507774Y-70711739D02*
X182536345Y-70683168D01*
X182536345Y-70683168D02*
X182564917Y-70626025D01*
X182564917Y-70626025D02*
X182564917Y-70597454D01*
X182564917Y-70597454D02*
X182536345Y-70540311D01*
X182536345Y-70540311D02*
X182507774Y-70511739D01*
X182507774Y-70511739D02*
X182450631Y-70483168D01*
X182450631Y-70483168D02*
X182336345Y-70483168D01*
X182336345Y-70483168D02*
X182279203Y-70511739D01*
X182279203Y-70511739D02*
X182250631Y-70540311D01*
X182250631Y-70540311D02*
X182222060Y-70597454D01*
X182222060Y-70597454D02*
X182222060Y-70626025D01*
X182222060Y-70626025D02*
X182250631Y-70683168D01*
X182250631Y-70683168D02*
X182279203Y-70711739D01*
X182279203Y-70711739D02*
X182336345Y-70740311D01*
X182336345Y-70740311D02*
X182450631Y-70740311D01*
X182450631Y-70740311D02*
X182507774Y-70768882D01*
X182507774Y-70768882D02*
X182536345Y-70797454D01*
X182536345Y-70797454D02*
X182564917Y-70854597D01*
X182564917Y-70854597D02*
X182564917Y-70968882D01*
X182564917Y-70968882D02*
X182536345Y-71026025D01*
X182536345Y-71026025D02*
X182507774Y-71054597D01*
X182507774Y-71054597D02*
X182450631Y-71083168D01*
X182450631Y-71083168D02*
X182336345Y-71083168D01*
X182336345Y-71083168D02*
X182279203Y-71054597D01*
X182279203Y-71054597D02*
X182250631Y-71026025D01*
X182250631Y-71026025D02*
X182222060Y-70968882D01*
X182222060Y-70968882D02*
X182222060Y-70854597D01*
X182222060Y-70854597D02*
X182250631Y-70797454D01*
X182250631Y-70797454D02*
X182279203Y-70768882D01*
X182279203Y-70768882D02*
X182336345Y-70740311D01*
X173864917Y-87026025D02*
X173893489Y-87054597D01*
X173893489Y-87054597D02*
X173979203Y-87083168D01*
X173979203Y-87083168D02*
X174036346Y-87083168D01*
X174036346Y-87083168D02*
X174122060Y-87054597D01*
X174122060Y-87054597D02*
X174179203Y-86997454D01*
X174179203Y-86997454D02*
X174207774Y-86940311D01*
X174207774Y-86940311D02*
X174236346Y-86826025D01*
X174236346Y-86826025D02*
X174236346Y-86740311D01*
X174236346Y-86740311D02*
X174207774Y-86626025D01*
X174207774Y-86626025D02*
X174179203Y-86568882D01*
X174179203Y-86568882D02*
X174122060Y-86511739D01*
X174122060Y-86511739D02*
X174036346Y-86483168D01*
X174036346Y-86483168D02*
X173979203Y-86483168D01*
X173979203Y-86483168D02*
X173893489Y-86511739D01*
X173893489Y-86511739D02*
X173864917Y-86540311D01*
X173293489Y-87083168D02*
X173636346Y-87083168D01*
X173464917Y-87083168D02*
X173464917Y-86483168D01*
X173464917Y-86483168D02*
X173522060Y-86568882D01*
X173522060Y-86568882D02*
X173579203Y-86626025D01*
X173579203Y-86626025D02*
X173636346Y-86654597D01*
X172950631Y-86740311D02*
X173007774Y-86711739D01*
X173007774Y-86711739D02*
X173036345Y-86683168D01*
X173036345Y-86683168D02*
X173064917Y-86626025D01*
X173064917Y-86626025D02*
X173064917Y-86597454D01*
X173064917Y-86597454D02*
X173036345Y-86540311D01*
X173036345Y-86540311D02*
X173007774Y-86511739D01*
X173007774Y-86511739D02*
X172950631Y-86483168D01*
X172950631Y-86483168D02*
X172836345Y-86483168D01*
X172836345Y-86483168D02*
X172779203Y-86511739D01*
X172779203Y-86511739D02*
X172750631Y-86540311D01*
X172750631Y-86540311D02*
X172722060Y-86597454D01*
X172722060Y-86597454D02*
X172722060Y-86626025D01*
X172722060Y-86626025D02*
X172750631Y-86683168D01*
X172750631Y-86683168D02*
X172779203Y-86711739D01*
X172779203Y-86711739D02*
X172836345Y-86740311D01*
X172836345Y-86740311D02*
X172950631Y-86740311D01*
X172950631Y-86740311D02*
X173007774Y-86768882D01*
X173007774Y-86768882D02*
X173036345Y-86797454D01*
X173036345Y-86797454D02*
X173064917Y-86854597D01*
X173064917Y-86854597D02*
X173064917Y-86968882D01*
X173064917Y-86968882D02*
X173036345Y-87026025D01*
X173036345Y-87026025D02*
X173007774Y-87054597D01*
X173007774Y-87054597D02*
X172950631Y-87083168D01*
X172950631Y-87083168D02*
X172836345Y-87083168D01*
X172836345Y-87083168D02*
X172779203Y-87054597D01*
X172779203Y-87054597D02*
X172750631Y-87026025D01*
X172750631Y-87026025D02*
X172722060Y-86968882D01*
X172722060Y-86968882D02*
X172722060Y-86854597D01*
X172722060Y-86854597D02*
X172750631Y-86797454D01*
X172750631Y-86797454D02*
X172779203Y-86768882D01*
X172779203Y-86768882D02*
X172836345Y-86740311D01*
X196064917Y-97826025D02*
X196093489Y-97854597D01*
X196093489Y-97854597D02*
X196179203Y-97883168D01*
X196179203Y-97883168D02*
X196236346Y-97883168D01*
X196236346Y-97883168D02*
X196322060Y-97854597D01*
X196322060Y-97854597D02*
X196379203Y-97797454D01*
X196379203Y-97797454D02*
X196407774Y-97740311D01*
X196407774Y-97740311D02*
X196436346Y-97626025D01*
X196436346Y-97626025D02*
X196436346Y-97540311D01*
X196436346Y-97540311D02*
X196407774Y-97426025D01*
X196407774Y-97426025D02*
X196379203Y-97368882D01*
X196379203Y-97368882D02*
X196322060Y-97311739D01*
X196322060Y-97311739D02*
X196236346Y-97283168D01*
X196236346Y-97283168D02*
X196179203Y-97283168D01*
X196179203Y-97283168D02*
X196093489Y-97311739D01*
X196093489Y-97311739D02*
X196064917Y-97340311D01*
X195836346Y-97340311D02*
X195807774Y-97311739D01*
X195807774Y-97311739D02*
X195750632Y-97283168D01*
X195750632Y-97283168D02*
X195607774Y-97283168D01*
X195607774Y-97283168D02*
X195550632Y-97311739D01*
X195550632Y-97311739D02*
X195522060Y-97340311D01*
X195522060Y-97340311D02*
X195493489Y-97397454D01*
X195493489Y-97397454D02*
X195493489Y-97454597D01*
X195493489Y-97454597D02*
X195522060Y-97540311D01*
X195522060Y-97540311D02*
X195864917Y-97883168D01*
X195864917Y-97883168D02*
X195493489Y-97883168D01*
X194979203Y-97283168D02*
X195093488Y-97283168D01*
X195093488Y-97283168D02*
X195150631Y-97311739D01*
X195150631Y-97311739D02*
X195179203Y-97340311D01*
X195179203Y-97340311D02*
X195236345Y-97426025D01*
X195236345Y-97426025D02*
X195264917Y-97540311D01*
X195264917Y-97540311D02*
X195264917Y-97768882D01*
X195264917Y-97768882D02*
X195236345Y-97826025D01*
X195236345Y-97826025D02*
X195207774Y-97854597D01*
X195207774Y-97854597D02*
X195150631Y-97883168D01*
X195150631Y-97883168D02*
X195036345Y-97883168D01*
X195036345Y-97883168D02*
X194979203Y-97854597D01*
X194979203Y-97854597D02*
X194950631Y-97826025D01*
X194950631Y-97826025D02*
X194922060Y-97768882D01*
X194922060Y-97768882D02*
X194922060Y-97626025D01*
X194922060Y-97626025D02*
X194950631Y-97568882D01*
X194950631Y-97568882D02*
X194979203Y-97540311D01*
X194979203Y-97540311D02*
X195036345Y-97511739D01*
X195036345Y-97511739D02*
X195150631Y-97511739D01*
X195150631Y-97511739D02*
X195207774Y-97540311D01*
X195207774Y-97540311D02*
X195236345Y-97568882D01*
X195236345Y-97568882D02*
X195264917Y-97626025D01*
X191264917Y-55026025D02*
X191293489Y-55054597D01*
X191293489Y-55054597D02*
X191379203Y-55083168D01*
X191379203Y-55083168D02*
X191436346Y-55083168D01*
X191436346Y-55083168D02*
X191522060Y-55054597D01*
X191522060Y-55054597D02*
X191579203Y-54997454D01*
X191579203Y-54997454D02*
X191607774Y-54940311D01*
X191607774Y-54940311D02*
X191636346Y-54826025D01*
X191636346Y-54826025D02*
X191636346Y-54740311D01*
X191636346Y-54740311D02*
X191607774Y-54626025D01*
X191607774Y-54626025D02*
X191579203Y-54568882D01*
X191579203Y-54568882D02*
X191522060Y-54511739D01*
X191522060Y-54511739D02*
X191436346Y-54483168D01*
X191436346Y-54483168D02*
X191379203Y-54483168D01*
X191379203Y-54483168D02*
X191293489Y-54511739D01*
X191293489Y-54511739D02*
X191264917Y-54540311D01*
X190750632Y-54483168D02*
X190864917Y-54483168D01*
X190864917Y-54483168D02*
X190922060Y-54511739D01*
X190922060Y-54511739D02*
X190950632Y-54540311D01*
X190950632Y-54540311D02*
X191007774Y-54626025D01*
X191007774Y-54626025D02*
X191036346Y-54740311D01*
X191036346Y-54740311D02*
X191036346Y-54968882D01*
X191036346Y-54968882D02*
X191007774Y-55026025D01*
X191007774Y-55026025D02*
X190979203Y-55054597D01*
X190979203Y-55054597D02*
X190922060Y-55083168D01*
X190922060Y-55083168D02*
X190807774Y-55083168D01*
X190807774Y-55083168D02*
X190750632Y-55054597D01*
X190750632Y-55054597D02*
X190722060Y-55026025D01*
X190722060Y-55026025D02*
X190693489Y-54968882D01*
X190693489Y-54968882D02*
X190693489Y-54826025D01*
X190693489Y-54826025D02*
X190722060Y-54768882D01*
X190722060Y-54768882D02*
X190750632Y-54740311D01*
X190750632Y-54740311D02*
X190807774Y-54711739D01*
X190807774Y-54711739D02*
X190922060Y-54711739D01*
X190922060Y-54711739D02*
X190979203Y-54740311D01*
X190979203Y-54740311D02*
X191007774Y-54768882D01*
X191007774Y-54768882D02*
X191036346Y-54826025D01*
X190464917Y-54540311D02*
X190436345Y-54511739D01*
X190436345Y-54511739D02*
X190379203Y-54483168D01*
X190379203Y-54483168D02*
X190236345Y-54483168D01*
X190236345Y-54483168D02*
X190179203Y-54511739D01*
X190179203Y-54511739D02*
X190150631Y-54540311D01*
X190150631Y-54540311D02*
X190122060Y-54597454D01*
X190122060Y-54597454D02*
X190122060Y-54654597D01*
X190122060Y-54654597D02*
X190150631Y-54740311D01*
X190150631Y-54740311D02*
X190493488Y-55083168D01*
X190493488Y-55083168D02*
X190122060Y-55083168D01*
X172014431Y-75625082D02*
X172043003Y-75596510D01*
X172043003Y-75596510D02*
X172071574Y-75510796D01*
X172071574Y-75510796D02*
X172071574Y-75453653D01*
X172071574Y-75453653D02*
X172043003Y-75367939D01*
X172043003Y-75367939D02*
X171985860Y-75310796D01*
X171985860Y-75310796D02*
X171928717Y-75282225D01*
X171928717Y-75282225D02*
X171814431Y-75253653D01*
X171814431Y-75253653D02*
X171728717Y-75253653D01*
X171728717Y-75253653D02*
X171614431Y-75282225D01*
X171614431Y-75282225D02*
X171557288Y-75310796D01*
X171557288Y-75310796D02*
X171500145Y-75367939D01*
X171500145Y-75367939D02*
X171471574Y-75453653D01*
X171471574Y-75453653D02*
X171471574Y-75510796D01*
X171471574Y-75510796D02*
X171500145Y-75596510D01*
X171500145Y-75596510D02*
X171528717Y-75625082D01*
X171471574Y-76139368D02*
X171471574Y-76025082D01*
X171471574Y-76025082D02*
X171500145Y-75967939D01*
X171500145Y-75967939D02*
X171528717Y-75939368D01*
X171528717Y-75939368D02*
X171614431Y-75882225D01*
X171614431Y-75882225D02*
X171728717Y-75853653D01*
X171728717Y-75853653D02*
X171957288Y-75853653D01*
X171957288Y-75853653D02*
X172014431Y-75882225D01*
X172014431Y-75882225D02*
X172043003Y-75910796D01*
X172043003Y-75910796D02*
X172071574Y-75967939D01*
X172071574Y-75967939D02*
X172071574Y-76082225D01*
X172071574Y-76082225D02*
X172043003Y-76139368D01*
X172043003Y-76139368D02*
X172014431Y-76167939D01*
X172014431Y-76167939D02*
X171957288Y-76196510D01*
X171957288Y-76196510D02*
X171814431Y-76196510D01*
X171814431Y-76196510D02*
X171757288Y-76167939D01*
X171757288Y-76167939D02*
X171728717Y-76139368D01*
X171728717Y-76139368D02*
X171700145Y-76082225D01*
X171700145Y-76082225D02*
X171700145Y-75967939D01*
X171700145Y-75967939D02*
X171728717Y-75910796D01*
X171728717Y-75910796D02*
X171757288Y-75882225D01*
X171757288Y-75882225D02*
X171814431Y-75853653D01*
X172071574Y-76767939D02*
X172071574Y-76425082D01*
X172071574Y-76596511D02*
X171471574Y-76596511D01*
X171471574Y-76596511D02*
X171557288Y-76539368D01*
X171557288Y-76539368D02*
X171614431Y-76482225D01*
X171614431Y-76482225D02*
X171643003Y-76425082D01*
X177551574Y-71025082D02*
X177265860Y-70825082D01*
X177551574Y-70682225D02*
X176951574Y-70682225D01*
X176951574Y-70682225D02*
X176951574Y-70910796D01*
X176951574Y-70910796D02*
X176980145Y-70967939D01*
X176980145Y-70967939D02*
X177008717Y-70996510D01*
X177008717Y-70996510D02*
X177065860Y-71025082D01*
X177065860Y-71025082D02*
X177151574Y-71025082D01*
X177151574Y-71025082D02*
X177208717Y-70996510D01*
X177208717Y-70996510D02*
X177237288Y-70967939D01*
X177237288Y-70967939D02*
X177265860Y-70910796D01*
X177265860Y-70910796D02*
X177265860Y-70682225D01*
X176951574Y-71225082D02*
X176951574Y-71596510D01*
X176951574Y-71596510D02*
X177180145Y-71396510D01*
X177180145Y-71396510D02*
X177180145Y-71482225D01*
X177180145Y-71482225D02*
X177208717Y-71539368D01*
X177208717Y-71539368D02*
X177237288Y-71567939D01*
X177237288Y-71567939D02*
X177294431Y-71596510D01*
X177294431Y-71596510D02*
X177437288Y-71596510D01*
X177437288Y-71596510D02*
X177494431Y-71567939D01*
X177494431Y-71567939D02*
X177523003Y-71539368D01*
X177523003Y-71539368D02*
X177551574Y-71482225D01*
X177551574Y-71482225D02*
X177551574Y-71310796D01*
X177551574Y-71310796D02*
X177523003Y-71253653D01*
X177523003Y-71253653D02*
X177494431Y-71225082D01*
X176951574Y-72110797D02*
X176951574Y-71996511D01*
X176951574Y-71996511D02*
X176980145Y-71939368D01*
X176980145Y-71939368D02*
X177008717Y-71910797D01*
X177008717Y-71910797D02*
X177094431Y-71853654D01*
X177094431Y-71853654D02*
X177208717Y-71825082D01*
X177208717Y-71825082D02*
X177437288Y-71825082D01*
X177437288Y-71825082D02*
X177494431Y-71853654D01*
X177494431Y-71853654D02*
X177523003Y-71882225D01*
X177523003Y-71882225D02*
X177551574Y-71939368D01*
X177551574Y-71939368D02*
X177551574Y-72053654D01*
X177551574Y-72053654D02*
X177523003Y-72110797D01*
X177523003Y-72110797D02*
X177494431Y-72139368D01*
X177494431Y-72139368D02*
X177437288Y-72167939D01*
X177437288Y-72167939D02*
X177294431Y-72167939D01*
X177294431Y-72167939D02*
X177237288Y-72139368D01*
X177237288Y-72139368D02*
X177208717Y-72110797D01*
X177208717Y-72110797D02*
X177180145Y-72053654D01*
X177180145Y-72053654D02*
X177180145Y-71939368D01*
X177180145Y-71939368D02*
X177208717Y-71882225D01*
X177208717Y-71882225D02*
X177237288Y-71853654D01*
X177237288Y-71853654D02*
X177294431Y-71825082D01*
X180064917Y-55426025D02*
X180093489Y-55454597D01*
X180093489Y-55454597D02*
X180179203Y-55483168D01*
X180179203Y-55483168D02*
X180236346Y-55483168D01*
X180236346Y-55483168D02*
X180322060Y-55454597D01*
X180322060Y-55454597D02*
X180379203Y-55397454D01*
X180379203Y-55397454D02*
X180407774Y-55340311D01*
X180407774Y-55340311D02*
X180436346Y-55226025D01*
X180436346Y-55226025D02*
X180436346Y-55140311D01*
X180436346Y-55140311D02*
X180407774Y-55026025D01*
X180407774Y-55026025D02*
X180379203Y-54968882D01*
X180379203Y-54968882D02*
X180322060Y-54911739D01*
X180322060Y-54911739D02*
X180236346Y-54883168D01*
X180236346Y-54883168D02*
X180179203Y-54883168D01*
X180179203Y-54883168D02*
X180093489Y-54911739D01*
X180093489Y-54911739D02*
X180064917Y-54940311D01*
X179864917Y-54883168D02*
X179464917Y-54883168D01*
X179464917Y-54883168D02*
X179722060Y-55483168D01*
X178979203Y-54883168D02*
X179093488Y-54883168D01*
X179093488Y-54883168D02*
X179150631Y-54911739D01*
X179150631Y-54911739D02*
X179179203Y-54940311D01*
X179179203Y-54940311D02*
X179236345Y-55026025D01*
X179236345Y-55026025D02*
X179264917Y-55140311D01*
X179264917Y-55140311D02*
X179264917Y-55368882D01*
X179264917Y-55368882D02*
X179236345Y-55426025D01*
X179236345Y-55426025D02*
X179207774Y-55454597D01*
X179207774Y-55454597D02*
X179150631Y-55483168D01*
X179150631Y-55483168D02*
X179036345Y-55483168D01*
X179036345Y-55483168D02*
X178979203Y-55454597D01*
X178979203Y-55454597D02*
X178950631Y-55426025D01*
X178950631Y-55426025D02*
X178922060Y-55368882D01*
X178922060Y-55368882D02*
X178922060Y-55226025D01*
X178922060Y-55226025D02*
X178950631Y-55168882D01*
X178950631Y-55168882D02*
X178979203Y-55140311D01*
X178979203Y-55140311D02*
X179036345Y-55111739D01*
X179036345Y-55111739D02*
X179150631Y-55111739D01*
X179150631Y-55111739D02*
X179207774Y-55140311D01*
X179207774Y-55140311D02*
X179236345Y-55168882D01*
X179236345Y-55168882D02*
X179264917Y-55226025D01*
X173864917Y-88226025D02*
X173893489Y-88254597D01*
X173893489Y-88254597D02*
X173979203Y-88283168D01*
X173979203Y-88283168D02*
X174036346Y-88283168D01*
X174036346Y-88283168D02*
X174122060Y-88254597D01*
X174122060Y-88254597D02*
X174179203Y-88197454D01*
X174179203Y-88197454D02*
X174207774Y-88140311D01*
X174207774Y-88140311D02*
X174236346Y-88026025D01*
X174236346Y-88026025D02*
X174236346Y-87940311D01*
X174236346Y-87940311D02*
X174207774Y-87826025D01*
X174207774Y-87826025D02*
X174179203Y-87768882D01*
X174179203Y-87768882D02*
X174122060Y-87711739D01*
X174122060Y-87711739D02*
X174036346Y-87683168D01*
X174036346Y-87683168D02*
X173979203Y-87683168D01*
X173979203Y-87683168D02*
X173893489Y-87711739D01*
X173893489Y-87711739D02*
X173864917Y-87740311D01*
X173293489Y-88283168D02*
X173636346Y-88283168D01*
X173464917Y-88283168D02*
X173464917Y-87683168D01*
X173464917Y-87683168D02*
X173522060Y-87768882D01*
X173522060Y-87768882D02*
X173579203Y-87826025D01*
X173579203Y-87826025D02*
X173636346Y-87854597D01*
X173093488Y-87683168D02*
X172693488Y-87683168D01*
X172693488Y-87683168D02*
X172950631Y-88283168D01*
X190351574Y-71610797D02*
X190065860Y-71410797D01*
X190351574Y-71267940D02*
X189751574Y-71267940D01*
X189751574Y-71267940D02*
X189751574Y-71496511D01*
X189751574Y-71496511D02*
X189780145Y-71553654D01*
X189780145Y-71553654D02*
X189808717Y-71582225D01*
X189808717Y-71582225D02*
X189865860Y-71610797D01*
X189865860Y-71610797D02*
X189951574Y-71610797D01*
X189951574Y-71610797D02*
X190008717Y-71582225D01*
X190008717Y-71582225D02*
X190037288Y-71553654D01*
X190037288Y-71553654D02*
X190065860Y-71496511D01*
X190065860Y-71496511D02*
X190065860Y-71267940D01*
X189751574Y-72125083D02*
X189751574Y-72010797D01*
X189751574Y-72010797D02*
X189780145Y-71953654D01*
X189780145Y-71953654D02*
X189808717Y-71925083D01*
X189808717Y-71925083D02*
X189894431Y-71867940D01*
X189894431Y-71867940D02*
X190008717Y-71839368D01*
X190008717Y-71839368D02*
X190237288Y-71839368D01*
X190237288Y-71839368D02*
X190294431Y-71867940D01*
X190294431Y-71867940D02*
X190323003Y-71896511D01*
X190323003Y-71896511D02*
X190351574Y-71953654D01*
X190351574Y-71953654D02*
X190351574Y-72067940D01*
X190351574Y-72067940D02*
X190323003Y-72125083D01*
X190323003Y-72125083D02*
X190294431Y-72153654D01*
X190294431Y-72153654D02*
X190237288Y-72182225D01*
X190237288Y-72182225D02*
X190094431Y-72182225D01*
X190094431Y-72182225D02*
X190037288Y-72153654D01*
X190037288Y-72153654D02*
X190008717Y-72125083D01*
X190008717Y-72125083D02*
X189980145Y-72067940D01*
X189980145Y-72067940D02*
X189980145Y-71953654D01*
X189980145Y-71953654D02*
X190008717Y-71896511D01*
X190008717Y-71896511D02*
X190037288Y-71867940D01*
X190037288Y-71867940D02*
X190094431Y-71839368D01*
X191264917Y-56426025D02*
X191293489Y-56454597D01*
X191293489Y-56454597D02*
X191379203Y-56483168D01*
X191379203Y-56483168D02*
X191436346Y-56483168D01*
X191436346Y-56483168D02*
X191522060Y-56454597D01*
X191522060Y-56454597D02*
X191579203Y-56397454D01*
X191579203Y-56397454D02*
X191607774Y-56340311D01*
X191607774Y-56340311D02*
X191636346Y-56226025D01*
X191636346Y-56226025D02*
X191636346Y-56140311D01*
X191636346Y-56140311D02*
X191607774Y-56026025D01*
X191607774Y-56026025D02*
X191579203Y-55968882D01*
X191579203Y-55968882D02*
X191522060Y-55911739D01*
X191522060Y-55911739D02*
X191436346Y-55883168D01*
X191436346Y-55883168D02*
X191379203Y-55883168D01*
X191379203Y-55883168D02*
X191293489Y-55911739D01*
X191293489Y-55911739D02*
X191264917Y-55940311D01*
X190750632Y-55883168D02*
X190864917Y-55883168D01*
X190864917Y-55883168D02*
X190922060Y-55911739D01*
X190922060Y-55911739D02*
X190950632Y-55940311D01*
X190950632Y-55940311D02*
X191007774Y-56026025D01*
X191007774Y-56026025D02*
X191036346Y-56140311D01*
X191036346Y-56140311D02*
X191036346Y-56368882D01*
X191036346Y-56368882D02*
X191007774Y-56426025D01*
X191007774Y-56426025D02*
X190979203Y-56454597D01*
X190979203Y-56454597D02*
X190922060Y-56483168D01*
X190922060Y-56483168D02*
X190807774Y-56483168D01*
X190807774Y-56483168D02*
X190750632Y-56454597D01*
X190750632Y-56454597D02*
X190722060Y-56426025D01*
X190722060Y-56426025D02*
X190693489Y-56368882D01*
X190693489Y-56368882D02*
X190693489Y-56226025D01*
X190693489Y-56226025D02*
X190722060Y-56168882D01*
X190722060Y-56168882D02*
X190750632Y-56140311D01*
X190750632Y-56140311D02*
X190807774Y-56111739D01*
X190807774Y-56111739D02*
X190922060Y-56111739D01*
X190922060Y-56111739D02*
X190979203Y-56140311D01*
X190979203Y-56140311D02*
X191007774Y-56168882D01*
X191007774Y-56168882D02*
X191036346Y-56226025D01*
X190150631Y-55883168D02*
X190436345Y-55883168D01*
X190436345Y-55883168D02*
X190464917Y-56168882D01*
X190464917Y-56168882D02*
X190436345Y-56140311D01*
X190436345Y-56140311D02*
X190379203Y-56111739D01*
X190379203Y-56111739D02*
X190236345Y-56111739D01*
X190236345Y-56111739D02*
X190179203Y-56140311D01*
X190179203Y-56140311D02*
X190150631Y-56168882D01*
X190150631Y-56168882D02*
X190122060Y-56226025D01*
X190122060Y-56226025D02*
X190122060Y-56368882D01*
X190122060Y-56368882D02*
X190150631Y-56426025D01*
X190150631Y-56426025D02*
X190179203Y-56454597D01*
X190179203Y-56454597D02*
X190236345Y-56483168D01*
X190236345Y-56483168D02*
X190379203Y-56483168D01*
X190379203Y-56483168D02*
X190436345Y-56454597D01*
X190436345Y-56454597D02*
X190464917Y-56426025D01*
X187894431Y-73025082D02*
X187923003Y-72996510D01*
X187923003Y-72996510D02*
X187951574Y-72910796D01*
X187951574Y-72910796D02*
X187951574Y-72853653D01*
X187951574Y-72853653D02*
X187923003Y-72767939D01*
X187923003Y-72767939D02*
X187865860Y-72710796D01*
X187865860Y-72710796D02*
X187808717Y-72682225D01*
X187808717Y-72682225D02*
X187694431Y-72653653D01*
X187694431Y-72653653D02*
X187608717Y-72653653D01*
X187608717Y-72653653D02*
X187494431Y-72682225D01*
X187494431Y-72682225D02*
X187437288Y-72710796D01*
X187437288Y-72710796D02*
X187380145Y-72767939D01*
X187380145Y-72767939D02*
X187351574Y-72853653D01*
X187351574Y-72853653D02*
X187351574Y-72910796D01*
X187351574Y-72910796D02*
X187380145Y-72996510D01*
X187380145Y-72996510D02*
X187408717Y-73025082D01*
X187408717Y-73253653D02*
X187380145Y-73282225D01*
X187380145Y-73282225D02*
X187351574Y-73339368D01*
X187351574Y-73339368D02*
X187351574Y-73482225D01*
X187351574Y-73482225D02*
X187380145Y-73539368D01*
X187380145Y-73539368D02*
X187408717Y-73567939D01*
X187408717Y-73567939D02*
X187465860Y-73596510D01*
X187465860Y-73596510D02*
X187523003Y-73596510D01*
X187523003Y-73596510D02*
X187608717Y-73567939D01*
X187608717Y-73567939D02*
X187951574Y-73225082D01*
X187951574Y-73225082D02*
X187951574Y-73596510D01*
X187408717Y-73825082D02*
X187380145Y-73853654D01*
X187380145Y-73853654D02*
X187351574Y-73910797D01*
X187351574Y-73910797D02*
X187351574Y-74053654D01*
X187351574Y-74053654D02*
X187380145Y-74110797D01*
X187380145Y-74110797D02*
X187408717Y-74139368D01*
X187408717Y-74139368D02*
X187465860Y-74167939D01*
X187465860Y-74167939D02*
X187523003Y-74167939D01*
X187523003Y-74167939D02*
X187608717Y-74139368D01*
X187608717Y-74139368D02*
X187951574Y-73796511D01*
X187951574Y-73796511D02*
X187951574Y-74167939D01*
X162693488Y-93226025D02*
X162722060Y-93254597D01*
X162722060Y-93254597D02*
X162807774Y-93283168D01*
X162807774Y-93283168D02*
X162864917Y-93283168D01*
X162864917Y-93283168D02*
X162950631Y-93254597D01*
X162950631Y-93254597D02*
X163007774Y-93197454D01*
X163007774Y-93197454D02*
X163036345Y-93140311D01*
X163036345Y-93140311D02*
X163064917Y-93026025D01*
X163064917Y-93026025D02*
X163064917Y-92940311D01*
X163064917Y-92940311D02*
X163036345Y-92826025D01*
X163036345Y-92826025D02*
X163007774Y-92768882D01*
X163007774Y-92768882D02*
X162950631Y-92711739D01*
X162950631Y-92711739D02*
X162864917Y-92683168D01*
X162864917Y-92683168D02*
X162807774Y-92683168D01*
X162807774Y-92683168D02*
X162722060Y-92711739D01*
X162722060Y-92711739D02*
X162693488Y-92740311D01*
X162436345Y-93283168D02*
X162436345Y-92683168D01*
X162436345Y-92683168D02*
X162093488Y-93283168D01*
X162093488Y-93283168D02*
X162093488Y-92683168D01*
X161836346Y-92740311D02*
X161807774Y-92711739D01*
X161807774Y-92711739D02*
X161750632Y-92683168D01*
X161750632Y-92683168D02*
X161607774Y-92683168D01*
X161607774Y-92683168D02*
X161550632Y-92711739D01*
X161550632Y-92711739D02*
X161522060Y-92740311D01*
X161522060Y-92740311D02*
X161493489Y-92797454D01*
X161493489Y-92797454D02*
X161493489Y-92854597D01*
X161493489Y-92854597D02*
X161522060Y-92940311D01*
X161522060Y-92940311D02*
X161864917Y-93283168D01*
X161864917Y-93283168D02*
X161493489Y-93283168D01*
X194574432Y-77226583D02*
X194603004Y-77198011D01*
X194603004Y-77198011D02*
X194631575Y-77112297D01*
X194631575Y-77112297D02*
X194631575Y-77055154D01*
X194631575Y-77055154D02*
X194603004Y-76969440D01*
X194603004Y-76969440D02*
X194545861Y-76912297D01*
X194545861Y-76912297D02*
X194488718Y-76883726D01*
X194488718Y-76883726D02*
X194374432Y-76855154D01*
X194374432Y-76855154D02*
X194288718Y-76855154D01*
X194288718Y-76855154D02*
X194174432Y-76883726D01*
X194174432Y-76883726D02*
X194117289Y-76912297D01*
X194117289Y-76912297D02*
X194060146Y-76969440D01*
X194060146Y-76969440D02*
X194031575Y-77055154D01*
X194031575Y-77055154D02*
X194031575Y-77112297D01*
X194031575Y-77112297D02*
X194060146Y-77198011D01*
X194060146Y-77198011D02*
X194088718Y-77226583D01*
X194231575Y-77740869D02*
X194631575Y-77740869D01*
X194003004Y-77598011D02*
X194431575Y-77455154D01*
X194431575Y-77455154D02*
X194431575Y-77826583D01*
X194631575Y-78369440D02*
X194631575Y-78026583D01*
X194631575Y-78198012D02*
X194031575Y-78198012D01*
X194031575Y-78198012D02*
X194117289Y-78140869D01*
X194117289Y-78140869D02*
X194174432Y-78083726D01*
X194174432Y-78083726D02*
X194203004Y-78026583D01*
X186814918Y-64656025D02*
X186843490Y-64684597D01*
X186843490Y-64684597D02*
X186929204Y-64713168D01*
X186929204Y-64713168D02*
X186986347Y-64713168D01*
X186986347Y-64713168D02*
X187072061Y-64684597D01*
X187072061Y-64684597D02*
X187129204Y-64627454D01*
X187129204Y-64627454D02*
X187157775Y-64570311D01*
X187157775Y-64570311D02*
X187186347Y-64456025D01*
X187186347Y-64456025D02*
X187186347Y-64370311D01*
X187186347Y-64370311D02*
X187157775Y-64256025D01*
X187157775Y-64256025D02*
X187129204Y-64198882D01*
X187129204Y-64198882D02*
X187072061Y-64141739D01*
X187072061Y-64141739D02*
X186986347Y-64113168D01*
X186986347Y-64113168D02*
X186929204Y-64113168D01*
X186929204Y-64113168D02*
X186843490Y-64141739D01*
X186843490Y-64141739D02*
X186814918Y-64170311D01*
X186300633Y-64113168D02*
X186414918Y-64113168D01*
X186414918Y-64113168D02*
X186472061Y-64141739D01*
X186472061Y-64141739D02*
X186500633Y-64170311D01*
X186500633Y-64170311D02*
X186557775Y-64256025D01*
X186557775Y-64256025D02*
X186586347Y-64370311D01*
X186586347Y-64370311D02*
X186586347Y-64598882D01*
X186586347Y-64598882D02*
X186557775Y-64656025D01*
X186557775Y-64656025D02*
X186529204Y-64684597D01*
X186529204Y-64684597D02*
X186472061Y-64713168D01*
X186472061Y-64713168D02*
X186357775Y-64713168D01*
X186357775Y-64713168D02*
X186300633Y-64684597D01*
X186300633Y-64684597D02*
X186272061Y-64656025D01*
X186272061Y-64656025D02*
X186243490Y-64598882D01*
X186243490Y-64598882D02*
X186243490Y-64456025D01*
X186243490Y-64456025D02*
X186272061Y-64398882D01*
X186272061Y-64398882D02*
X186300633Y-64370311D01*
X186300633Y-64370311D02*
X186357775Y-64341739D01*
X186357775Y-64341739D02*
X186472061Y-64341739D01*
X186472061Y-64341739D02*
X186529204Y-64370311D01*
X186529204Y-64370311D02*
X186557775Y-64398882D01*
X186557775Y-64398882D02*
X186586347Y-64456025D01*
X186043489Y-64113168D02*
X185643489Y-64113168D01*
X185643489Y-64113168D02*
X185900632Y-64713168D01*
X171866418Y-95626027D02*
X171894990Y-95654599D01*
X171894990Y-95654599D02*
X171980704Y-95683170D01*
X171980704Y-95683170D02*
X172037847Y-95683170D01*
X172037847Y-95683170D02*
X172123561Y-95654599D01*
X172123561Y-95654599D02*
X172180704Y-95597456D01*
X172180704Y-95597456D02*
X172209275Y-95540313D01*
X172209275Y-95540313D02*
X172237847Y-95426027D01*
X172237847Y-95426027D02*
X172237847Y-95340313D01*
X172237847Y-95340313D02*
X172209275Y-95226027D01*
X172209275Y-95226027D02*
X172180704Y-95168884D01*
X172180704Y-95168884D02*
X172123561Y-95111741D01*
X172123561Y-95111741D02*
X172037847Y-95083170D01*
X172037847Y-95083170D02*
X171980704Y-95083170D01*
X171980704Y-95083170D02*
X171894990Y-95111741D01*
X171894990Y-95111741D02*
X171866418Y-95140313D01*
X171666418Y-95083170D02*
X171294990Y-95083170D01*
X171294990Y-95083170D02*
X171494990Y-95311741D01*
X171494990Y-95311741D02*
X171409275Y-95311741D01*
X171409275Y-95311741D02*
X171352133Y-95340313D01*
X171352133Y-95340313D02*
X171323561Y-95368884D01*
X171323561Y-95368884D02*
X171294990Y-95426027D01*
X171294990Y-95426027D02*
X171294990Y-95568884D01*
X171294990Y-95568884D02*
X171323561Y-95626027D01*
X171323561Y-95626027D02*
X171352133Y-95654599D01*
X171352133Y-95654599D02*
X171409275Y-95683170D01*
X171409275Y-95683170D02*
X171580704Y-95683170D01*
X171580704Y-95683170D02*
X171637847Y-95654599D01*
X171637847Y-95654599D02*
X171666418Y-95626027D01*
X171094989Y-95083170D02*
X170694989Y-95083170D01*
X170694989Y-95083170D02*
X170952132Y-95683170D01*
X169694431Y-70825082D02*
X169723003Y-70796510D01*
X169723003Y-70796510D02*
X169751574Y-70710796D01*
X169751574Y-70710796D02*
X169751574Y-70653653D01*
X169751574Y-70653653D02*
X169723003Y-70567939D01*
X169723003Y-70567939D02*
X169665860Y-70510796D01*
X169665860Y-70510796D02*
X169608717Y-70482225D01*
X169608717Y-70482225D02*
X169494431Y-70453653D01*
X169494431Y-70453653D02*
X169408717Y-70453653D01*
X169408717Y-70453653D02*
X169294431Y-70482225D01*
X169294431Y-70482225D02*
X169237288Y-70510796D01*
X169237288Y-70510796D02*
X169180145Y-70567939D01*
X169180145Y-70567939D02*
X169151574Y-70653653D01*
X169151574Y-70653653D02*
X169151574Y-70710796D01*
X169151574Y-70710796D02*
X169180145Y-70796510D01*
X169180145Y-70796510D02*
X169208717Y-70825082D01*
X169151574Y-71367939D02*
X169151574Y-71082225D01*
X169151574Y-71082225D02*
X169437288Y-71053653D01*
X169437288Y-71053653D02*
X169408717Y-71082225D01*
X169408717Y-71082225D02*
X169380145Y-71139368D01*
X169380145Y-71139368D02*
X169380145Y-71282225D01*
X169380145Y-71282225D02*
X169408717Y-71339368D01*
X169408717Y-71339368D02*
X169437288Y-71367939D01*
X169437288Y-71367939D02*
X169494431Y-71396510D01*
X169494431Y-71396510D02*
X169637288Y-71396510D01*
X169637288Y-71396510D02*
X169694431Y-71367939D01*
X169694431Y-71367939D02*
X169723003Y-71339368D01*
X169723003Y-71339368D02*
X169751574Y-71282225D01*
X169751574Y-71282225D02*
X169751574Y-71139368D01*
X169751574Y-71139368D02*
X169723003Y-71082225D01*
X169723003Y-71082225D02*
X169694431Y-71053653D01*
X169751574Y-71967939D02*
X169751574Y-71625082D01*
X169751574Y-71796511D02*
X169151574Y-71796511D01*
X169151574Y-71796511D02*
X169237288Y-71739368D01*
X169237288Y-71739368D02*
X169294431Y-71682225D01*
X169294431Y-71682225D02*
X169323003Y-71625082D01*
X198288917Y-55646025D02*
X198317489Y-55674597D01*
X198317489Y-55674597D02*
X198403203Y-55703168D01*
X198403203Y-55703168D02*
X198460346Y-55703168D01*
X198460346Y-55703168D02*
X198546060Y-55674597D01*
X198546060Y-55674597D02*
X198603203Y-55617454D01*
X198603203Y-55617454D02*
X198631774Y-55560311D01*
X198631774Y-55560311D02*
X198660346Y-55446025D01*
X198660346Y-55446025D02*
X198660346Y-55360311D01*
X198660346Y-55360311D02*
X198631774Y-55246025D01*
X198631774Y-55246025D02*
X198603203Y-55188882D01*
X198603203Y-55188882D02*
X198546060Y-55131739D01*
X198546060Y-55131739D02*
X198460346Y-55103168D01*
X198460346Y-55103168D02*
X198403203Y-55103168D01*
X198403203Y-55103168D02*
X198317489Y-55131739D01*
X198317489Y-55131739D02*
X198288917Y-55160311D01*
X197774632Y-55103168D02*
X197888917Y-55103168D01*
X197888917Y-55103168D02*
X197946060Y-55131739D01*
X197946060Y-55131739D02*
X197974632Y-55160311D01*
X197974632Y-55160311D02*
X198031774Y-55246025D01*
X198031774Y-55246025D02*
X198060346Y-55360311D01*
X198060346Y-55360311D02*
X198060346Y-55588882D01*
X198060346Y-55588882D02*
X198031774Y-55646025D01*
X198031774Y-55646025D02*
X198003203Y-55674597D01*
X198003203Y-55674597D02*
X197946060Y-55703168D01*
X197946060Y-55703168D02*
X197831774Y-55703168D01*
X197831774Y-55703168D02*
X197774632Y-55674597D01*
X197774632Y-55674597D02*
X197746060Y-55646025D01*
X197746060Y-55646025D02*
X197717489Y-55588882D01*
X197717489Y-55588882D02*
X197717489Y-55446025D01*
X197717489Y-55446025D02*
X197746060Y-55388882D01*
X197746060Y-55388882D02*
X197774632Y-55360311D01*
X197774632Y-55360311D02*
X197831774Y-55331739D01*
X197831774Y-55331739D02*
X197946060Y-55331739D01*
X197946060Y-55331739D02*
X198003203Y-55360311D01*
X198003203Y-55360311D02*
X198031774Y-55388882D01*
X198031774Y-55388882D02*
X198060346Y-55446025D01*
X197203203Y-55303168D02*
X197203203Y-55703168D01*
X197346060Y-55074597D02*
X197488917Y-55503168D01*
X197488917Y-55503168D02*
X197117488Y-55503168D01*
X183474917Y-72683168D02*
X183674917Y-72397454D01*
X183817774Y-72683168D02*
X183817774Y-72083168D01*
X183817774Y-72083168D02*
X183589203Y-72083168D01*
X183589203Y-72083168D02*
X183532060Y-72111739D01*
X183532060Y-72111739D02*
X183503489Y-72140311D01*
X183503489Y-72140311D02*
X183474917Y-72197454D01*
X183474917Y-72197454D02*
X183474917Y-72283168D01*
X183474917Y-72283168D02*
X183503489Y-72340311D01*
X183503489Y-72340311D02*
X183532060Y-72368882D01*
X183532060Y-72368882D02*
X183589203Y-72397454D01*
X183589203Y-72397454D02*
X183817774Y-72397454D01*
X182903489Y-72683168D02*
X183246346Y-72683168D01*
X183074917Y-72683168D02*
X183074917Y-72083168D01*
X183074917Y-72083168D02*
X183132060Y-72168882D01*
X183132060Y-72168882D02*
X183189203Y-72226025D01*
X183189203Y-72226025D02*
X183246346Y-72254597D01*
X182617774Y-72683168D02*
X182503488Y-72683168D01*
X182503488Y-72683168D02*
X182446345Y-72654597D01*
X182446345Y-72654597D02*
X182417774Y-72626025D01*
X182417774Y-72626025D02*
X182360631Y-72540311D01*
X182360631Y-72540311D02*
X182332060Y-72426025D01*
X182332060Y-72426025D02*
X182332060Y-72197454D01*
X182332060Y-72197454D02*
X182360631Y-72140311D01*
X182360631Y-72140311D02*
X182389203Y-72111739D01*
X182389203Y-72111739D02*
X182446345Y-72083168D01*
X182446345Y-72083168D02*
X182560631Y-72083168D01*
X182560631Y-72083168D02*
X182617774Y-72111739D01*
X182617774Y-72111739D02*
X182646345Y-72140311D01*
X182646345Y-72140311D02*
X182674917Y-72197454D01*
X182674917Y-72197454D02*
X182674917Y-72340311D01*
X182674917Y-72340311D02*
X182646345Y-72397454D01*
X182646345Y-72397454D02*
X182617774Y-72426025D01*
X182617774Y-72426025D02*
X182560631Y-72454597D01*
X182560631Y-72454597D02*
X182446345Y-72454597D01*
X182446345Y-72454597D02*
X182389203Y-72426025D01*
X182389203Y-72426025D02*
X182360631Y-72397454D01*
X182360631Y-72397454D02*
X182332060Y-72340311D01*
X199864917Y-101626025D02*
X199893489Y-101654597D01*
X199893489Y-101654597D02*
X199979203Y-101683168D01*
X199979203Y-101683168D02*
X200036346Y-101683168D01*
X200036346Y-101683168D02*
X200122060Y-101654597D01*
X200122060Y-101654597D02*
X200179203Y-101597454D01*
X200179203Y-101597454D02*
X200207774Y-101540311D01*
X200207774Y-101540311D02*
X200236346Y-101426025D01*
X200236346Y-101426025D02*
X200236346Y-101340311D01*
X200236346Y-101340311D02*
X200207774Y-101226025D01*
X200207774Y-101226025D02*
X200179203Y-101168882D01*
X200179203Y-101168882D02*
X200122060Y-101111739D01*
X200122060Y-101111739D02*
X200036346Y-101083168D01*
X200036346Y-101083168D02*
X199979203Y-101083168D01*
X199979203Y-101083168D02*
X199893489Y-101111739D01*
X199893489Y-101111739D02*
X199864917Y-101140311D01*
X199664917Y-101083168D02*
X199293489Y-101083168D01*
X199293489Y-101083168D02*
X199493489Y-101311739D01*
X199493489Y-101311739D02*
X199407774Y-101311739D01*
X199407774Y-101311739D02*
X199350632Y-101340311D01*
X199350632Y-101340311D02*
X199322060Y-101368882D01*
X199322060Y-101368882D02*
X199293489Y-101426025D01*
X199293489Y-101426025D02*
X199293489Y-101568882D01*
X199293489Y-101568882D02*
X199322060Y-101626025D01*
X199322060Y-101626025D02*
X199350632Y-101654597D01*
X199350632Y-101654597D02*
X199407774Y-101683168D01*
X199407774Y-101683168D02*
X199579203Y-101683168D01*
X199579203Y-101683168D02*
X199636346Y-101654597D01*
X199636346Y-101654597D02*
X199664917Y-101626025D01*
X198779203Y-101283168D02*
X198779203Y-101683168D01*
X198922060Y-101054597D02*
X199064917Y-101483168D01*
X199064917Y-101483168D02*
X198693488Y-101483168D01*
X201464917Y-101626025D02*
X201493489Y-101654597D01*
X201493489Y-101654597D02*
X201579203Y-101683168D01*
X201579203Y-101683168D02*
X201636346Y-101683168D01*
X201636346Y-101683168D02*
X201722060Y-101654597D01*
X201722060Y-101654597D02*
X201779203Y-101597454D01*
X201779203Y-101597454D02*
X201807774Y-101540311D01*
X201807774Y-101540311D02*
X201836346Y-101426025D01*
X201836346Y-101426025D02*
X201836346Y-101340311D01*
X201836346Y-101340311D02*
X201807774Y-101226025D01*
X201807774Y-101226025D02*
X201779203Y-101168882D01*
X201779203Y-101168882D02*
X201722060Y-101111739D01*
X201722060Y-101111739D02*
X201636346Y-101083168D01*
X201636346Y-101083168D02*
X201579203Y-101083168D01*
X201579203Y-101083168D02*
X201493489Y-101111739D01*
X201493489Y-101111739D02*
X201464917Y-101140311D01*
X201264917Y-101083168D02*
X200893489Y-101083168D01*
X200893489Y-101083168D02*
X201093489Y-101311739D01*
X201093489Y-101311739D02*
X201007774Y-101311739D01*
X201007774Y-101311739D02*
X200950632Y-101340311D01*
X200950632Y-101340311D02*
X200922060Y-101368882D01*
X200922060Y-101368882D02*
X200893489Y-101426025D01*
X200893489Y-101426025D02*
X200893489Y-101568882D01*
X200893489Y-101568882D02*
X200922060Y-101626025D01*
X200922060Y-101626025D02*
X200950632Y-101654597D01*
X200950632Y-101654597D02*
X201007774Y-101683168D01*
X201007774Y-101683168D02*
X201179203Y-101683168D01*
X201179203Y-101683168D02*
X201236346Y-101654597D01*
X201236346Y-101654597D02*
X201264917Y-101626025D01*
X200322060Y-101683168D02*
X200664917Y-101683168D01*
X200493488Y-101683168D02*
X200493488Y-101083168D01*
X200493488Y-101083168D02*
X200550631Y-101168882D01*
X200550631Y-101168882D02*
X200607774Y-101226025D01*
X200607774Y-101226025D02*
X200664917Y-101254597D01*
X196264918Y-92626025D02*
X196293490Y-92654597D01*
X196293490Y-92654597D02*
X196379204Y-92683168D01*
X196379204Y-92683168D02*
X196436347Y-92683168D01*
X196436347Y-92683168D02*
X196522061Y-92654597D01*
X196522061Y-92654597D02*
X196579204Y-92597454D01*
X196579204Y-92597454D02*
X196607775Y-92540311D01*
X196607775Y-92540311D02*
X196636347Y-92426025D01*
X196636347Y-92426025D02*
X196636347Y-92340311D01*
X196636347Y-92340311D02*
X196607775Y-92226025D01*
X196607775Y-92226025D02*
X196579204Y-92168882D01*
X196579204Y-92168882D02*
X196522061Y-92111739D01*
X196522061Y-92111739D02*
X196436347Y-92083168D01*
X196436347Y-92083168D02*
X196379204Y-92083168D01*
X196379204Y-92083168D02*
X196293490Y-92111739D01*
X196293490Y-92111739D02*
X196264918Y-92140311D01*
X196036347Y-92140311D02*
X196007775Y-92111739D01*
X196007775Y-92111739D02*
X195950633Y-92083168D01*
X195950633Y-92083168D02*
X195807775Y-92083168D01*
X195807775Y-92083168D02*
X195750633Y-92111739D01*
X195750633Y-92111739D02*
X195722061Y-92140311D01*
X195722061Y-92140311D02*
X195693490Y-92197454D01*
X195693490Y-92197454D02*
X195693490Y-92254597D01*
X195693490Y-92254597D02*
X195722061Y-92340311D01*
X195722061Y-92340311D02*
X196064918Y-92683168D01*
X196064918Y-92683168D02*
X195693490Y-92683168D01*
X195150632Y-92083168D02*
X195436346Y-92083168D01*
X195436346Y-92083168D02*
X195464918Y-92368882D01*
X195464918Y-92368882D02*
X195436346Y-92340311D01*
X195436346Y-92340311D02*
X195379204Y-92311739D01*
X195379204Y-92311739D02*
X195236346Y-92311739D01*
X195236346Y-92311739D02*
X195179204Y-92340311D01*
X195179204Y-92340311D02*
X195150632Y-92368882D01*
X195150632Y-92368882D02*
X195122061Y-92426025D01*
X195122061Y-92426025D02*
X195122061Y-92568882D01*
X195122061Y-92568882D02*
X195150632Y-92626025D01*
X195150632Y-92626025D02*
X195179204Y-92654597D01*
X195179204Y-92654597D02*
X195236346Y-92683168D01*
X195236346Y-92683168D02*
X195379204Y-92683168D01*
X195379204Y-92683168D02*
X195436346Y-92654597D01*
X195436346Y-92654597D02*
X195464918Y-92626025D01*
X186085714Y-78742371D02*
X186285714Y-78456657D01*
X186428571Y-78742371D02*
X186428571Y-78142371D01*
X186428571Y-78142371D02*
X186200000Y-78142371D01*
X186200000Y-78142371D02*
X186142857Y-78170942D01*
X186142857Y-78170942D02*
X186114286Y-78199514D01*
X186114286Y-78199514D02*
X186085714Y-78256657D01*
X186085714Y-78256657D02*
X186085714Y-78342371D01*
X186085714Y-78342371D02*
X186114286Y-78399514D01*
X186114286Y-78399514D02*
X186142857Y-78428085D01*
X186142857Y-78428085D02*
X186200000Y-78456657D01*
X186200000Y-78456657D02*
X186428571Y-78456657D01*
X185857143Y-78199514D02*
X185828571Y-78170942D01*
X185828571Y-78170942D02*
X185771429Y-78142371D01*
X185771429Y-78142371D02*
X185628571Y-78142371D01*
X185628571Y-78142371D02*
X185571429Y-78170942D01*
X185571429Y-78170942D02*
X185542857Y-78199514D01*
X185542857Y-78199514D02*
X185514286Y-78256657D01*
X185514286Y-78256657D02*
X185514286Y-78313800D01*
X185514286Y-78313800D02*
X185542857Y-78399514D01*
X185542857Y-78399514D02*
X185885714Y-78742371D01*
X185885714Y-78742371D02*
X185514286Y-78742371D01*
X185285714Y-78199514D02*
X185257142Y-78170942D01*
X185257142Y-78170942D02*
X185200000Y-78142371D01*
X185200000Y-78142371D02*
X185057142Y-78142371D01*
X185057142Y-78142371D02*
X185000000Y-78170942D01*
X185000000Y-78170942D02*
X184971428Y-78199514D01*
X184971428Y-78199514D02*
X184942857Y-78256657D01*
X184942857Y-78256657D02*
X184942857Y-78313800D01*
X184942857Y-78313800D02*
X184971428Y-78399514D01*
X184971428Y-78399514D02*
X185314285Y-78742371D01*
X185314285Y-78742371D02*
X184942857Y-78742371D01*
X202864917Y-93826025D02*
X202893489Y-93854597D01*
X202893489Y-93854597D02*
X202979203Y-93883168D01*
X202979203Y-93883168D02*
X203036346Y-93883168D01*
X203036346Y-93883168D02*
X203122060Y-93854597D01*
X203122060Y-93854597D02*
X203179203Y-93797454D01*
X203179203Y-93797454D02*
X203207774Y-93740311D01*
X203207774Y-93740311D02*
X203236346Y-93626025D01*
X203236346Y-93626025D02*
X203236346Y-93540311D01*
X203236346Y-93540311D02*
X203207774Y-93426025D01*
X203207774Y-93426025D02*
X203179203Y-93368882D01*
X203179203Y-93368882D02*
X203122060Y-93311739D01*
X203122060Y-93311739D02*
X203036346Y-93283168D01*
X203036346Y-93283168D02*
X202979203Y-93283168D01*
X202979203Y-93283168D02*
X202893489Y-93311739D01*
X202893489Y-93311739D02*
X202864917Y-93340311D01*
X202664917Y-93283168D02*
X202293489Y-93283168D01*
X202293489Y-93283168D02*
X202493489Y-93511739D01*
X202493489Y-93511739D02*
X202407774Y-93511739D01*
X202407774Y-93511739D02*
X202350632Y-93540311D01*
X202350632Y-93540311D02*
X202322060Y-93568882D01*
X202322060Y-93568882D02*
X202293489Y-93626025D01*
X202293489Y-93626025D02*
X202293489Y-93768882D01*
X202293489Y-93768882D02*
X202322060Y-93826025D01*
X202322060Y-93826025D02*
X202350632Y-93854597D01*
X202350632Y-93854597D02*
X202407774Y-93883168D01*
X202407774Y-93883168D02*
X202579203Y-93883168D01*
X202579203Y-93883168D02*
X202636346Y-93854597D01*
X202636346Y-93854597D02*
X202664917Y-93826025D01*
X201950631Y-93540311D02*
X202007774Y-93511739D01*
X202007774Y-93511739D02*
X202036345Y-93483168D01*
X202036345Y-93483168D02*
X202064917Y-93426025D01*
X202064917Y-93426025D02*
X202064917Y-93397454D01*
X202064917Y-93397454D02*
X202036345Y-93340311D01*
X202036345Y-93340311D02*
X202007774Y-93311739D01*
X202007774Y-93311739D02*
X201950631Y-93283168D01*
X201950631Y-93283168D02*
X201836345Y-93283168D01*
X201836345Y-93283168D02*
X201779203Y-93311739D01*
X201779203Y-93311739D02*
X201750631Y-93340311D01*
X201750631Y-93340311D02*
X201722060Y-93397454D01*
X201722060Y-93397454D02*
X201722060Y-93426025D01*
X201722060Y-93426025D02*
X201750631Y-93483168D01*
X201750631Y-93483168D02*
X201779203Y-93511739D01*
X201779203Y-93511739D02*
X201836345Y-93540311D01*
X201836345Y-93540311D02*
X201950631Y-93540311D01*
X201950631Y-93540311D02*
X202007774Y-93568882D01*
X202007774Y-93568882D02*
X202036345Y-93597454D01*
X202036345Y-93597454D02*
X202064917Y-93654597D01*
X202064917Y-93654597D02*
X202064917Y-93768882D01*
X202064917Y-93768882D02*
X202036345Y-93826025D01*
X202036345Y-93826025D02*
X202007774Y-93854597D01*
X202007774Y-93854597D02*
X201950631Y-93883168D01*
X201950631Y-93883168D02*
X201836345Y-93883168D01*
X201836345Y-93883168D02*
X201779203Y-93854597D01*
X201779203Y-93854597D02*
X201750631Y-93826025D01*
X201750631Y-93826025D02*
X201722060Y-93768882D01*
X201722060Y-93768882D02*
X201722060Y-93654597D01*
X201722060Y-93654597D02*
X201750631Y-93597454D01*
X201750631Y-93597454D02*
X201779203Y-93568882D01*
X201779203Y-93568882D02*
X201836345Y-93540311D01*
D11*
%TO.C,R20*%
X180842843Y-73130797D02*
X180535561Y-73130797D01*
X180842843Y-73890797D02*
X180535561Y-73890797D01*
%TO.C,C16*%
X170416455Y-96675797D02*
X169893951Y-96675797D01*
X170416455Y-98145797D02*
X169893951Y-98145797D01*
%TO.C,C24*%
X198741951Y-89675797D02*
X199264455Y-89675797D01*
X198741951Y-91145797D02*
X199264455Y-91145797D01*
%TO.C,C50*%
X186590455Y-54455254D02*
X186067951Y-54455254D01*
X186590455Y-55925254D02*
X186067951Y-55925254D01*
%TO.C,C47*%
X192844202Y-73349546D02*
X192844202Y-73872050D01*
X194314202Y-73349546D02*
X194314202Y-73872050D01*
%TO.C,C53*%
X170544204Y-68270548D02*
X170544204Y-67748044D01*
X172014204Y-68270548D02*
X172014204Y-67748044D01*
%TO.C,C36*%
X199238955Y-93475797D02*
X198716451Y-93475797D01*
X199238955Y-94945797D02*
X198716451Y-94945797D01*
%TO.C,R38*%
X180535562Y-68430797D02*
X180842844Y-68430797D01*
X180535562Y-69190797D02*
X180842844Y-69190797D01*
%TO.C,C78*%
X164944203Y-57072050D02*
X164944203Y-56549544D01*
X166414203Y-57072050D02*
X166414203Y-56549544D01*
%TO.C,C59*%
X194055096Y-66355254D02*
X194577600Y-66355254D01*
X194055096Y-67825254D02*
X194577600Y-67825254D01*
%TO.C,C70*%
X172590455Y-55875797D02*
X172067951Y-55875797D01*
X172590455Y-57345797D02*
X172067951Y-57345797D01*
%TO.C,R82*%
X184699203Y-66064438D02*
X184699203Y-65757156D01*
X185459203Y-66064438D02*
X185459203Y-65757156D01*
%TO.C,C19*%
X170416455Y-84875797D02*
X169893951Y-84875797D01*
X170416455Y-86345797D02*
X169893951Y-86345797D01*
%TO.C,C35*%
X202438954Y-97275798D02*
X201916450Y-97275798D01*
X202438954Y-98745798D02*
X201916450Y-98745798D01*
%TO.C,C43*%
X168017951Y-92675797D02*
X168540455Y-92675797D01*
X168017951Y-94145797D02*
X168540455Y-94145797D01*
%TO.C,C60*%
X176329600Y-72555254D02*
X175807096Y-72555254D01*
X176329600Y-74025254D02*
X175807096Y-74025254D01*
%TO.C,C30*%
X198741952Y-95475797D02*
X199264456Y-95475797D01*
X198741952Y-96945797D02*
X199264456Y-96945797D01*
%TO.C,C69*%
X175617950Y-53875797D02*
X176140456Y-53875797D01*
X175617950Y-55345797D02*
X176140456Y-55345797D01*
%TO.C,R28*%
X178742843Y-73130797D02*
X178435561Y-73130797D01*
X178742843Y-73890797D02*
X178435561Y-73890797D01*
%TO.C,R3*%
X191732844Y-72230797D02*
X191425562Y-72230797D01*
X191732844Y-72990797D02*
X191425562Y-72990797D01*
%TO.C,C63*%
X170857348Y-65027506D02*
X170857348Y-64505002D01*
X172327348Y-65027506D02*
X172327348Y-64505002D01*
%TO.C,C58*%
X193655096Y-60555254D02*
X194177600Y-60555254D01*
X193655096Y-62025254D02*
X194177600Y-62025254D01*
%TO.C,C44*%
X173951767Y-61580254D02*
X174232929Y-61580254D01*
X173951767Y-62600254D02*
X174232929Y-62600254D01*
%TO.C,C40*%
X194038956Y-100275797D02*
X193516452Y-100275797D01*
X194038956Y-101745797D02*
X193516452Y-101745797D01*
%TO.C,C68*%
X172590455Y-53875797D02*
X172067951Y-53875797D01*
X172590455Y-55345797D02*
X172067951Y-55345797D01*
%TO.C,C75*%
X177740456Y-64275797D02*
X177217952Y-64275797D01*
X177740456Y-65745797D02*
X177217952Y-65745797D01*
%TO.C,C33*%
X174241951Y-100275797D02*
X174764455Y-100275797D01*
X174241951Y-101745797D02*
X174764455Y-101745797D01*
%TO.C,C71*%
X186169203Y-67026378D02*
X186169203Y-66745216D01*
X187189203Y-67026378D02*
X187189203Y-66745216D01*
%TO.C,C82*%
X174744204Y-76272050D02*
X174744204Y-75749546D01*
X176214204Y-76272050D02*
X176214204Y-75749546D01*
%TO.C,C49*%
X182567951Y-56475797D02*
X183090455Y-56475797D01*
X182567951Y-57945797D02*
X183090455Y-57945797D01*
%TO.C,R37*%
X180842843Y-70830797D02*
X180535561Y-70830797D01*
X180842843Y-71590797D02*
X180535561Y-71590797D01*
%TO.C,C23*%
X198741951Y-87875797D02*
X199264455Y-87875797D01*
X198741951Y-89345797D02*
X199264455Y-89345797D01*
%TO.C,R2*%
X185122845Y-72330797D02*
X184815563Y-72330797D01*
X185122845Y-73090797D02*
X184815563Y-73090797D01*
%TO.C,C73*%
X182182348Y-68324673D02*
X182182348Y-68605835D01*
X183202348Y-68324673D02*
X183202348Y-68605835D01*
%TO.C,R1*%
X187799203Y-69967155D02*
X187799203Y-70274437D01*
X188559203Y-69967155D02*
X188559203Y-70274437D01*
%TO.C,C1*%
X191687039Y-73250798D02*
X191471367Y-73250798D01*
X191687039Y-73970798D02*
X191471367Y-73970798D01*
%TO.C,C74*%
X180241952Y-64275797D02*
X180764456Y-64275797D01*
X180241952Y-65745797D02*
X180764456Y-65745797D01*
%TO.C,C42*%
X169919452Y-90475797D02*
X170441956Y-90475797D01*
X169919452Y-91945797D02*
X170441956Y-91945797D01*
%TO.C,C27*%
X188490455Y-56475797D02*
X187967949Y-56475797D01*
X188490455Y-57945797D02*
X187967949Y-57945797D01*
%TO.C,R33*%
X178922845Y-70330797D02*
X178615563Y-70330797D01*
X178922845Y-71090797D02*
X178615563Y-71090797D01*
%TO.C,R34*%
X178799203Y-69067155D02*
X178799203Y-69374437D01*
X179559203Y-69067155D02*
X179559203Y-69374437D01*
%TO.C,C15*%
X170412961Y-98516298D02*
X169890457Y-98516298D01*
X170412961Y-99986298D02*
X169890457Y-99986298D01*
%TO.C,C21*%
X176882348Y-76749674D02*
X176882348Y-77030834D01*
X177902348Y-76749674D02*
X177902348Y-77030834D01*
D12*
%TO.C,CN1*%
X201731203Y-62324797D02*
X207827203Y-62324797D01*
X201731203Y-65245797D02*
X201731203Y-62324797D01*
X201731203Y-92296797D02*
X201731203Y-89375797D01*
X207827203Y-62324797D02*
X207827203Y-65245797D01*
X207827203Y-89375797D02*
X207827203Y-92296797D01*
X207827203Y-92296797D02*
X201731203Y-92296797D01*
D13*
G36*
X207573203Y-90683797D02*
G01*
X206373203Y-90283797D01*
X207573203Y-89883797D01*
X207573203Y-90683797D01*
G37*
D11*
%TO.C,C39*%
X174740455Y-98375798D02*
X174217951Y-98375798D01*
X174740455Y-99845798D02*
X174217951Y-99845798D01*
%TO.C,C48*%
X180767041Y-69450797D02*
X180551369Y-69450797D01*
X180767041Y-70170797D02*
X180551369Y-70170797D01*
%TO.C,C18*%
X170416456Y-86675797D02*
X169893952Y-86675797D01*
X170416456Y-88145797D02*
X169893952Y-88145797D01*
%TO.C,C26*%
X198741951Y-97275798D02*
X199264455Y-97275798D01*
X198741951Y-98745798D02*
X199264455Y-98745798D01*
%TO.C,C62*%
X194366456Y-54425797D02*
X193843952Y-54425797D01*
X194366456Y-55895797D02*
X193843952Y-55895797D01*
%TO.C,C61*%
X172744203Y-76272049D02*
X172744203Y-75749545D01*
X174214203Y-76272049D02*
X174214203Y-75749545D01*
%TO.C,R36*%
X178615562Y-71330797D02*
X178922844Y-71330797D01*
X178615562Y-72090797D02*
X178922844Y-72090797D01*
%TO.C,C76*%
X183090455Y-54455254D02*
X182567951Y-54455254D01*
X183090455Y-55925254D02*
X182567951Y-55925254D01*
%TO.C,C17*%
X170416456Y-88475798D02*
X169893952Y-88475798D01*
X170416456Y-89945798D02*
X169893952Y-89945798D01*
%TO.C,R6*%
X189799203Y-73557156D02*
X189799203Y-73864438D01*
X190559203Y-73557156D02*
X190559203Y-73864438D01*
%TO.C,C65*%
X194366455Y-56375797D02*
X193843951Y-56375797D01*
X194366455Y-57845797D02*
X193843951Y-57845797D01*
%TO.C,C22*%
X188382348Y-72930835D02*
X188382348Y-72649673D01*
X189402348Y-72930835D02*
X189402348Y-72649673D01*
D12*
%TO.C,CN2*%
X161731203Y-62324797D02*
X167827203Y-62324797D01*
X161731203Y-65245797D02*
X161731203Y-62324797D01*
X161731203Y-92296797D02*
X161731203Y-89375797D01*
X167827203Y-62324797D02*
X167827203Y-65245797D01*
X167827203Y-89375797D02*
X167827203Y-92296797D01*
X167827203Y-92296797D02*
X161731203Y-92296797D01*
D13*
G36*
X167573203Y-90683797D02*
G01*
X166373203Y-90283797D01*
X167573203Y-89883797D01*
X167573203Y-90683797D01*
G37*
D11*
%TO.C,C41*%
X191944204Y-77351046D02*
X191944204Y-77873550D01*
X193414204Y-77351046D02*
X193414204Y-77873550D01*
%TO.C,C67*%
X186690456Y-62025797D02*
X186167952Y-62025797D01*
X186690456Y-63495797D02*
X186167952Y-63495797D01*
%TO.C,C37*%
X168019452Y-94675799D02*
X168541956Y-94675799D01*
X168019452Y-96145799D02*
X168541956Y-96145799D01*
%TO.C,C51*%
X168544203Y-68270548D02*
X168544203Y-67748044D01*
X170014203Y-68270548D02*
X170014203Y-67748044D01*
%TO.C,C64*%
X197641951Y-56375797D02*
X198164455Y-56375797D01*
X197641951Y-57845797D02*
X198164455Y-57845797D01*
%TO.C,R19*%
X182935562Y-73130797D02*
X183242844Y-73130797D01*
X182935562Y-73890797D02*
X183242844Y-73890797D01*
%TO.C,C34*%
X199238955Y-99275798D02*
X198716451Y-99275798D01*
X199238955Y-100745798D02*
X198716451Y-100745798D01*
%TO.C,C31*%
X201941952Y-99275798D02*
X202464456Y-99275798D01*
X201941952Y-100745798D02*
X202464456Y-100745798D01*
%TO.C,C25*%
X198741952Y-91475797D02*
X199264456Y-91475797D01*
X198741952Y-92945797D02*
X199264456Y-92945797D01*
%TO.C,R22*%
X185853641Y-76920000D02*
X185546359Y-76920000D01*
X185853641Y-77680000D02*
X185546359Y-77680000D01*
%TO.C,C38*%
X202438954Y-95475797D02*
X201916450Y-95475797D01*
X202438954Y-96945797D02*
X201916450Y-96945797D01*
%TD*%
M02*
